SplineFontDB: 3.2
FontName: IBMPlexSans-Medium
FullName: IBM Plex Sans Medium
FamilyName: IBM Plex Sans Medium
Weight: Medium
Copyright: Copyright 2018 IBM Corp. All rights reserved.
Version: 3.2
ItalicAngle: 0
UnderlinePosition: -121
UnderlineWidth: 77
Ascent: 780
Descent: 220
InvalidEm: 0
sfntRevision: 0x00030083
LayerCount: 2
Layer: 0 1 "+BBcEMAQ0BD0EOAQ5 +BD8EOwQwBD0A" 1
Layer: 1 1 "+BB8ENQRABDUENAQ9BDgEOQAA +BD8EOwQwBD0A" 0
XUID: [1021 279 594395610 28364]
StyleMap: 0x0040
FSType: 0
OS2Version: 4
OS2_WeightWidthSlopeOnly: 1
OS2_UseTypoMetrics: 0
CreationTime: 1585742557
ModificationTime: 1623331340
PfmFamily: 17
TTFWeight: 500
TTFWidth: 5
LineGap: 0
VLineGap: 0
Panose: 2 11 6 3 5 2 3 0 2 3
OS2TypoAscent: 780
OS2TypoAOffset: 0
OS2TypoDescent: -220
OS2TypoDOffset: 0
OS2TypoLinegap: 300
OS2WinAscent: 1025
OS2WinAOffset: 0
OS2WinDescent: 275
OS2WinDOffset: 0
HheadAscent: 1025
HheadAOffset: 0
HheadDescent: -275
HheadDOffset: 0
OS2SubXSize: 650
OS2SubYSize: 600
OS2SubXOff: 0
OS2SubYOff: 75
OS2SupXSize: 650
OS2SupYSize: 600
OS2SupXOff: 0
OS2SupYOff: 350
OS2StrikeYSize: 77
OS2StrikeYPos: 312
OS2CapHeight: 698
OS2XHeight: 520
OS2Vendor: 'IBM '
OS2CodePages: 2000019f.00000000
OS2UnicodeRanges: a00002ef.5000203b.00000000.00000000
Lookup: 1 0 0 "'aalt' +BBIEQQQ1 +BDAEOwRMBEIENQRABD0EMARCBDgEMgQ9BEsENQAA +BDIEMARABDgEMAQ9BEIESwAA lookup 0" { "'aalt' +BBIEQQQ1 +BDAEOwRMBEIENQRABD0EMARCBDgEMgQ9BEsENQAA +BDIEMARABDgEMAQ9BEIESwAA lookup 0 subtable"  } ['aalt' ('DFLT' <'dflt' > 'cyrl' <'dflt' > 'grek' <'dflt' > 'latn' <'MOL ' 'ROM ' 'dflt' > ) ]
Lookup: 3 0 0 "'aalt' +BBIEQQQ1 +BDAEOwRMBEIENQRABD0EMARCBDgEMgQ9BEsENQAA +BDIEMARABDgEMAQ9BEIESwAA lookup 1" { "'aalt' +BBIEQQQ1 +BDAEOwRMBEIENQRABD0EMARCBDgEMgQ9BEsENQAA +BDIEMARABDgEMAQ9BEIESwAA lookup 1 subtable"  } ['aalt' ('DFLT' <'dflt' > 'cyrl' <'dflt' > 'grek' <'dflt' > 'latn' <'MOL ' 'ROM ' 'dflt' > ) ]

StartChar: .notdef
Encoding: 65536 -1 0
Width: 472
GlyphClass: 1
Flags: W
LayerCount: 2
Fore
SplineSet
32 0 m 1,0,-1
 32 780 l 1,1,-1
 440 780 l 1,2,-1
 440 0 l 1,3,-1
 32 0 l 1,0,-1
109 77 m 1,4,-1
 363 77 l 1,5,-1
 363 703 l 1,6,-1
 109 703 l 1,7,-1
 109 77 l 1,4,-1
EndSplineSet
EndChar

StartChar: a
Encoding: 97 97 4
Width: 549
GlyphClass: 2
Flags: W
AnchorPoint: "+BBEENQQ3BEsEPARPBD0EPQQ+BDUA--2" 259 540 basechar 0
AnchorPoint: "+BBEENQQ3BEsEPARPBD0EPQQ+BDUA--1" 520 0 basechar 0
AnchorPoint: "+BBEENQQ3BEsEPARPBD0EPQQ+BDUA--0" 255 0 basechar 0
LayerCount: 2
Fore
SplineSet
459 0 m 2,0,1
 416 0 416 0 393 24.5 c 128,-1,2
 370 49 370 49 365 87 c 1,3,-1
 360 87 l 1,4,5
 345 38 345 38 305 13 c 128,-1,6
 265 -12 265 -12 208 -12 c 0,7,8
 127 -12 127 -12 83.5 30 c 128,-1,9
 40 72 40 72 40 143 c 0,10,11
 40 221 40 221 96.5 260 c 128,-1,12
 153 299 153 299 262 299 c 2,13,-1
 356 299 l 1,14,-1
 356 343 l 2,15,16
 356 391 356 391 330 417 c 128,-1,17
 304 443 304 443 249 443 c 0,18,19
 203 443 203 443 174 423 c 128,-1,20
 145 403 145 403 125 372 c 1,21,-1
 60 431 l 1,22,23
 86 475 86 475 133 503.5 c 128,-1,24
 180 532 180 532 256 532 c 0,25,26
 357 532 357 532 411 485 c 128,-1,27
 465 438 465 438 465 350 c 2,28,-1
 465 89 l 1,29,-1
 520 89 l 1,30,-1
 520 0 l 1,31,-1
 459 0 l 2,0,1
239 71 m 0,32,33
 290 71 290 71 323 93.5 c 128,-1,34
 356 116 356 116 356 154 c 2,35,-1
 356 229 l 1,36,-1
 264 229 l 2,37,38
 151 229 151 229 151 159 c 2,39,-1
 151 141 l 2,40,41
 151 106 151 106 174.5 88.5 c 128,-1,42
 198 71 198 71 239 71 c 0,32,33
EndSplineSet
Substitution2: "'salt' +BCEEQgQ4BDsEOARBBEIEOARHBDUEQQQ6BDgENQAA +BDAEOwRMBEIENQRABD0EMARCBDgEMgRL lookup 18 subtable" a.alt01
Substitution2: "'ss01' Style Set 1 lookup 13 subtable" a.alt01
Substitution2: "'ordn' +BB8EPgRABE8ENAQ6BD4EMgRLBDUA +BEcEOARBBDsEOARCBDUEOwRMBD0ESwQ1 lookup 4 subtable" ordfeminine
Substitution2: "'aalt' +BBIEQQQ1 +BDAEOwRMBEIENQRABD0EMARCBDgEMgQ9BEsENQAA +BDIEMARABDgEMAQ9BEIESwAA lookup 0 subtable" a.alt01
EndChar

StartChar: a.alt01
Encoding: 65537 -1 5
Width: 592
GlyphClass: 2
Flags: W
AnchorPoint: "+BBEENQQ3BEsEPARPBD0EPQQ+BDUA--2" 294 540 basechar 0
AnchorPoint: "+BBEENQQ3BEsEPARPBD0EPQQ+BDUA--1" 514 0 basechar 0
AnchorPoint: "+BBEENQQ3BEsEPARPBD0EPQQ+BDUA--0" 284 0 basechar 0
LayerCount: 2
Fore
SplineSet
405 86 m 1,0,-1
 400 86 l 1,1,2
 383 40 383 40 344.5 14 c 128,-1,3
 306 -12 306 -12 254 -12 c 0,4,5
 155 -12 155 -12 101 59.5 c 128,-1,6
 47 131 47 131 47 260 c 256,7,8
 47 389 47 389 101 460.5 c 128,-1,9
 155 532 155 532 254 532 c 0,10,11
 306 532 306 532 344.5 506.5 c 128,-1,12
 383 481 383 481 400 434 c 1,13,-1
 405 434 l 1,14,-1
 405 520 l 1,15,-1
 514 520 l 1,16,-1
 514 0 l 1,17,-1
 405 0 l 1,18,-1
 405 86 l 1,0,-1
287 82 m 0,19,20
 337 82 337 82 371 106.5 c 128,-1,21
 405 131 405 131 405 171 c 2,22,-1
 405 349 l 2,23,24
 405 389 405 389 371 413.5 c 128,-1,25
 337 438 337 438 287 438 c 0,26,27
 230 438 230 438 196 401.5 c 128,-1,28
 162 365 162 365 162 305 c 2,29,-1
 162 215 l 2,30,31
 162 155 162 155 196 118.5 c 128,-1,32
 230 82 230 82 287 82 c 0,19,20
EndSplineSet
EndChar

StartChar: b
Encoding: 98 98 6
Width: 592
GlyphClass: 2
Flags: W
AnchorPoint: "+BBEENQQ3BEsEPARPBD0EPQQ+BDUA--0" 312 0 basechar 0
LayerCount: 2
Fore
SplineSet
78 740 m 1,0,-1
 187 740 l 1,1,-1
 187 434 l 1,2,-1
 192 434 l 1,3,4
 209 481 209 481 247.5 506.5 c 128,-1,5
 286 532 286 532 338 532 c 0,6,7
 437 532 437 532 491 460.5 c 128,-1,8
 545 389 545 389 545 260 c 256,9,10
 545 131 545 131 491 59.5 c 128,-1,11
 437 -12 437 -12 338 -12 c 0,12,13
 286 -12 286 -12 247.5 14 c 128,-1,14
 209 40 209 40 192 86 c 1,15,-1
 187 86 l 1,16,-1
 187 0 l 1,17,-1
 78 0 l 1,18,-1
 78 740 l 1,0,-1
305 82 m 0,19,20
 362 82 362 82 396 118.5 c 128,-1,21
 430 155 430 155 430 215 c 2,22,-1
 430 305 l 2,23,24
 430 365 430 365 396 401.5 c 128,-1,25
 362 438 362 438 305 438 c 0,26,27
 255 438 255 438 221 413.5 c 128,-1,28
 187 389 187 389 187 349 c 2,29,-1
 187 171 l 2,30,31
 187 131 187 131 221 106.5 c 128,-1,32
 255 82 255 82 305 82 c 0,19,20
EndSplineSet
EndChar

StartChar: c
Encoding: 99 99 7
Width: 510
GlyphClass: 2
Flags: W
AnchorPoint: "+BBEENQQ3BEsEPARPBD0EPQQ+BDUA--2" 275 540 basechar 0
AnchorPoint: "+BBEENQQ3BEsEPARPBD0EPQQ+BDUA--0" 270 0 basechar 0
LayerCount: 2
Fore
SplineSet
279 -12 m 0,0,1
 223 -12 223 -12 179 7 c 128,-1,2
 135 26 135 26 105 61.5 c 128,-1,3
 75 97 75 97 59 147.5 c 128,-1,4
 43 198 43 198 43 260 c 256,5,6
 43 322 43 322 59 372.5 c 128,-1,7
 75 423 75 423 105 458.5 c 128,-1,8
 135 494 135 494 179 513 c 128,-1,9
 223 532 223 532 279 532 c 0,10,11
 357 532 357 532 407 497 c 128,-1,12
 457 462 457 462 480 404 c 1,13,-1
 390 362 l 1,14,15
 379 398 379 398 351.5 419.5 c 128,-1,16
 324 441 324 441 279 441 c 0,17,18
 219 441 219 441 188.5 403.5 c 128,-1,19
 158 366 158 366 158 306 c 2,20,-1
 158 213 l 2,21,22
 158 153 158 153 188.5 115.5 c 128,-1,23
 219 78 219 78 279 78 c 0,24,25
 327 78 327 78 355.5 101.5 c 128,-1,26
 384 125 384 125 401 164 c 1,27,-1
 484 120 l 1,28,29
 458 56 458 56 406 22 c 128,-1,30
 354 -12 354 -12 279 -12 c 0,0,1
EndSplineSet
EndChar

StartChar: d
Encoding: 100 100 8
Width: 592
GlyphClass: 2
Flags: W
AnchorPoint: "+BBEENQQ3BEsEPARPBD0EPQQ+BDUA--3" 574 740 basechar 0
AnchorPoint: "+BBEENQQ3BEsEPARPBD0EPQQ+BDUA--0" 281 0 basechar 0
LayerCount: 2
Fore
SplineSet
405 86 m 1,0,-1
 400 86 l 1,1,2
 383 40 383 40 344.5 14 c 128,-1,3
 306 -12 306 -12 254 -12 c 0,4,5
 155 -12 155 -12 101 59.5 c 128,-1,6
 47 131 47 131 47 260 c 256,7,8
 47 389 47 389 101 460.5 c 128,-1,9
 155 532 155 532 254 532 c 0,10,11
 306 532 306 532 344.5 506.5 c 128,-1,12
 383 481 383 481 400 434 c 1,13,-1
 405 434 l 1,14,-1
 405 740 l 1,15,-1
 514 740 l 1,16,-1
 514 0 l 1,17,-1
 405 0 l 1,18,-1
 405 86 l 1,0,-1
287 82 m 0,19,20
 337 82 337 82 371 106.5 c 128,-1,21
 405 131 405 131 405 171 c 2,22,-1
 405 349 l 2,23,24
 405 389 405 389 371 413.5 c 128,-1,25
 337 438 337 438 287 438 c 0,26,27
 230 438 230 438 196 401.5 c 128,-1,28
 162 365 162 365 162 305 c 2,29,-1
 162 215 l 2,30,31
 162 155 162 155 196 118.5 c 128,-1,32
 230 82 230 82 287 82 c 0,19,20
EndSplineSet
EndChar

StartChar: e
Encoding: 101 101 9
Width: 556
GlyphClass: 2
Flags: W
AnchorPoint: "+BBEENQQ3BEsEPARPBD0EPQQ+BDUA--2" 282 540 basechar 0
AnchorPoint: "+BBEENQQ3BEsEPARPBD0EPQQ+BDUA--1" 369 0 basechar 0
AnchorPoint: "+BBEENQQ3BEsEPARPBD0EPQQ+BDUA--0" 283 0 basechar 0
LayerCount: 2
Fore
SplineSet
282 -12 m 0,0,1
 226 -12 226 -12 182 7 c 128,-1,2
 138 26 138 26 107 61.5 c 128,-1,3
 76 97 76 97 59.5 147.5 c 128,-1,4
 43 198 43 198 43 260 c 256,5,6
 43 322 43 322 59.5 372.5 c 128,-1,7
 76 423 76 423 107 458.5 c 128,-1,8
 138 494 138 494 182 513 c 128,-1,9
 226 532 226 532 282 532 c 0,10,11
 339 532 339 532 382.5 512 c 128,-1,12
 426 492 426 492 455 456.5 c 128,-1,13
 484 421 484 421 498.5 374 c 128,-1,14
 513 327 513 327 513 273 c 2,15,-1
 513 232 l 1,16,-1
 156 232 l 1,17,-1
 156 215 l 2,18,19
 156 155 156 155 191.5 116.5 c 128,-1,20
 227 78 227 78 293 78 c 0,21,22
 341 78 341 78 374 99 c 128,-1,23
 407 120 407 120 430 156 c 1,24,-1
 494 93 l 1,25,26
 465 45 465 45 410 16.5 c 128,-1,27
 355 -12 355 -12 282 -12 c 0,0,1
282 447 m 0,28,29
 254 447 254 447 230.5 437 c 128,-1,30
 207 427 207 427 190.5 409 c 128,-1,31
 174 391 174 391 165 366 c 128,-1,32
 156 341 156 341 156 311 c 2,33,-1
 156 304 l 1,34,-1
 398 304 l 1,35,-1
 398 314 l 2,36,37
 398 374 398 374 367 410.5 c 128,-1,38
 336 447 336 447 282 447 c 0,28,29
EndSplineSet
EndChar

StartChar: f
Encoding: 102 102 10
Width: 340
GlyphClass: 2
Flags: W
AnchorPoint: "+BBEENQQ3BEsEPARPBD0EPQQ+BDUA--0" 161 0 basechar 0
LayerCount: 2
Fore
SplineSet
105 431 m 1,0,-1
 26 431 l 1,1,-1
 26 520 l 1,2,-1
 105 520 l 1,3,-1
 105 606 l 2,4,5
 105 669 105 669 138 704.5 c 128,-1,6
 171 740 171 740 237 740 c 2,7,-1
 323 740 l 1,8,-1
 323 651 l 1,9,-1
 214 651 l 1,10,-1
 214 520 l 1,11,-1
 323 520 l 1,12,-1
 323 431 l 1,13,-1
 214 431 l 1,14,-1
 214 0 l 1,15,-1
 105 0 l 1,16,-1
 105 431 l 1,0,-1
EndSplineSet
EndChar

StartChar: g
Encoding: 103 103 11
Width: 537
GlyphClass: 2
Flags: W
AnchorPoint: "+BBEENQQ3BEsEPARPBD0EPQQ+BDUA--2" 269 540 basechar 0
LayerCount: 2
Fore
SplineSet
534 -49 m 0,0,1
 534 -130 534 -130 472 -171 c 128,-1,2
 410 -212 410 -212 270 -212 c 0,3,4
 206 -212 206 -212 161.5 -203.5 c 128,-1,5
 117 -195 117 -195 88.5 -179 c 128,-1,6
 60 -163 60 -163 47 -140 c 128,-1,7
 34 -117 34 -117 34 -87 c 0,8,9
 34 -44 34 -44 57.5 -20 c 128,-1,10
 81 4 81 4 123 13 c 1,11,-1
 123 24 l 1,12,13
 64 43 64 43 64 104 c 0,14,15
 64 144 64 144 91 165.5 c 128,-1,16
 118 187 118 187 156 196 c 1,17,-1
 156 200 l 1,18,19
 110 222 110 222 85.5 261.5 c 128,-1,20
 61 301 61 301 61 354 c 0,21,22
 61 434 61 434 114.5 483 c 128,-1,23
 168 532 168 532 268 532 c 0,24,25
 323 532 323 532 362 516 c 1,26,-1
 362 530 l 2,27,28
 362 565 362 565 378.5 584.5 c 128,-1,29
 395 604 395 604 430 604 c 2,30,-1
 510 604 l 1,31,-1
 510 516 l 1,32,-1
 404 516 l 1,33,-1
 404 495 l 1,34,35
 439 472 439 472 458 435.5 c 128,-1,36
 477 399 477 399 477 354 c 0,37,38
 477 275 477 275 423 226.5 c 128,-1,39
 369 178 369 178 269 178 c 0,40,41
 231 178 231 178 201 186 c 1,42,43
 181 179 181 179 166 166.5 c 128,-1,44
 151 154 151 154 151 134 c 0,45,46
 151 113 151 113 170 104 c 128,-1,47
 189 95 189 95 224 95 c 2,48,-1
 352 95 l 2,49,50
 448 95 448 95 491 56.5 c 128,-1,51
 534 18 534 18 534 -49 c 0,0,1
432 -61 m 0,52,53
 432 -34 432 -34 411.5 -18 c 128,-1,54
 391 -2 391 -2 337 -2 c 2,55,-1
 161 -2 l 1,56,57
 125 -23 125 -23 125 -62 c 0,58,59
 125 -94 125 -94 150.5 -113.5 c 128,-1,60
 176 -133 176 -133 237 -133 c 2,61,-1
 305 -133 l 2,62,63
 432 -133 432 -133 432 -61 c 0,52,53
269 257 m 256,64,65
 317 257 317 257 343.5 278.5 c 128,-1,66
 370 300 370 300 370 345 c 2,67,-1
 370 365 l 2,68,69
 370 410 370 410 343.5 431.5 c 128,-1,70
 317 453 317 453 269 453 c 256,71,72
 221 453 221 453 194.5 431.5 c 128,-1,73
 168 410 168 410 168 365 c 2,74,-1
 168 345 l 2,75,76
 168 300 168 300 194.5 278.5 c 128,-1,77
 221 257 221 257 269 257 c 256,64,65
EndSplineSet
Substitution2: "+BBUENAQ4BD0EOARHBD0EMARP +BD8EPgQ0BEEEQgQwBD0EPgQyBDoEMAAA lookup 22 subtable" g.alt02
Substitution2: "'salt' +BCEEQgQ4BDsEOARBBEIEOARHBDUEQQQ6BDgENQAA +BDAEOwRMBEIENQRABD0EMARCBDgEMgRL lookup 18 subtable" g.alt01
Substitution2: "'ss02' Style Set 2 lookup 14 subtable" g.alt01
AlternateSubs2: "'aalt' +BBIEQQQ1 +BDAEOwRMBEIENQRABD0EMARCBDgEMgQ9BEsENQAA +BDIEMARABDgEMAQ9BEIESwAA lookup 1 subtable" g.alt01 g.alt02
EndChar

StartChar: g.alt01
Encoding: 65538 -1 12
Width: 592
GlyphClass: 2
Flags: W
AnchorPoint: "+BBEENQQ3BEsEPARPBD0EPQQ+BDUA--2" 287 540 basechar 0
LayerCount: 2
Fore
SplineSet
514 23 m 2,0,1
 514 -88 514 -88 452.5 -150 c 128,-1,2
 391 -212 391 -212 273 -212 c 0,3,4
 204 -212 204 -212 156.5 -191.5 c 128,-1,5
 109 -171 109 -171 79 -139 c 1,6,-1
 140 -68 l 1,7,8
 191 -122 191 -122 272 -122 c 0,9,10
 337 -122 337 -122 371 -86.5 c 128,-1,11
 405 -51 405 -51 405 15 c 2,12,-1
 405 90 l 1,13,-1
 400 90 l 1,14,15
 383 44 383 44 344.5 18 c 128,-1,16
 306 -8 306 -8 254 -8 c 0,17,18
 155 -8 155 -8 101 63 c 128,-1,19
 47 134 47 134 47 262 c 256,20,21
 47 390 47 390 101 461 c 128,-1,22
 155 532 155 532 254 532 c 0,23,24
 306 532 306 532 344.5 506.5 c 128,-1,25
 383 481 383 481 400 434 c 1,26,-1
 405 434 l 1,27,-1
 405 520 l 1,28,-1
 514 520 l 1,29,-1
 514 23 l 2,0,1
287 86 m 0,30,31
 337 86 337 86 371 110.5 c 128,-1,32
 405 135 405 135 405 175 c 2,33,-1
 405 349 l 2,34,35
 405 389 405 389 371 413.5 c 128,-1,36
 337 438 337 438 287 438 c 0,37,38
 230 438 230 438 196 401.5 c 128,-1,39
 162 365 162 365 162 305 c 2,40,-1
 162 219 l 2,41,42
 162 159 162 159 196 122.5 c 128,-1,43
 230 86 230 86 287 86 c 0,30,31
EndSplineSet
EndChar

StartChar: g.alt02
Encoding: 65539 -1 13
Width: 543
GlyphClass: 2
Flags: W
AnchorPoint: "+BBEENQQ3BEsEPARPBD0EPQQ+BDUA--2" 271 540 basechar 0
LayerCount: 2
Fore
SplineSet
534 -49 m 0,0,1
 534 -130 534 -130 472 -171 c 128,-1,2
 410 -212 410 -212 270 -212 c 0,3,4
 206 -212 206 -212 161.5 -203.5 c 128,-1,5
 117 -195 117 -195 88.5 -179 c 128,-1,6
 60 -163 60 -163 47 -140 c 128,-1,7
 34 -117 34 -117 34 -87 c 0,8,9
 34 -44 34 -44 57.5 -20 c 128,-1,10
 81 4 81 4 123 13 c 1,11,-1
 123 24 l 1,12,13
 64 43 64 43 64 104 c 0,14,15
 64 145 64 145 91.5 166 c 128,-1,16
 119 187 119 187 157 196 c 1,17,-1
 157 200 l 1,18,19
 110 222 110 222 85.5 261.5 c 128,-1,20
 61 301 61 301 61 354 c 0,21,22
 61 434 61 434 115 483 c 128,-1,23
 169 532 169 532 268 532 c 0,24,25
 316 532 316 532 355 520 c 1,26,-1
 522 520 l 1,27,-1
 522 441 l 1,28,-1
 449 441 l 1,29,30
 477 405 477 405 477 354 c 0,31,32
 477 275 477 275 423 226.5 c 128,-1,33
 369 178 369 178 269 178 c 0,34,35
 233 178 233 178 201 186 c 1,36,37
 181 179 181 179 166 166.5 c 128,-1,38
 151 154 151 154 151 134 c 0,39,40
 151 113 151 113 170 104 c 128,-1,41
 189 95 189 95 224 95 c 2,42,-1
 352 95 l 2,43,44
 448 95 448 95 491 56.5 c 128,-1,45
 534 18 534 18 534 -49 c 0,0,1
269 257 m 256,46,47
 317 257 317 257 343.5 278.5 c 128,-1,48
 370 300 370 300 370 345 c 2,49,-1
 370 365 l 2,50,51
 370 410 370 410 343.5 431.5 c 128,-1,52
 317 453 317 453 269 453 c 256,53,54
 221 453 221 453 194.5 431.5 c 128,-1,55
 168 410 168 410 168 365 c 2,56,-1
 168 345 l 2,57,58
 168 300 168 300 194.5 278.5 c 128,-1,59
 221 257 221 257 269 257 c 256,46,47
432 -61 m 0,60,61
 432 -34 432 -34 411.5 -18 c 128,-1,62
 391 -2 391 -2 337 -2 c 2,63,-1
 161 -2 l 1,64,65
 125 -23 125 -23 125 -62 c 0,66,67
 125 -94 125 -94 150.5 -113.5 c 128,-1,68
 176 -133 176 -133 237 -133 c 2,69,-1
 305 -133 l 2,70,71
 432 -133 432 -133 432 -61 c 0,60,61
EndSplineSet
EndChar

StartChar: h
Encoding: 104 104 14
Width: 580
GlyphClass: 2
Flags: W
AnchorPoint: "+BBEENQQ3BEsEPARPBD0EPQQ+BDUA--2" 134 698 basechar 0
AnchorPoint: "+BBEENQQ3BEsEPARPBD0EPQQ+BDUA--0" 293 0 basechar 0
LayerCount: 2
Fore
SplineSet
78 740 m 1,0,-1
 187 740 l 1,1,-1
 187 434 l 1,2,-1
 192 434 l 1,3,4
 209 476 209 476 243.5 504 c 128,-1,5
 278 532 278 532 338 532 c 0,6,7
 418 532 418 532 462.5 479.5 c 128,-1,8
 507 427 507 427 507 330 c 2,9,-1
 507 0 l 1,10,-1
 398 0 l 1,11,-1
 398 317 l 2,12,13
 398 438 398 438 300 438 c 0,14,15
 279 438 279 438 258.5 432.5 c 128,-1,16
 238 427 238 427 222 416 c 128,-1,17
 206 405 206 405 196.5 388 c 128,-1,18
 187 371 187 371 187 349 c 2,19,-1
 187 0 l 1,20,-1
 78 0 l 1,21,-1
 78 740 l 1,0,-1
EndSplineSet
EndChar

StartChar: i
Encoding: 105 105 15
Width: 265
GlyphClass: 2
Flags: W
AnchorPoint: "+BBEENQQ3BEsEPARPBD0EPQQ+BDUA--1" 187 0 basechar 0
AnchorPoint: "+BBEENQQ3BEsEPARPBD0EPQQ+BDUA--0" 133 0 basechar 0
LayerCount: 2
Fore
SplineSet
133 613 m 256,0,1
 99 613 99 613 83.5 629 c 128,-1,2
 68 645 68 645 68 670 c 2,3,-1
 68 687 l 2,4,5
 68 712 68 712 83.5 728 c 128,-1,6
 99 744 99 744 133 744 c 256,7,8
 167 744 167 744 182 728 c 128,-1,9
 197 712 197 712 197 687 c 2,10,-1
 197 670 l 2,11,12
 197 645 197 645 182 629 c 128,-1,13
 167 613 167 613 133 613 c 256,0,1
78 520 m 1,14,-1
 187 520 l 1,15,-1
 187 0 l 1,16,-1
 78 0 l 1,17,-1
 78 520 l 1,14,-1
EndSplineSet
Substitution2: "+BBUENAQ4BD0EOARHBD0EMARP +BD8EPgQ0BEEEQgQwBD0EPgQyBDoEMAAA lookup 22 subtable" dotlessi
EndChar

StartChar: j
Encoding: 106 106 16
Width: 265
GlyphClass: 1
Flags: W
LayerCount: 2
Fore
SplineSet
78 520 m 1,0,-1
 187 520 l 1,1,-1
 187 -70 l 2,2,3
 187 -130 187 -130 156.5 -165 c 128,-1,4
 126 -200 126 -200 60 -200 c 2,5,-1
 -3 -200 l 1,6,-1
 -3 -111 l 1,7,-1
 78 -111 l 1,8,-1
 78 520 l 1,0,-1
133 613 m 256,9,10
 99 613 99 613 83.5 629 c 128,-1,11
 68 645 68 645 68 670 c 2,12,-1
 68 687 l 2,13,14
 68 712 68 712 83.5 728 c 128,-1,15
 99 744 99 744 133 744 c 256,16,17
 167 744 167 744 182 728 c 128,-1,18
 197 712 197 712 197 687 c 2,19,-1
 197 670 l 2,20,21
 197 645 197 645 182 629 c 128,-1,22
 167 613 167 613 133 613 c 256,9,10
EndSplineSet
Substitution2: "+BBUENAQ4BD0EOARHBD0EMARP +BD8EPgQ0BEEEQgQwBD0EPgQyBDoEMAAA lookup 22 subtable" uni0237
EndChar

StartChar: k
Encoding: 107 107 17
Width: 547
GlyphClass: 2
Flags: W
AnchorPoint: "+BBEENQQ3BEsEPARPBD0EPQQ+BDUA--0" 306 0 basechar 0
LayerCount: 2
Fore
SplineSet
78 740 m 1,0,-1
 187 740 l 1,1,-1
 187 286 l 1,2,-1
 192 286 l 1,3,-1
 264 379 l 1,4,-1
 389 520 l 1,5,-1
 516 520 l 1,6,-1
 334 319 l 1,7,-1
 538 0 l 1,8,-1
 408 0 l 1,9,-1
 259 248 l 1,10,-1
 187 170 l 1,11,-1
 187 0 l 1,12,-1
 78 0 l 1,13,-1
 78 740 l 1,0,-1
EndSplineSet
EndChar

StartChar: l
Encoding: 108 108 18
Width: 285
GlyphClass: 2
Flags: W
AnchorPoint: "+BBEENQQ3BEsEPARPBD0EPQQ+BDUA--3" 248 740 basechar 0
AnchorPoint: "+BBEENQQ3BEsEPARPBD0EPQQ+BDUA--2" 133 740 basechar 0
AnchorPoint: "+BBEENQQ3BEsEPARPBD0EPQQ+BDUA--0" 169 0 basechar 0
LayerCount: 2
Fore
SplineSet
189 0 m 2,0,1
 133 0 133 0 105.5 28.5 c 128,-1,2
 78 57 78 57 78 108 c 2,3,-1
 78 740 l 1,4,-1
 187 740 l 1,5,-1
 187 89 l 1,6,-1
 259 89 l 1,7,-1
 259 0 l 1,8,-1
 189 0 l 2,0,1
EndSplineSet
EndChar

StartChar: m
Encoding: 109 109 19
Width: 882
GlyphClass: 2
Flags: W
AnchorPoint: "+BBEENQQ3BEsEPARPBD0EPQQ+BDUA--2" 443 540 basechar 0
AnchorPoint: "+BBEENQQ3BEsEPARPBD0EPQQ+BDUA--0" 443 0 basechar 0
LayerCount: 2
Fore
SplineSet
78 0 m 1,0,-1
 78 520 l 1,1,-1
 187 520 l 1,2,-1
 187 434 l 1,3,-1
 192 434 l 1,4,5
 200 454 200 454 211.5 472 c 128,-1,6
 223 490 223 490 239.5 503.5 c 128,-1,7
 256 517 256 517 278.5 524.5 c 128,-1,8
 301 532 301 532 331 532 c 0,9,10
 384 532 384 532 425 506 c 128,-1,11
 466 480 466 480 485 426 c 1,12,-1
 488 426 l 1,13,14
 502 470 502 470 542 501 c 128,-1,15
 582 532 582 532 645 532 c 0,16,17
 723 532 723 532 766 479.5 c 128,-1,18
 809 427 809 427 809 330 c 2,19,-1
 809 0 l 1,20,-1
 700 0 l 1,21,-1
 700 317 l 2,22,23
 700 377 700 377 677 407.5 c 128,-1,24
 654 438 654 438 604 438 c 0,25,26
 583 438 583 438 564 432.5 c 128,-1,27
 545 427 545 427 530.5 416 c 128,-1,28
 516 405 516 405 507 388 c 128,-1,29
 498 371 498 371 498 349 c 2,30,-1
 498 0 l 1,31,-1
 389 0 l 1,32,-1
 389 317 l 2,33,34
 389 438 389 438 294 438 c 0,35,36
 274 438 274 438 254.5 432.5 c 128,-1,37
 235 427 235 427 220 416 c 128,-1,38
 205 405 205 405 196 388 c 128,-1,39
 187 371 187 371 187 349 c 2,40,-1
 187 0 l 1,41,-1
 78 0 l 1,0,-1
EndSplineSet
EndChar

StartChar: n
Encoding: 110 110 20
Width: 580
GlyphClass: 2
Flags: W
AnchorPoint: "+BBEENQQ3BEsEPARPBD0EPQQ+BDUA--2" 293 540 basechar 0
AnchorPoint: "+BBEENQQ3BEsEPARPBD0EPQQ+BDUA--0" 293 0 basechar 0
LayerCount: 2
Fore
SplineSet
78 0 m 1,0,-1
 78 520 l 1,1,-1
 187 520 l 1,2,-1
 187 434 l 1,3,-1
 192 434 l 1,4,5
 209 476 209 476 243.5 504 c 128,-1,6
 278 532 278 532 338 532 c 0,7,8
 418 532 418 532 462.5 479.5 c 128,-1,9
 507 427 507 427 507 330 c 2,10,-1
 507 0 l 1,11,-1
 398 0 l 1,12,-1
 398 316 l 2,13,14
 398 438 398 438 300 438 c 0,15,16
 279 438 279 438 258.5 432.5 c 128,-1,17
 238 427 238 427 222 416 c 128,-1,18
 206 405 206 405 196.5 388 c 128,-1,19
 187 371 187 371 187 348 c 2,20,-1
 187 0 l 1,21,-1
 78 0 l 1,0,-1
EndSplineSet
EndChar

StartChar: o
Encoding: 111 111 21
Width: 564
GlyphClass: 2
Flags: W
AnchorPoint: "+BBEENQQ3BEsEPARPBD0EPQQ+BDUA--2" 280 540 basechar 0
AnchorPoint: "+BBEENQQ3BEsEPARPBD0EPQQ+BDUA--0" 280 0 basechar 0
LayerCount: 2
Fore
SplineSet
282 -12 m 256,0,1
 228 -12 228 -12 183.5 7 c 128,-1,2
 139 26 139 26 108 61.5 c 128,-1,3
 77 97 77 97 60 147.5 c 128,-1,4
 43 198 43 198 43 260 c 256,5,6
 43 322 43 322 60 372.5 c 128,-1,7
 77 423 77 423 108 458.5 c 128,-1,8
 139 494 139 494 183.5 513 c 128,-1,9
 228 532 228 532 282 532 c 256,10,11
 336 532 336 532 380.5 513 c 128,-1,12
 425 494 425 494 456 458.5 c 128,-1,13
 487 423 487 423 504 372.5 c 128,-1,14
 521 322 521 322 521 260 c 256,15,16
 521 198 521 198 504 147.5 c 128,-1,17
 487 97 487 97 456 61.5 c 128,-1,18
 425 26 425 26 380.5 7 c 128,-1,19
 336 -12 336 -12 282 -12 c 256,0,1
282 78 m 256,20,21
 338 78 338 78 372 112.5 c 128,-1,22
 406 147 406 147 406 216 c 2,23,-1
 406 304 l 2,24,25
 406 373 406 373 372 407.5 c 128,-1,26
 338 442 338 442 282 442 c 256,27,28
 226 442 226 442 192 407.5 c 128,-1,29
 158 373 158 373 158 304 c 2,30,-1
 158 216 l 2,31,32
 158 147 158 147 192 112.5 c 128,-1,33
 226 78 226 78 282 78 c 256,20,21
EndSplineSet
Substitution2: "'ordn' +BB8EPgRABE8ENAQ6BD4EMgRLBDUA +BEcEOARBBDsEOARCBDUEOwRMBD0ESwQ1 lookup 4 subtable" ordmasculine
EndChar

StartChar: p
Encoding: 112 112 22
Width: 592
GlyphClass: 2
Flags: W
AnchorPoint: "+BBEENQQ3BEsEPARPBD0EPQQ+BDUA--2" 312 540 basechar 0
LayerCount: 2
Fore
SplineSet
78 520 m 1,0,-1
 187 520 l 1,1,-1
 187 434 l 1,2,-1
 192 434 l 1,3,4
 209 481 209 481 247.5 506.5 c 128,-1,5
 286 532 286 532 338 532 c 0,6,7
 437 532 437 532 491 460.5 c 128,-1,8
 545 389 545 389 545 260 c 256,9,10
 545 131 545 131 491 59.5 c 128,-1,11
 437 -12 437 -12 338 -12 c 0,12,13
 286 -12 286 -12 247.5 14 c 128,-1,14
 209 40 209 40 192 86 c 1,15,-1
 187 86 l 1,16,-1
 187 -200 l 1,17,-1
 78 -200 l 1,18,-1
 78 520 l 1,0,-1
305 82 m 0,19,20
 362 82 362 82 396 118.5 c 128,-1,21
 430 155 430 155 430 215 c 2,22,-1
 430 305 l 2,23,24
 430 365 430 365 396 401.5 c 128,-1,25
 362 438 362 438 305 438 c 0,26,27
 255 438 255 438 221 413.5 c 128,-1,28
 187 389 187 389 187 349 c 2,29,-1
 187 171 l 2,30,31
 187 131 187 131 221 106.5 c 128,-1,32
 255 82 255 82 305 82 c 0,19,20
EndSplineSet
EndChar

StartChar: q
Encoding: 113 113 23
Width: 592
GlyphClass: 2
Flags: W
AnchorPoint: "+BBEENQQ3BEsEPARPBD0EPQQ+BDUA--2" 281 540 basechar 0
LayerCount: 2
Fore
SplineSet
405 86 m 1,0,-1
 400 86 l 1,1,2
 383 40 383 40 344.5 14 c 128,-1,3
 306 -12 306 -12 254 -12 c 0,4,5
 155 -12 155 -12 101 59.5 c 128,-1,6
 47 131 47 131 47 260 c 256,7,8
 47 389 47 389 101 460.5 c 128,-1,9
 155 532 155 532 254 532 c 0,10,11
 306 532 306 532 344.5 506.5 c 128,-1,12
 383 481 383 481 400 434 c 1,13,-1
 405 434 l 1,14,-1
 405 520 l 1,15,-1
 514 520 l 1,16,-1
 514 -200 l 1,17,-1
 405 -200 l 1,18,-1
 405 86 l 1,0,-1
287 82 m 0,19,20
 337 82 337 82 371 106.5 c 128,-1,21
 405 131 405 131 405 171 c 2,22,-1
 405 349 l 2,23,24
 405 389 405 389 371 413.5 c 128,-1,25
 337 438 337 438 287 438 c 0,26,27
 230 438 230 438 196 401.5 c 128,-1,28
 162 365 162 365 162 305 c 2,29,-1
 162 215 l 2,30,31
 162 155 162 155 196 118.5 c 128,-1,32
 230 82 230 82 287 82 c 0,19,20
EndSplineSet
EndChar

StartChar: r
Encoding: 114 114 24
Width: 383
GlyphClass: 2
Flags: W
AnchorPoint: "+BBEENQQ3BEsEPARPBD0EPQQ+BDUA--2" 221 540 basechar 0
AnchorPoint: "+BBEENQQ3BEsEPARPBD0EPQQ+BDUA--0" 134 0 basechar 0
LayerCount: 2
Fore
SplineSet
78 0 m 1,0,-1
 78 520 l 1,1,-1
 187 520 l 1,2,-1
 187 420 l 1,3,-1
 192 420 l 1,4,5
 203 460 203 460 238 490 c 128,-1,6
 273 520 273 520 335 520 c 2,7,-1
 364 520 l 1,8,-1
 364 415 l 1,9,-1
 321 415 l 2,10,11
 256 415 256 415 221.5 394 c 128,-1,12
 187 373 187 373 187 332 c 2,13,-1
 187 0 l 1,14,-1
 78 0 l 1,0,-1
EndSplineSet
EndChar

StartChar: s
Encoding: 115 115 25
Width: 494
GlyphClass: 2
Flags: W
AnchorPoint: "+BBEENQQ3BEsEPARPBD0EPQQ+BDUA--2" 243 540 basechar 0
AnchorPoint: "+BBEENQQ3BEsEPARPBD0EPQQ+BDUA--0" 244 0 basechar 0
LayerCount: 2
Fore
SplineSet
243 -12 m 0,0,1
 169 -12 169 -12 119 14 c 128,-1,2
 69 40 69 40 32 86 c 1,3,-1
 102 150 l 1,4,5
 131 115 131 115 166.5 95.5 c 128,-1,6
 202 76 202 76 249 76 c 0,7,8
 297 76 297 76 320.5 94.5 c 128,-1,9
 344 113 344 113 344 146 c 0,10,11
 344 171 344 171 327.5 188.5 c 128,-1,12
 311 206 311 206 270 211 c 2,13,-1
 222 217 l 2,14,15
 142 227 142 227 96.5 263.5 c 128,-1,16
 51 300 51 300 51 372 c 0,17,18
 51 410 51 410 65 439.5 c 128,-1,19
 79 469 79 469 104.5 489.5 c 128,-1,20
 130 510 130 510 165.5 521 c 128,-1,21
 201 532 201 532 244 532 c 0,22,23
 314 532 314 532 358.5 510 c 128,-1,24
 403 488 403 488 438 449 c 1,25,-1
 371 385 l 1,26,27
 351 409 351 409 318.5 426.5 c 128,-1,28
 286 444 286 444 244 444 c 0,29,30
 199 444 199 444 177.5 426 c 128,-1,31
 156 408 156 408 156 379 c 0,32,33
 156 349 156 349 175 334 c 128,-1,34
 194 319 194 319 236 312 c 2,35,-1
 284 306 l 2,36,37
 370 293 370 293 409.5 255.5 c 128,-1,38
 449 218 449 218 449 155 c 0,39,40
 449 117 449 117 434.5 86.5 c 128,-1,41
 420 56 420 56 393 34 c 128,-1,42
 366 12 366 12 328 0 c 128,-1,43
 290 -12 290 -12 243 -12 c 0,0,1
EndSplineSet
EndChar

StartChar: t
Encoding: 116 116 26
Width: 365
GlyphClass: 2
Flags: W
AnchorPoint: "+BBEENQQ3BEsEPARPBD0EPQQ+BDUA--3" 282 768 basechar 0
AnchorPoint: "+BBEENQQ3BEsEPARPBD0EPQQ+BDUA--0" 220 0 basechar 0
LayerCount: 2
Fore
SplineSet
222 0 m 2,0,1
 165 0 165 0 136 29.5 c 128,-1,2
 107 59 107 59 107 113 c 2,3,-1
 107 431 l 1,4,-1
 26 431 l 1,5,-1
 26 520 l 1,6,-1
 70 520 l 2,7,8
 97 520 97 520 107.5 532 c 128,-1,9
 118 544 118 544 118 571 c 2,10,-1
 118 662 l 1,11,-1
 216 662 l 1,12,-1
 216 520 l 1,13,-1
 325 520 l 1,14,-1
 325 431 l 1,15,-1
 216 431 l 1,16,-1
 216 89 l 1,17,-1
 317 89 l 1,18,-1
 317 0 l 1,19,-1
 222 0 l 2,0,1
EndSplineSet
EndChar

StartChar: u
Encoding: 117 117 27
Width: 580
GlyphClass: 2
Flags: W
AnchorPoint: "+BBEENQQ3BEsEPARPBD0EPQQ+BDUA--2" 288 540 basechar 0
AnchorPoint: "+BBEENQQ3BEsEPARPBD0EPQQ+BDUA--1" 502 0 basechar 0
AnchorPoint: "+BBEENQQ3BEsEPARPBD0EPQQ+BDUA--0" 285 0 basechar 0
LayerCount: 2
Fore
SplineSet
393 86 m 1,0,-1
 389 86 l 1,1,2
 382 67 382 67 370.5 49 c 128,-1,3
 359 31 359 31 341.5 17.5 c 128,-1,4
 324 4 324 4 299.5 -4 c 128,-1,5
 275 -12 275 -12 243 -12 c 0,6,7
 162 -12 162 -12 117.5 40 c 128,-1,8
 73 92 73 92 73 189 c 2,9,-1
 73 520 l 1,10,-1
 182 520 l 1,11,-1
 182 203 l 2,12,13
 182 82 182 82 282 82 c 0,14,15
 303 82 303 82 323 87.5 c 128,-1,16
 343 93 343 93 358.5 104 c 128,-1,17
 374 115 374 115 383.5 132 c 128,-1,18
 393 149 393 149 393 172 c 2,19,-1
 393 520 l 1,20,-1
 502 520 l 1,21,-1
 502 0 l 1,22,-1
 393 0 l 1,23,-1
 393 86 l 1,0,-1
EndSplineSet
EndChar

StartChar: v
Encoding: 118 118 28
Width: 512
GlyphClass: 2
Flags: W
AnchorPoint: "+BBEENQQ3BEsEPARPBD0EPQQ+BDUA--2" 256 540 basechar 0
AnchorPoint: "+BBEENQQ3BEsEPARPBD0EPQQ+BDUA--0" 256 0 basechar 0
LayerCount: 2
Fore
SplineSet
191 0 m 1,0,-1
 14 520 l 1,1,-1
 122 520 l 1,2,-1
 201 283 l 1,3,-1
 254 101 l 1,4,-1
 260 101 l 1,5,-1
 313 283 l 1,6,-1
 394 520 l 1,7,-1
 498 520 l 1,8,-1
 319 0 l 1,9,-1
 191 0 l 1,0,-1
EndSplineSet
EndChar

StartChar: w
Encoding: 119 119 29
Width: 799
GlyphClass: 2
Flags: W
AnchorPoint: "+BBEENQQ3BEsEPARPBD0EPQQ+BDUA--2" 400 540 basechar 0
AnchorPoint: "+BBEENQQ3BEsEPARPBD0EPQQ+BDUA--0" 400 0 basechar 0
LayerCount: 2
Fore
SplineSet
26 520 m 1,0,-1
 132 520 l 1,1,-1
 185 302 l 1,2,-1
 232 105 l 1,3,-1
 235 105 l 1,4,-1
 289 302 l 1,5,-1
 352 520 l 1,6,-1
 450 520 l 1,7,-1
 514 302 l 1,8,-1
 569 105 l 1,9,-1
 572 105 l 1,10,-1
 618 302 l 1,11,-1
 672 520 l 1,12,-1
 773 520 l 1,13,-1
 633 0 l 1,14,-1
 510 0 l 1,15,-1
 442 237 l 1,16,-1
 400 383 l 1,17,-1
 398 383 l 1,18,-1
 357 237 l 1,19,-1
 288 0 l 1,20,-1
 168 0 l 1,21,-1
 26 520 l 1,0,-1
EndSplineSet
EndChar

StartChar: x
Encoding: 120 120 30
Width: 530
GlyphClass: 2
Flags: W
AnchorPoint: "+BBEENQQ3BEsEPARPBD0EPQQ+BDUA--2" 265 540 basechar 0
AnchorPoint: "+BBEENQQ3BEsEPARPBD0EPQQ+BDUA--0" 265 0 basechar 0
LayerCount: 2
Fore
SplineSet
20 0 m 1,0,-1
 203 263 l 1,1,-1
 25 520 l 1,2,-1
 151 520 l 1,3,-1
 268 339 l 1,4,-1
 271 339 l 1,5,-1
 391 520 l 1,6,-1
 507 520 l 1,7,-1
 329 264 l 1,8,-1
 510 0 l 1,9,-1
 384 0 l 1,10,-1
 264 189 l 1,11,-1
 261 189 l 1,12,-1
 136 0 l 1,13,-1
 20 0 l 1,0,-1
EndSplineSet
EndChar

StartChar: y
Encoding: 121 121 31
Width: 514
GlyphClass: 2
Flags: W
AnchorPoint: "+BBEENQQ3BEsEPARPBD0EPQQ+BDUA--2" 259 540 basechar 0
AnchorPoint: "+BBEENQQ3BEsEPARPBD0EPQQ+BDUA--0" 409 0 basechar 0
LayerCount: 2
Fore
SplineSet
397 520 m 1,0,-1
 502 520 l 1,1,-1
 283 -103 l 2,2,3
 274 -129 274 -129 262.5 -147.5 c 128,-1,4
 251 -166 251 -166 235.5 -177.5 c 128,-1,5
 220 -189 220 -189 198 -194.5 c 128,-1,6
 176 -200 176 -200 146 -200 c 2,7,-1
 83 -200 l 1,8,-1
 83 -111 l 1,9,-1
 171 -111 l 1,10,-1
 201 -23 l 1,11,-1
 12 520 l 1,12,-1
 121 520 l 1,13,-1
 225 214 l 1,14,-1
 255 101 l 1,15,-1
 260 101 l 1,16,-1
 293 214 l 1,17,-1
 397 520 l 1,0,-1
EndSplineSet
EndChar

StartChar: z
Encoding: 122 122 32
Width: 487
GlyphClass: 2
Flags: W
AnchorPoint: "+BBEENQQ3BEsEPARPBD0EPQQ+BDUA--2" 244 540 basechar 0
AnchorPoint: "+BBEENQQ3BEsEPARPBD0EPQQ+BDUA--0" 244 0 basechar 0
LayerCount: 2
Fore
SplineSet
36 0 m 1,0,-1
 36 88 l 1,1,-1
 315 431 l 1,2,-1
 45 431 l 1,3,-1
 45 520 l 1,4,-1
 444 520 l 1,5,-1
 444 436 l 1,6,-1
 161 89 l 1,7,-1
 451 89 l 1,8,-1
 451 0 l 1,9,-1
 36 0 l 1,0,-1
EndSplineSet
EndChar

StartChar: A
Encoding: 65 65 33
Width: 662
GlyphClass: 2
Flags: W
AnchorPoint: "+BBEENQQ3BEsEPARPBD0EPQQ+BDUA--2" 329 698 basechar 0
AnchorPoint: "+BBEENQQ3BEsEPARPBD0EPQQ+BDUA--1" 638 0 basechar 0
AnchorPoint: "+BBEENQQ3BEsEPARPBD0EPQQ+BDUA--0" 329 0 basechar 0
LayerCount: 2
Fore
SplineSet
522 0 m 1,0,-1
 459 189 l 1,1,-1
 198 189 l 1,2,-1
 137 0 l 1,3,-1
 22 0 l 1,4,-1
 260 698 l 1,5,-1
 402 698 l 1,6,-1
 640 0 l 1,7,-1
 522 0 l 1,0,-1
331 594 m 1,8,-1
 326 594 l 1,9,-1
 225 286 l 1,10,-1
 431 286 l 1,11,-1
 331 594 l 1,8,-1
EndSplineSet
EndChar

StartChar: B
Encoding: 66 66 34
Width: 659
GlyphClass: 2
Flags: W
AnchorPoint: "+BBEENQQ3BEsEPARPBD0EPQQ+BDUA--2" 327 698 basechar 0
AnchorPoint: "+BBEENQQ3BEsEPARPBD0EPQQ+BDUA--0" 327 0 basechar 0
LayerCount: 2
Fore
SplineSet
86 698 m 1,0,-1
 395 698 l 2,1,2
 482 698 482 698 531.5 649 c 128,-1,3
 581 600 581 600 581 518 c 0,4,5
 581 479 581 479 570 451.5 c 128,-1,6
 559 424 559 424 542 406.5 c 128,-1,7
 525 389 525 389 503 380.5 c 128,-1,8
 481 372 481 372 460 370 c 1,9,-1
 460 364 l 1,10,11
 481 363 481 363 506.5 354 c 128,-1,12
 532 345 532 345 554 325.5 c 128,-1,13
 576 306 576 306 591 275.5 c 128,-1,14
 606 245 606 245 606 201 c 0,15,16
 606 159 606 159 592.5 122 c 128,-1,17
 579 85 579 85 555 58 c 128,-1,18
 531 31 531 31 498 15.5 c 128,-1,19
 465 0 465 0 426 0 c 2,20,-1
 86 0 l 1,21,-1
 86 698 l 1,0,-1
199 97 m 1,22,-1
 393 97 l 2,23,24
 437 97 437 97 462 120 c 128,-1,25
 487 143 487 143 487 186 c 2,26,-1
 487 220 l 2,27,28
 487 263 487 263 462 286 c 128,-1,29
 437 309 437 309 393 309 c 2,30,-1
 199 309 l 1,31,-1
 199 97 l 1,22,-1
199 403 m 1,32,-1
 374 403 l 2,33,34
 416 403 416 403 439 424.5 c 128,-1,35
 462 446 462 446 462 486 c 2,36,-1
 462 518 l 2,37,38
 462 558 462 558 439 579.5 c 128,-1,39
 416 601 416 601 374 601 c 2,40,-1
 199 601 l 1,41,-1
 199 403 l 1,32,-1
EndSplineSet
EndChar

StartChar: C
Encoding: 67 67 35
Width: 634
GlyphClass: 2
Flags: W
AnchorPoint: "+BBEENQQ3BEsEPARPBD0EPQQ+BDUA--2" 345 698 basechar 0
AnchorPoint: "+BBEENQQ3BEsEPARPBD0EPQQ+BDUA--0" 337 0 basechar 0
LayerCount: 2
Fore
SplineSet
348 -12 m 0,0,1
 211 -12 211 -12 133 80.5 c 128,-1,2
 55 173 55 173 55 349 c 0,3,4
 55 437 55 437 75 504 c 128,-1,5
 95 571 95 571 133 617 c 128,-1,6
 171 663 171 663 225.5 686.5 c 128,-1,7
 280 710 280 710 348 710 c 0,8,9
 439 710 439 710 500.5 670 c 128,-1,10
 562 630 562 630 597 552 c 1,11,-1
 502 500 l 1,12,13
 484 550 484 550 446.5 579.5 c 128,-1,14
 409 609 409 609 348 609 c 0,15,16
 267 609 267 609 221 554 c 128,-1,17
 175 499 175 499 175 402 c 2,18,-1
 175 296 l 2,19,20
 175 199 175 199 221 144 c 128,-1,21
 267 89 267 89 348 89 c 0,22,23
 411 89 411 89 450.5 121.5 c 128,-1,24
 490 154 490 154 509 205 c 1,25,-1
 600 150 l 1,26,27
 565 74 565 74 502 31 c 128,-1,28
 439 -12 439 -12 348 -12 c 0,0,1
EndSplineSet
EndChar

StartChar: D
Encoding: 68 68 36
Width: 683
GlyphClass: 2
Flags: W
AnchorPoint: "+BBEENQQ3BEsEPARPBD0EPQQ+BDUA--2" 314 698 basechar 0
AnchorPoint: "+BBEENQQ3BEsEPARPBD0EPQQ+BDUA--0" 314 0 basechar 0
LayerCount: 2
Fore
SplineSet
86 698 m 1,0,-1
 333 698 l 2,1,2
 400 698 400 698 454.5 676 c 128,-1,3
 509 654 509 654 547.5 610.5 c 128,-1,4
 586 567 586 567 607 501.5 c 128,-1,5
 628 436 628 436 628 349 c 256,6,7
 628 262 628 262 607 196.5 c 128,-1,8
 586 131 586 131 547.5 87.5 c 128,-1,9
 509 44 509 44 454.5 22 c 128,-1,10
 400 0 400 0 333 0 c 2,11,-1
 86 0 l 1,12,-1
 86 698 l 1,0,-1
333 100 m 2,13,14
 411 100 411 100 459 149 c 128,-1,15
 507 198 507 198 507 293 c 2,16,-1
 507 405 l 2,17,18
 507 500 507 500 459 549 c 128,-1,19
 411 598 411 598 333 598 c 2,20,-1
 199 598 l 1,21,-1
 199 100 l 1,22,-1
 333 100 l 2,13,14
EndSplineSet
EndChar

StartChar: E
Encoding: 69 69 37
Width: 593
GlyphClass: 2
Flags: W
AnchorPoint: "+BBEENQQ3BEsEPARPBD0EPQQ+BDUA--2" 309 698 basechar 0
AnchorPoint: "+BBEENQQ3BEsEPARPBD0EPQQ+BDUA--1" 533 0 basechar 0
AnchorPoint: "+BBEENQQ3BEsEPARPBD0EPQQ+BDUA--0" 309 0 basechar 0
LayerCount: 2
Fore
SplineSet
86 0 m 1,0,-1
 86 698 l 1,1,-1
 533 698 l 1,2,-1
 533 598 l 1,3,-1
 199 598 l 1,4,-1
 199 404 l 1,5,-1
 502 404 l 1,6,-1
 502 304 l 1,7,-1
 199 304 l 1,8,-1
 199 100 l 1,9,-1
 533 100 l 1,10,-1
 533 0 l 1,11,-1
 86 0 l 1,0,-1
EndSplineSet
EndChar

StartChar: F
Encoding: 70 70 38
Width: 570
GlyphClass: 2
Flags: W
AnchorPoint: "+BBEENQQ3BEsEPARPBD0EPQQ+BDUA--2" 304 698 basechar 0
AnchorPoint: "+BBEENQQ3BEsEPARPBD0EPQQ+BDUA--0" 295 0 basechar 0
LayerCount: 2
Fore
SplineSet
86 0 m 1,0,-1
 86 698 l 1,1,-1
 522 698 l 1,2,-1
 522 598 l 1,3,-1
 199 598 l 1,4,-1
 199 404 l 1,5,-1
 486 404 l 1,6,-1
 486 304 l 1,7,-1
 199 304 l 1,8,-1
 199 0 l 1,9,-1
 86 0 l 1,0,-1
EndSplineSet
EndChar

StartChar: G
Encoding: 71 71 39
Width: 705
GlyphClass: 2
Flags: W
AnchorPoint: "+BBEENQQ3BEsEPARPBD0EPQQ+BDUA--2" 356 698 basechar 0
AnchorPoint: "+BBEENQQ3BEsEPARPBD0EPQQ+BDUA--0" 348 0 basechar 0
LayerCount: 2
Fore
SplineSet
535 106 m 1,0,-1
 531 106 l 1,1,2
 520 55 520 55 471.5 21.5 c 128,-1,3
 423 -12 423 -12 343 -12 c 0,4,5
 281 -12 281 -12 228 11.5 c 128,-1,6
 175 35 175 35 136.5 80.5 c 128,-1,7
 98 126 98 126 76.5 193.5 c 128,-1,8
 55 261 55 261 55 349 c 0,9,10
 55 436 55 436 77 503.5 c 128,-1,11
 99 571 99 571 139 617 c 128,-1,12
 179 663 179 663 235 686.5 c 128,-1,13
 291 710 291 710 360 710 c 0,14,15
 454 710 454 710 519 668.5 c 128,-1,16
 584 627 584 627 620 553 c 1,17,-1
 528 499 l 1,18,19
 508 548 508 548 466 578.5 c 128,-1,20
 424 609 424 609 360 609 c 0,21,22
 277 609 277 609 226.5 556 c 128,-1,23
 176 503 176 503 176 406 c 2,24,-1
 176 292 l 2,25,26
 176 195 176 195 226.5 142 c 128,-1,27
 277 89 277 89 360 89 c 0,28,29
 393 89 393 89 423 97.5 c 128,-1,30
 453 106 453 106 475.5 122.5 c 128,-1,31
 498 139 498 139 511.5 163.5 c 128,-1,32
 525 188 525 188 525 221 c 2,33,-1
 525 275 l 1,34,-1
 381 275 l 1,35,-1
 381 372 l 1,36,-1
 634 372 l 1,37,-1
 634 0 l 1,38,-1
 535 0 l 1,39,-1
 535 106 l 1,0,-1
EndSplineSet
EndChar

StartChar: H
Encoding: 72 72 40
Width: 714
GlyphClass: 2
Flags: W
AnchorPoint: "+BBEENQQ3BEsEPARPBD0EPQQ+BDUA--2" 357 698 basechar 0
AnchorPoint: "+BBEENQQ3BEsEPARPBD0EPQQ+BDUA--0" 357 0 basechar 0
LayerCount: 2
Fore
SplineSet
515 304 m 1,0,-1
 199 304 l 1,1,-1
 199 0 l 1,2,-1
 86 0 l 1,3,-1
 86 698 l 1,4,-1
 199 698 l 1,5,-1
 199 404 l 1,6,-1
 515 404 l 1,7,-1
 515 698 l 1,8,-1
 628 698 l 1,9,-1
 628 0 l 1,10,-1
 515 0 l 1,11,-1
 515 304 l 1,0,-1
EndSplineSet
EndChar

StartChar: I
Encoding: 73 73 41
Width: 416
GlyphClass: 2
Flags: W
AnchorPoint: "+BBEENQQ3BEsEPARPBD0EPQQ+BDUA--2" 207 698 basechar 0
AnchorPoint: "+BBEENQQ3BEsEPARPBD0EPQQ+BDUA--1" 358 0 basechar 0
AnchorPoint: "+BBEENQQ3BEsEPARPBD0EPQQ+BDUA--0" 207 0 basechar 0
LayerCount: 2
Fore
SplineSet
56 0 m 1,0,-1
 56 92 l 1,1,-1
 151 92 l 1,2,-1
 151 606 l 1,3,-1
 56 606 l 1,4,-1
 56 698 l 1,5,-1
 360 698 l 1,6,-1
 360 606 l 1,7,-1
 264 606 l 1,8,-1
 264 92 l 1,9,-1
 360 92 l 1,10,-1
 360 0 l 1,11,-1
 56 0 l 1,0,-1
EndSplineSet
EndChar

StartChar: J
Encoding: 74 74 42
Width: 531
GlyphClass: 2
Flags: W
AnchorPoint: "+BBEENQQ3BEsEPARPBD0EPQQ+BDUA--2" 280 698 basechar 0
AnchorPoint: "+BBEENQQ3BEsEPARPBD0EPQQ+BDUA--0" 238 0 basechar 0
LayerCount: 2
Fore
SplineSet
449 698 m 1,0,-1
 449 190 l 2,1,2
 449 144 449 144 434 107 c 128,-1,3
 419 70 419 70 391.5 43.5 c 128,-1,4
 364 17 364 17 324.5 2.5 c 128,-1,5
 285 -12 285 -12 237 -12 c 0,6,7
 146 -12 146 -12 93.5 36.5 c 128,-1,8
 41 85 41 85 27 163 c 1,9,-1
 131 186 l 1,10,11
 140 141 140 141 165.5 115 c 128,-1,12
 191 89 191 89 237 89 c 0,13,14
 282 89 282 89 309 117 c 128,-1,15
 336 145 336 145 336 202 c 2,16,-1
 336 604 l 1,17,-1
 108 604 l 1,18,-1
 108 698 l 1,19,-1
 449 698 l 1,0,-1
EndSplineSet
EndChar

StartChar: K
Encoding: 75 75 43
Width: 660
GlyphClass: 2
Flags: W
AnchorPoint: "+BBEENQQ3BEsEPARPBD0EPQQ+BDUA--2" 337 698 basechar 0
AnchorPoint: "+BBEENQQ3BEsEPARPBD0EPQQ+BDUA--0" 345 0 basechar 0
LayerCount: 2
Fore
SplineSet
295 326 m 1,0,-1
 199 216 l 1,1,-1
 199 0 l 1,2,-1
 86 0 l 1,3,-1
 86 698 l 1,4,-1
 199 698 l 1,5,-1
 199 344 l 1,6,-1
 203 344 l 1,7,-1
 303 471 l 1,8,-1
 491 698 l 1,9,-1
 623 698 l 1,10,-1
 374 404 l 1,11,-1
 643 0 l 1,12,-1
 507 0 l 1,13,-1
 295 326 l 1,0,-1
EndSplineSet
EndChar

StartChar: L
Encoding: 76 76 44
Width: 513
GlyphClass: 2
Flags: W
AnchorPoint: "+BBEENQQ3BEsEPARPBD0EPQQ+BDUA--3" 275 740 basechar 0
AnchorPoint: "+BBEENQQ3BEsEPARPBD0EPQQ+BDUA--2" 143 698 basechar 0
AnchorPoint: "+BBEENQQ3BEsEPARPBD0EPQQ+BDUA--0" 293 0 basechar 0
LayerCount: 2
Fore
SplineSet
86 0 m 1,0,-1
 86 698 l 1,1,-1
 199 698 l 1,2,-1
 199 100 l 1,3,-1
 483 100 l 1,4,-1
 483 0 l 1,5,-1
 86 0 l 1,0,-1
EndSplineSet
EndChar

StartChar: M
Encoding: 77 77 45
Width: 814
GlyphClass: 2
Flags: W
AnchorPoint: "+BBEENQQ3BEsEPARPBD0EPQQ+BDUA--2" 407 698 basechar 0
AnchorPoint: "+BBEENQQ3BEsEPARPBD0EPQQ+BDUA--0" 407 0 basechar 0
LayerCount: 2
Fore
SplineSet
620 534 m 1,0,-1
 615 534 l 1,1,-1
 560 421 l 1,2,-1
 407 142 l 1,3,-1
 254 421 l 1,4,-1
 199 534 l 1,5,-1
 194 534 l 1,6,-1
 194 0 l 1,7,-1
 86 0 l 1,8,-1
 86 698 l 1,9,-1
 220 698 l 1,10,-1
 407 343 l 1,11,-1
 413 343 l 1,12,-1
 600 698 l 1,13,-1
 728 698 l 1,14,-1
 728 0 l 1,15,-1
 620 0 l 1,16,-1
 620 534 l 1,0,-1
EndSplineSet
EndChar

StartChar: N
Encoding: 78 78 46
Width: 714
GlyphClass: 2
Flags: W
AnchorPoint: "+BBEENQQ3BEsEPARPBD0EPQQ+BDUA--2" 356 698 basechar 0
AnchorPoint: "+BBEENQQ3BEsEPARPBD0EPQQ+BDUA--0" 356 0 basechar 0
LayerCount: 2
Fore
SplineSet
274 386 m 1,0,-1
 197 534 l 1,1,-1
 194 534 l 1,2,-1
 194 0 l 1,3,-1
 86 0 l 1,4,-1
 86 698 l 1,5,-1
 212 698 l 1,6,-1
 440 312 l 1,7,-1
 517 164 l 1,8,-1
 520 164 l 1,9,-1
 520 698 l 1,10,-1
 628 698 l 1,11,-1
 628 0 l 1,12,-1
 502 0 l 1,13,-1
 274 386 l 1,0,-1
EndSplineSet
EndChar

StartChar: O
Encoding: 79 79 47
Width: 712
GlyphClass: 2
Flags: W
AnchorPoint: "+BBEENQQ3BEsEPARPBD0EPQQ+BDUA--2" 355 698 basechar 0
AnchorPoint: "+BBEENQQ3BEsEPARPBD0EPQQ+BDUA--0" 355 0 basechar 0
LayerCount: 2
Fore
SplineSet
356 -12 m 256,0,1
 288 -12 288 -12 232.5 11.5 c 128,-1,2
 177 35 177 35 137.5 80.5 c 128,-1,3
 98 126 98 126 76.5 193.5 c 128,-1,4
 55 261 55 261 55 349 c 256,5,6
 55 437 55 437 76.5 504.5 c 128,-1,7
 98 572 98 572 137.5 617.5 c 128,-1,8
 177 663 177 663 232.5 686.5 c 128,-1,9
 288 710 288 710 356 710 c 256,10,11
 424 710 424 710 479.5 686.5 c 128,-1,12
 535 663 535 663 574.5 617.5 c 128,-1,13
 614 572 614 572 635.5 504.5 c 128,-1,14
 657 437 657 437 657 349 c 256,15,16
 657 261 657 261 635.5 193.5 c 128,-1,17
 614 126 614 126 574.5 80.5 c 128,-1,18
 535 35 535 35 479.5 11.5 c 128,-1,19
 424 -12 424 -12 356 -12 c 256,0,1
356 89 m 0,20,21
 396 89 396 89 429.5 103 c 128,-1,22
 463 117 463 117 486.5 143.5 c 128,-1,23
 510 170 510 170 523 208 c 128,-1,24
 536 246 536 246 536 294 c 2,25,-1
 536 404 l 2,26,27
 536 452 536 452 523 490 c 128,-1,28
 510 528 510 528 486.5 554.5 c 128,-1,29
 463 581 463 581 429.5 595 c 128,-1,30
 396 609 396 609 356 609 c 0,31,32
 315 609 315 609 282 595 c 128,-1,33
 249 581 249 581 225.5 554.5 c 128,-1,34
 202 528 202 528 189 490 c 128,-1,35
 176 452 176 452 176 404 c 2,36,-1
 176 294 l 2,37,38
 176 246 176 246 189 208 c 128,-1,39
 202 170 202 170 225.5 143.5 c 128,-1,40
 249 117 249 117 282 103 c 128,-1,41
 315 89 315 89 356 89 c 0,20,21
EndSplineSet
EndChar

StartChar: P
Encoding: 80 80 48
Width: 627
GlyphClass: 2
Flags: W
AnchorPoint: "+BBEENQQ3BEsEPARPBD0EPQQ+BDUA--2" 305 698 basechar 0
AnchorPoint: "+BBEENQQ3BEsEPARPBD0EPQQ+BDUA--0" 305 0 basechar 0
LayerCount: 2
Fore
SplineSet
86 0 m 1,0,-1
 86 698 l 1,1,-1
 386 698 l 2,2,3
 483 698 483 698 536 641 c 128,-1,4
 589 584 589 584 589 488 c 256,5,6
 589 392 589 392 536 335 c 128,-1,7
 483 278 483 278 386 278 c 2,8,-1
 199 278 l 1,9,-1
 199 0 l 1,10,-1
 86 0 l 1,0,-1
199 377 m 1,11,-1
 379 377 l 2,12,13
 422 377 422 377 446 399.5 c 128,-1,14
 470 422 470 422 470 464 c 2,15,-1
 470 512 l 2,16,17
 470 554 470 554 446 576.5 c 128,-1,18
 422 599 422 599 379 599 c 2,19,-1
 199 599 l 1,20,-1
 199 377 l 1,11,-1
EndSplineSet
EndChar

StartChar: Q
Encoding: 81 81 49
Width: 712
GlyphClass: 2
Flags: W
AnchorPoint: "+BBEENQQ3BEsEPARPBD0EPQQ+BDUA--2" 355 698 basechar 0
LayerCount: 2
Fore
SplineSet
523 -173 m 1,0,-1
 424 -173 l 2,1,2
 365 -173 365 -173 337.5 -143 c 128,-1,3
 310 -113 310 -113 310 -62 c 2,4,-1
 310 -9 l 1,5,6
 251 -2 251 -2 204 25 c 128,-1,7
 157 52 157 52 124 97 c 128,-1,8
 91 142 91 142 73 205.5 c 128,-1,9
 55 269 55 269 55 349 c 0,10,11
 55 437 55 437 76.5 504.5 c 128,-1,12
 98 572 98 572 137.5 617.5 c 128,-1,13
 177 663 177 663 232.5 686.5 c 128,-1,14
 288 710 288 710 356 710 c 256,15,16
 424 710 424 710 479.5 686.5 c 128,-1,17
 535 663 535 663 574.5 617.5 c 128,-1,18
 614 572 614 572 635.5 504.5 c 128,-1,19
 657 437 657 437 657 349 c 0,20,21
 657 193 657 193 592 102.5 c 128,-1,22
 527 12 527 12 416 -7 c 1,23,-1
 416 -79 l 1,24,-1
 523 -79 l 1,25,-1
 523 -173 l 1,0,-1
356 89 m 0,26,27
 396 89 396 89 429.5 103 c 128,-1,28
 463 117 463 117 486.5 143.5 c 128,-1,29
 510 170 510 170 523 208 c 128,-1,30
 536 246 536 246 536 294 c 2,31,-1
 536 404 l 2,32,33
 536 452 536 452 523 490 c 128,-1,34
 510 528 510 528 486.5 554.5 c 128,-1,35
 463 581 463 581 429.5 595 c 128,-1,36
 396 609 396 609 356 609 c 0,37,38
 315 609 315 609 282 595 c 128,-1,39
 249 581 249 581 225.5 554.5 c 128,-1,40
 202 528 202 528 189 490 c 128,-1,41
 176 452 176 452 176 404 c 2,42,-1
 176 294 l 2,43,44
 176 246 176 246 189 208 c 128,-1,45
 202 170 202 170 225.5 143.5 c 128,-1,46
 249 117 249 117 282 103 c 128,-1,47
 315 89 315 89 356 89 c 0,26,27
EndSplineSet
EndChar

StartChar: R
Encoding: 82 82 50
Width: 655
GlyphClass: 2
Flags: W
AnchorPoint: "+BBEENQQ3BEsEPARPBD0EPQQ+BDUA--2" 314 698 basechar 0
AnchorPoint: "+BBEENQQ3BEsEPARPBD0EPQQ+BDUA--0" 331 0 basechar 0
LayerCount: 2
Fore
SplineSet
199 0 m 1,0,-1
 86 0 l 1,1,-1
 86 698 l 1,2,-1
 387 698 l 2,3,4
 481 698 481 698 535 641.5 c 128,-1,5
 589 585 589 585 589 488 c 0,6,7
 589 413 589 413 554.5 363.5 c 128,-1,8
 520 314 520 314 453 294 c 1,9,-1
 604 0 l 1,10,-1
 478 0 l 1,11,-1
 338 282 l 1,12,-1
 199 282 l 1,13,-1
 199 0 l 1,0,-1
379 377 m 2,14,15
 422 377 422 377 446 399.5 c 128,-1,16
 470 422 470 422 470 464 c 2,17,-1
 470 512 l 2,18,19
 470 554 470 554 446 576.5 c 128,-1,20
 422 599 422 599 379 599 c 2,21,-1
 199 599 l 1,22,-1
 199 377 l 1,23,-1
 379 377 l 2,14,15
EndSplineSet
EndChar

StartChar: S
Encoding: 83 83 51
Width: 598
GlyphClass: 2
Flags: W
AnchorPoint: "+BBEENQQ3BEsEPARPBD0EPQQ+BDUA--2" 297 698 basechar 0
AnchorPoint: "+BBEENQQ3BEsEPARPBD0EPQQ+BDUA--0" 297 0 basechar 0
LayerCount: 2
Fore
SplineSet
295 -12 m 0,0,1
 207 -12 207 -12 145.5 20 c 128,-1,2
 84 52 84 52 40 106 c 1,3,-1
 118 179 l 1,4,5
 155 134 155 134 199.5 111 c 128,-1,6
 244 88 244 88 301 88 c 0,7,8
 368 88 368 88 402 118 c 128,-1,9
 436 148 436 148 436 199 c 0,10,11
 436 240 436 240 412 264 c 128,-1,12
 388 288 388 288 327 300 c 2,13,-1
 265 311 l 2,14,15
 163 330 163 330 112 378 c 128,-1,16
 61 426 61 426 61 510 c 0,17,18
 61 556 61 556 78.5 593.5 c 128,-1,19
 96 631 96 631 127.5 656.5 c 128,-1,20
 159 682 159 682 204 696 c 128,-1,21
 249 710 249 710 305 710 c 0,22,23
 384 710 384 710 442 682.5 c 128,-1,24
 500 655 500 655 541 603 c 1,25,-1
 462 533 l 1,26,27
 435 568 435 568 396 589 c 128,-1,28
 357 610 357 610 299 610 c 0,29,30
 239 610 239 610 206 586 c 128,-1,31
 173 562 173 562 173 516 c 0,32,33
 173 472 173 472 200 450.5 c 128,-1,34
 227 429 227 429 284 418 c 2,35,-1
 346 405 l 2,36,37
 451 385 451 385 499.5 337 c 128,-1,38
 548 289 548 289 548 205 c 0,39,40
 548 156 548 156 531 116 c 128,-1,41
 514 76 514 76 481.5 47.5 c 128,-1,42
 449 19 449 19 402 3.5 c 128,-1,43
 355 -12 355 -12 295 -12 c 0,0,1
EndSplineSet
EndChar

StartChar: T
Encoding: 84 84 52
Width: 577
GlyphClass: 2
Flags: W
AnchorPoint: "+BBEENQQ3BEsEPARPBD0EPQQ+BDUA--2" 289 698 basechar 0
AnchorPoint: "+BBEENQQ3BEsEPARPBD0EPQQ+BDUA--0" 289 0 basechar 0
LayerCount: 2
Fore
SplineSet
345 598 m 1,0,-1
 345 0 l 1,1,-1
 232 0 l 1,2,-1
 232 598 l 1,3,-1
 24 598 l 1,4,-1
 24 698 l 1,5,-1
 553 698 l 1,6,-1
 553 598 l 1,7,-1
 345 598 l 1,0,-1
EndSplineSet
EndChar

StartChar: U
Encoding: 85 85 53
Width: 686
GlyphClass: 2
Flags: W
AnchorPoint: "+BBEENQQ3BEsEPARPBD0EPQQ+BDUA--2" 341 698 basechar 0
AnchorPoint: "+BBEENQQ3BEsEPARPBD0EPQQ+BDUA--1" 444 0 basechar 0
AnchorPoint: "+BBEENQQ3BEsEPARPBD0EPQQ+BDUA--0" 341 0 basechar 0
LayerCount: 2
Fore
SplineSet
193 698 m 1,0,-1
 193 268 l 2,1,2
 193 179 193 179 227 134 c 128,-1,3
 261 89 261 89 343 89 c 256,4,5
 425 89 425 89 459 134 c 128,-1,6
 493 179 493 179 493 268 c 2,7,-1
 493 698 l 1,8,-1
 604 698 l 1,9,-1
 604 286 l 2,10,11
 604 209 604 209 590 153 c 128,-1,12
 576 97 576 97 545 60.5 c 128,-1,13
 514 24 514 24 464.5 6 c 128,-1,14
 415 -12 415 -12 343 -12 c 256,15,16
 271 -12 271 -12 221.5 6 c 128,-1,17
 172 24 172 24 141 60.5 c 128,-1,18
 110 97 110 97 96 153 c 128,-1,19
 82 209 82 209 82 286 c 2,20,-1
 82 698 l 1,21,-1
 193 698 l 1,0,-1
EndSplineSet
EndChar

StartChar: V
Encoding: 86 86 54
Width: 628
GlyphClass: 2
Flags: W
AnchorPoint: "+BBEENQQ3BEsEPARPBD0EPQQ+BDUA--2" 313 698 basechar 0
AnchorPoint: "+BBEENQQ3BEsEPARPBD0EPQQ+BDUA--0" 313 0 basechar 0
LayerCount: 2
Fore
SplineSet
247 0 m 1,0,-1
 18 698 l 1,1,-1
 135 698 l 1,2,-1
 246 353 l 1,3,-1
 313 110 l 1,4,-1
 317 110 l 1,5,-1
 385 353 l 1,6,-1
 496 698 l 1,7,-1
 610 698 l 1,8,-1
 378 0 l 1,9,-1
 247 0 l 1,0,-1
EndSplineSet
EndChar

StartChar: W
Encoding: 87 87 55
Width: 926
GlyphClass: 2
Flags: W
AnchorPoint: "+BBEENQQ3BEsEPARPBD0EPQQ+BDUA--2" 464 698 basechar 0
AnchorPoint: "+BBEENQQ3BEsEPARPBD0EPQQ+BDUA--0" 464 0 basechar 0
LayerCount: 2
Fore
SplineSet
189 0 m 1,0,-1
 24 698 l 1,1,-1
 139 698 l 1,2,-1
 210 362 l 1,3,-1
 259 130 l 1,4,-1
 262 130 l 1,5,-1
 318 362 l 1,6,-1
 401 698 l 1,7,-1
 527 698 l 1,8,-1
 609 362 l 1,9,-1
 664 131 l 1,10,-1
 667 131 l 1,11,-1
 718 362 l 1,12,-1
 791 698 l 1,13,-1
 902 698 l 1,14,-1
 730 0 l 1,15,-1
 603 0 l 1,16,-1
 514 361 l 1,17,-1
 462 573 l 1,18,-1
 460 573 l 1,19,-1
 407 361 l 1,20,-1
 316 0 l 1,21,-1
 189 0 l 1,0,-1
EndSplineSet
EndChar

StartChar: X
Encoding: 88 88 56
Width: 639
GlyphClass: 2
Flags: W
AnchorPoint: "+BBEENQQ3BEsEPARPBD0EPQQ+BDUA--2" 320 698 basechar 0
AnchorPoint: "+BBEENQQ3BEsEPARPBD0EPQQ+BDUA--0" 320 0 basechar 0
LayerCount: 2
Fore
SplineSet
618 0 m 1,0,-1
 485 0 l 1,1,-1
 316 278 l 1,2,-1
 313 278 l 1,3,-1
 146 0 l 1,4,-1
 21 0 l 1,5,-1
 247 357 l 1,6,-1
 29 698 l 1,7,-1
 162 698 l 1,8,-1
 321 438 l 1,9,-1
 323 438 l 1,10,-1
 484 698 l 1,11,-1
 609 698 l 1,12,-1
 389 358 l 1,13,-1
 618 0 l 1,0,-1
EndSplineSet
EndChar

StartChar: Y
Encoding: 89 89 57
Width: 617
GlyphClass: 2
Flags: W
AnchorPoint: "+BBEENQQ3BEsEPARPBD0EPQQ+BDUA--2" 309 698 basechar 0
AnchorPoint: "+BBEENQQ3BEsEPARPBD0EPQQ+BDUA--0" 308 0 basechar 0
LayerCount: 2
Fore
SplineSet
251 0 m 1,0,-1
 251 275 l 1,1,-1
 11 698 l 1,2,-1
 140 698 l 1,3,-1
 310 387 l 1,4,-1
 313 387 l 1,5,-1
 482 698 l 1,6,-1
 606 698 l 1,7,-1
 364 277 l 1,8,-1
 364 0 l 1,9,-1
 251 0 l 1,0,-1
EndSplineSet
EndChar

StartChar: Z
Encoding: 90 90 58
Width: 591
GlyphClass: 2
Flags: W
AnchorPoint: "+BBEENQQ3BEsEPARPBD0EPQQ+BDUA--2" 300 698 basechar 0
AnchorPoint: "+BBEENQQ3BEsEPARPBD0EPQQ+BDUA--0" 300 0 basechar 0
LayerCount: 2
Fore
SplineSet
554 0 m 1,0,-1
 37 0 l 1,1,-1
 37 101 l 1,2,-1
 416 598 l 1,3,-1
 57 598 l 1,4,-1
 57 698 l 1,5,-1
 543 698 l 1,6,-1
 543 597 l 1,7,-1
 164 100 l 1,8,-1
 554 100 l 1,9,-1
 554 0 l 1,0,-1
EndSplineSet
EndChar

StartChar: zero
Encoding: 48 48 59
Width: 600
GlyphClass: 1
Flags: W
LayerCount: 2
Fore
SplineSet
300 -12 m 0,0,1
 235 -12 235 -12 187 12.5 c 128,-1,2
 139 37 139 37 108 83 c 128,-1,3
 77 129 77 129 62 196 c 128,-1,4
 47 263 47 263 47 349 c 0,5,6
 47 434 47 434 62 501.5 c 128,-1,7
 77 569 77 569 108 615 c 128,-1,8
 139 661 139 661 187 685.5 c 128,-1,9
 235 710 235 710 300 710 c 0,10,11
 430 710 430 710 491.5 615 c 128,-1,12
 553 520 553 520 553 349 c 256,13,14
 553 178 553 178 491.5 83 c 128,-1,15
 430 -12 430 -12 300 -12 c 0,0,1
300 84 m 256,16,17
 336 84 336 84 361.5 98.5 c 128,-1,18
 387 113 387 113 403 140 c 128,-1,19
 419 167 419 167 426 204.5 c 128,-1,20
 433 242 433 242 433 288 c 2,21,-1
 433 410 l 2,22,23
 433 456 433 456 426 493.5 c 128,-1,24
 419 531 419 531 403 558 c 128,-1,25
 387 585 387 585 361.5 599.5 c 128,-1,26
 336 614 336 614 300 614 c 256,27,28
 264 614 264 614 238.5 599.5 c 128,-1,29
 213 585 213 585 197 558 c 128,-1,30
 181 531 181 531 174 493.5 c 128,-1,31
 167 456 167 456 167 410 c 2,32,-1
 167 288 l 2,33,34
 167 242 167 242 174 204.5 c 128,-1,35
 181 167 181 167 197 140 c 128,-1,36
 213 113 213 113 238.5 98.5 c 128,-1,37
 264 84 264 84 300 84 c 256,16,17
EndSplineSet
Substitution2: "'salt' +BCEEQgQ4BDsEOARBBEIEOARHBDUEQQQ6BDgENQAA +BDAEOwRMBEIENQRABD0EMARCBDgEMgRL lookup 18 subtable" zero.alt01
Substitution2: "'ss04' Style Set 4 lookup 16 subtable" zero.alt01
Substitution2: "'ss03' Style Set 3 lookup 15 subtable" zero.alt02
Substitution2: "'zero' Slashed Zero lookup 12 subtable" zero.alt02
Substitution2: "'subs' +BB0EOAQ2BD0EOAQ5 +BDgEPQQ0BDUEOgRB lookup 11 subtable" uni2080
Substitution2: "'sinf' Scientific Inferiors lookup 10 subtable" uni2080
Substitution2: "'sups' +BBIENQRABEUEPQQ4BDkA +BDgEPQQ0BDUEOgRB lookup 9 subtable" uni2070
Substitution2: "'dnom' Denominators lookup 8 subtable" uni2080
Substitution2: "'numr' Numerators lookup 7 subtable" uni2070
Substitution2: "'frac' Diagonal Fractions lookup 5 subtable" uni2070
AlternateSubs2: "'aalt' +BBIEQQQ1 +BDAEOwRMBEIENQRABD0EMARCBDgEMgQ9BEsENQAA +BDIEMARABDgEMAQ9BEIESwAA lookup 1 subtable" zero.alt01 zero.alt02
EndChar

StartChar: zero.alt01
Encoding: 65540 -1 60
Width: 600
GlyphClass: 1
Flags: W
LayerCount: 2
Fore
SplineSet
300 -12 m 0,0,1
 235 -12 235 -12 187 12.5 c 128,-1,2
 139 37 139 37 108 83 c 128,-1,3
 77 129 77 129 62 196 c 128,-1,4
 47 263 47 263 47 349 c 0,5,6
 47 434 47 434 62 501.5 c 128,-1,7
 77 569 77 569 108 615 c 128,-1,8
 139 661 139 661 187 685.5 c 128,-1,9
 235 710 235 710 300 710 c 0,10,11
 430 710 430 710 491.5 615 c 128,-1,12
 553 520 553 520 553 349 c 256,13,14
 553 178 553 178 491.5 83 c 128,-1,15
 430 -12 430 -12 300 -12 c 0,0,1
300 84 m 256,16,17
 336 84 336 84 361.5 98.5 c 128,-1,18
 387 113 387 113 403 140 c 128,-1,19
 419 167 419 167 426 204.5 c 128,-1,20
 433 242 433 242 433 288 c 2,21,-1
 433 410 l 2,22,23
 433 456 433 456 426 493.5 c 128,-1,24
 419 531 419 531 403 558 c 128,-1,25
 387 585 387 585 361.5 599.5 c 128,-1,26
 336 614 336 614 300 614 c 256,27,28
 264 614 264 614 238.5 599.5 c 128,-1,29
 213 585 213 585 197 558 c 128,-1,30
 181 531 181 531 174 493.5 c 128,-1,31
 167 456 167 456 167 410 c 2,32,-1
 167 288 l 2,33,34
 167 242 167 242 174 204.5 c 128,-1,35
 181 167 181 167 197 140 c 128,-1,36
 213 113 213 113 238.5 98.5 c 128,-1,37
 264 84 264 84 300 84 c 256,16,17
301 289 m 0,38,39
 271 289 271 289 256.5 304.5 c 128,-1,40
 242 320 242 320 242 343 c 2,41,-1
 242 355 l 2,42,43
 242 379 242 379 256.5 394.5 c 128,-1,44
 271 410 271 410 301 410 c 0,45,46
 330 410 330 410 344 394.5 c 128,-1,47
 358 379 358 379 358 355 c 2,48,-1
 358 343 l 2,49,50
 358 320 358 320 344 304.5 c 128,-1,51
 330 289 330 289 301 289 c 0,38,39
EndSplineSet
EndChar

StartChar: zero.alt02
Encoding: 65541 -1 61
Width: 600
GlyphClass: 1
Flags: W
LayerCount: 2
Fore
SplineSet
300 -12 m 0,0,1
 235 -12 235 -12 187 12.5 c 128,-1,2
 139 37 139 37 108 83 c 128,-1,3
 77 129 77 129 62 196 c 128,-1,4
 47 263 47 263 47 349 c 0,5,6
 47 434 47 434 62 501.5 c 128,-1,7
 77 569 77 569 108 615 c 128,-1,8
 139 661 139 661 187 685.5 c 128,-1,9
 235 710 235 710 300 710 c 0,10,11
 430 710 430 710 491.5 615 c 128,-1,12
 553 520 553 520 553 349 c 256,13,14
 553 178 553 178 491.5 83 c 128,-1,15
 430 -12 430 -12 300 -12 c 0,0,1
300 84 m 0,16,17
 336 84 336 84 361.5 98.5 c 128,-1,18
 387 113 387 113 403 140 c 128,-1,19
 419 167 419 167 426 204.5 c 128,-1,20
 433 242 433 242 433 288 c 2,21,-1
 433 432 l 1,22,23
 433 432 433 432 432 440 c 1,24,-1
 185 166 l 1,25,26
 199 127 199 127 227 105.5 c 128,-1,27
 255 84 255 84 300 84 c 0,16,17
415 532 m 1,28,29
 400 570 400 570 372.5 592 c 128,-1,30
 345 614 345 614 300 614 c 0,31,32
 264 614 264 614 238.5 599.5 c 128,-1,33
 213 585 213 585 197 558 c 128,-1,34
 181 531 181 531 174 493.5 c 128,-1,35
 167 456 167 456 167 410 c 2,36,-1
 167 257 l 1,37,-1
 415 532 l 1,28,29
EndSplineSet
EndChar

StartChar: one
Encoding: 49 49 62
Width: 600
GlyphClass: 1
Flags: W
LayerCount: 2
Fore
SplineSet
88 0 m 1,0,-1
 88 94 l 1,1,-1
 284 94 l 1,2,-1
 284 616 l 1,3,-1
 276 616 l 1,4,-1
 114 443 l 1,5,-1
 45 505 l 1,6,-1
 223 698 l 1,7,-1
 395 698 l 1,8,-1
 395 94 l 1,9,-1
 565 94 l 1,10,-1
 565 0 l 1,11,-1
 88 0 l 1,0,-1
EndSplineSet
Substitution2: "'subs' +BB0EOAQ2BD0EOAQ5 +BDgEPQQ0BDUEOgRB lookup 11 subtable" uni2081
Substitution2: "'sinf' Scientific Inferiors lookup 10 subtable" uni2081
Substitution2: "'sups' +BBIENQRABEUEPQQ4BDkA +BDgEPQQ0BDUEOgRB lookup 9 subtable" onesuperior
Substitution2: "'dnom' Denominators lookup 8 subtable" uni2081
Substitution2: "'numr' Numerators lookup 7 subtable" onesuperior
Substitution2: "'frac' Diagonal Fractions lookup 5 subtable" onesuperior
EndChar

StartChar: two
Encoding: 50 50 63
Width: 600
GlyphClass: 1
Flags: W
LayerCount: 2
Fore
SplineSet
541 0 m 1,0,-1
 67 0 l 1,1,-1
 67 108 l 1,2,-1
 290 307 l 2,3,4
 343 355 343 355 371.5 398.5 c 128,-1,5
 400 442 400 442 400 490 c 2,6,-1
 400 503 l 2,7,8
 400 554 400 554 369.5 583 c 128,-1,9
 339 612 339 612 287 612 c 0,10,11
 258 612 258 612 236.5 603.5 c 128,-1,12
 215 595 215 595 199 580 c 128,-1,13
 183 565 183 565 172.5 545 c 128,-1,14
 162 525 162 525 156 502 c 1,15,-1
 57 540 l 1,16,17
 68 573 68 573 87 603.5 c 128,-1,18
 106 634 106 634 135 658 c 128,-1,19
 164 682 164 682 203.5 696 c 128,-1,20
 243 710 243 710 296 710 c 256,21,22
 349 710 349 710 391 694.5 c 128,-1,23
 433 679 433 679 461.5 651.5 c 128,-1,24
 490 624 490 624 505 586 c 128,-1,25
 520 548 520 548 520 503 c 0,26,27
 520 461 520 461 507 425 c 128,-1,28
 494 389 494 389 471 357 c 128,-1,29
 448 325 448 325 417.5 296 c 128,-1,30
 387 267 387 267 353 237 c 2,31,-1
 189 96 l 1,32,-1
 541 96 l 1,33,-1
 541 0 l 1,0,-1
EndSplineSet
Substitution2: "'subs' +BB0EOAQ2BD0EOAQ5 +BDgEPQQ0BDUEOgRB lookup 11 subtable" uni2082
Substitution2: "'sinf' Scientific Inferiors lookup 10 subtable" uni2082
Substitution2: "'sups' +BBIENQRABEUEPQQ4BDkA +BDgEPQQ0BDUEOgRB lookup 9 subtable" twosuperior
Substitution2: "'dnom' Denominators lookup 8 subtable" uni2082
Substitution2: "'numr' Numerators lookup 7 subtable" twosuperior
Substitution2: "'frac' Diagonal Fractions lookup 5 subtable" twosuperior
EndChar

StartChar: three
Encoding: 51 51 64
Width: 600
GlyphClass: 1
Flags: W
LayerCount: 2
Fore
SplineSet
262 411 m 2,0,1
 327 411 327 411 358 438.5 c 128,-1,2
 389 466 389 466 389 509 c 2,3,-1
 389 516 l 2,4,5
 389 564 389 564 359 589.5 c 128,-1,6
 329 615 329 615 278 615 c 0,7,8
 228 615 228 615 193 592.5 c 128,-1,9
 158 570 158 570 134 530 c 1,10,-1
 59 595 l 1,11,12
 75 618 75 618 95 639 c 128,-1,13
 115 660 115 660 142 675.5 c 128,-1,14
 169 691 169 691 203 700.5 c 128,-1,15
 237 710 237 710 281 710 c 0,16,17
 330 710 330 710 372 698 c 128,-1,18
 414 686 414 686 444 662.5 c 128,-1,19
 474 639 474 639 491 605.5 c 128,-1,20
 508 572 508 572 508 530 c 0,21,22
 508 497 508 497 497.5 470 c 128,-1,23
 487 443 487 443 468.5 422.5 c 128,-1,24
 450 402 450 402 425.5 389 c 128,-1,25
 401 376 401 376 374 370 c 1,26,-1
 374 365 l 1,27,28
 404 359 404 359 430.5 345.5 c 128,-1,29
 457 332 457 332 477 310.5 c 128,-1,30
 497 289 497 289 508.5 259.5 c 128,-1,31
 520 230 520 230 520 192 c 0,32,33
 520 146 520 146 502 108.5 c 128,-1,34
 484 71 484 71 451.5 44 c 128,-1,35
 419 17 419 17 373 2.5 c 128,-1,36
 327 -12 327 -12 271 -12 c 0,37,38
 222 -12 222 -12 185 -1.5 c 128,-1,39
 148 9 148 9 119.5 26.5 c 128,-1,40
 91 44 91 44 69.5 66.5 c 128,-1,41
 48 89 48 89 32 113 c 1,42,-1
 115 178 l 1,43,44
 128 157 128 157 142.5 139.5 c 128,-1,45
 157 122 157 122 175.5 109.5 c 128,-1,46
 194 97 194 97 217.5 90 c 128,-1,47
 241 83 241 83 271 83 c 0,48,49
 335 83 335 83 369 113.5 c 128,-1,50
 403 144 403 144 403 198 c 2,51,-1
 403 205 l 2,52,53
 403 259 403 259 367 287 c 128,-1,54
 331 315 331 315 265 315 c 2,55,-1
 191 315 l 1,56,-1
 191 411 l 1,57,-1
 262 411 l 2,0,1
EndSplineSet
Substitution2: "'subs' +BB0EOAQ2BD0EOAQ5 +BDgEPQQ0BDUEOgRB lookup 11 subtable" uni2083
Substitution2: "'sinf' Scientific Inferiors lookup 10 subtable" uni2083
Substitution2: "'sups' +BBIENQRABEUEPQQ4BDkA +BDgEPQQ0BDUEOgRB lookup 9 subtable" threesuperior
Substitution2: "'dnom' Denominators lookup 8 subtable" uni2083
Substitution2: "'numr' Numerators lookup 7 subtable" threesuperior
Substitution2: "'frac' Diagonal Fractions lookup 5 subtable" threesuperior
EndChar

StartChar: four
Encoding: 52 52 65
Width: 600
GlyphClass: 1
Flags: W
LayerCount: 2
Fore
SplineSet
359 0 m 1,0,-1
 359 136 l 1,1,-1
 35 136 l 1,2,-1
 35 233 l 1,3,-1
 318 698 l 1,4,-1
 466 698 l 1,5,-1
 466 225 l 1,6,-1
 561 225 l 1,7,-1
 561 136 l 1,8,-1
 466 136 l 1,9,-1
 466 0 l 1,10,-1
 359 0 l 1,0,-1
131 225 m 1,11,-1
 359 225 l 1,12,-1
 359 595 l 1,13,-1
 352 595 l 1,14,-1
 131 225 l 1,11,-1
EndSplineSet
Substitution2: "'subs' +BB0EOAQ2BD0EOAQ5 +BDgEPQQ0BDUEOgRB lookup 11 subtable" uni2084
Substitution2: "'sinf' Scientific Inferiors lookup 10 subtable" uni2084
Substitution2: "'sups' +BBIENQRABEUEPQQ4BDkA +BDgEPQQ0BDUEOgRB lookup 9 subtable" uni2074
Substitution2: "'dnom' Denominators lookup 8 subtable" uni2084
Substitution2: "'numr' Numerators lookup 7 subtable" uni2074
Substitution2: "'frac' Diagonal Fractions lookup 5 subtable" uni2074
EndChar

StartChar: five
Encoding: 53 53 66
Width: 600
GlyphClass: 1
Flags: W
LayerCount: 2
Fore
SplineSet
508 600 m 1,0,-1
 198 600 l 1,1,-1
 180 353 l 1,2,-1
 187 353 l 1,3,4
 199 374 199 374 212 390.5 c 128,-1,5
 225 407 225 407 242 419 c 128,-1,6
 259 431 259 431 281 437.5 c 128,-1,7
 303 444 303 444 333 444 c 0,8,9
 378 444 378 444 416.5 429 c 128,-1,10
 455 414 455 414 483.5 386 c 128,-1,11
 512 358 512 358 528 317.5 c 128,-1,12
 544 277 544 277 544 226 c 0,13,14
 544 174 544 174 527.5 130 c 128,-1,15
 511 86 511 86 479 54.5 c 128,-1,16
 447 23 447 23 400.5 5.5 c 128,-1,17
 354 -12 354 -12 295 -12 c 0,18,19
 248 -12 248 -12 212 -1.5 c 128,-1,20
 176 9 176 9 148.5 26.5 c 128,-1,21
 121 44 121 44 100.5 66.5 c 128,-1,22
 80 89 80 89 64 113 c 1,23,-1
 146 178 l 1,24,25
 159 157 159 157 173 140 c 128,-1,26
 187 123 187 123 205 110 c 128,-1,27
 223 97 223 97 245.5 90 c 128,-1,28
 268 83 268 83 297 83 c 0,29,30
 359 83 359 83 392.5 117 c 128,-1,31
 426 151 426 151 426 211 c 2,32,-1
 426 223 l 2,33,34
 426 283 426 283 392.5 317 c 128,-1,35
 359 351 359 351 297 351 c 0,36,37
 252 351 252 351 225 334 c 128,-1,38
 198 317 198 317 179 296 c 1,39,-1
 86 309 l 1,40,-1
 112 698 l 1,41,-1
 508 698 l 1,42,-1
 508 600 l 1,0,-1
EndSplineSet
Substitution2: "'subs' +BB0EOAQ2BD0EOAQ5 +BDgEPQQ0BDUEOgRB lookup 11 subtable" uni2085
Substitution2: "'sinf' Scientific Inferiors lookup 10 subtable" uni2085
Substitution2: "'sups' +BBIENQRABEUEPQQ4BDkA +BDgEPQQ0BDUEOgRB lookup 9 subtable" uni2075
Substitution2: "'dnom' Denominators lookup 8 subtable" uni2085
Substitution2: "'numr' Numerators lookup 7 subtable" uni2075
Substitution2: "'frac' Diagonal Fractions lookup 5 subtable" uni2075
EndChar

StartChar: six
Encoding: 54 54 67
Width: 600
GlyphClass: 1
Flags: W
LayerCount: 2
Fore
SplineSet
302 -12 m 0,0,1
 244 -12 244 -12 198.5 7 c 128,-1,2
 153 26 153 26 121.5 61.5 c 128,-1,3
 90 97 90 97 73 147 c 128,-1,4
 56 197 56 197 56 260 c 0,5,6
 56 336 56 336 79 403 c 128,-1,7
 102 470 102 470 138 526 c 128,-1,8
 174 582 174 582 218.5 625.5 c 128,-1,9
 263 669 263 669 306 698 c 1,10,-1
 456 698 l 1,11,12
 397 655 397 655 350 615 c 128,-1,13
 303 575 303 575 268 533 c 128,-1,14
 233 491 233 491 209.5 444 c 128,-1,15
 186 397 186 397 173 341 c 1,16,-1
 180 339 l 1,17,18
 191 360 191 360 205.5 378.5 c 128,-1,19
 220 397 220 397 239.5 411 c 128,-1,20
 259 425 259 425 284 433 c 128,-1,21
 309 441 309 441 342 441 c 0,22,23
 386 441 386 441 423.5 426 c 128,-1,24
 461 411 461 411 488.5 382.5 c 128,-1,25
 516 354 516 354 531.5 314 c 128,-1,26
 547 274 547 274 547 225 c 0,27,28
 547 172 547 172 529.5 128.5 c 128,-1,29
 512 85 512 85 480 54 c 128,-1,30
 448 23 448 23 402.5 5.5 c 128,-1,31
 357 -12 357 -12 302 -12 c 0,0,1
302 80 m 256,32,33
 363 80 363 80 397 112.5 c 128,-1,34
 431 145 431 145 431 208 c 2,35,-1
 431 222 l 2,36,37
 431 285 431 285 397 317.5 c 128,-1,38
 363 350 363 350 302 350 c 256,39,40
 241 350 241 350 207 317.5 c 128,-1,41
 173 285 173 285 173 222 c 2,42,-1
 173 208 l 2,43,44
 173 145 173 145 207 112.5 c 128,-1,45
 241 80 241 80 302 80 c 256,32,33
EndSplineSet
Substitution2: "'subs' +BB0EOAQ2BD0EOAQ5 +BDgEPQQ0BDUEOgRB lookup 11 subtable" uni2086
Substitution2: "'sinf' Scientific Inferiors lookup 10 subtable" uni2086
Substitution2: "'sups' +BBIENQRABEUEPQQ4BDkA +BDgEPQQ0BDUEOgRB lookup 9 subtable" uni2076
Substitution2: "'dnom' Denominators lookup 8 subtable" uni2086
Substitution2: "'numr' Numerators lookup 7 subtable" uni2076
Substitution2: "'frac' Diagonal Fractions lookup 5 subtable" uni2076
EndChar

StartChar: seven
Encoding: 55 55 68
Width: 600
GlyphClass: 1
Flags: W
LayerCount: 2
Fore
SplineSet
171 0 m 1,0,-1
 424 605 l 1,1,-1
 160 605 l 1,2,-1
 160 476 l 1,3,-1
 63 476 l 1,4,-1
 63 698 l 1,5,-1
 536 698 l 1,6,-1
 536 600 l 1,7,-1
 290 0 l 1,8,-1
 171 0 l 1,0,-1
EndSplineSet
Substitution2: "'subs' +BB0EOAQ2BD0EOAQ5 +BDgEPQQ0BDUEOgRB lookup 11 subtable" uni2087
Substitution2: "'sinf' Scientific Inferiors lookup 10 subtable" uni2087
Substitution2: "'sups' +BBIENQRABEUEPQQ4BDkA +BDgEPQQ0BDUEOgRB lookup 9 subtable" uni2077
Substitution2: "'dnom' Denominators lookup 8 subtable" uni2087
Substitution2: "'numr' Numerators lookup 7 subtable" uni2077
Substitution2: "'frac' Diagonal Fractions lookup 5 subtable" uni2077
EndChar

StartChar: eight
Encoding: 56 56 69
Width: 600
GlyphClass: 1
Flags: W
LayerCount: 2
Fore
SplineSet
300 -12 m 256,0,1
 239 -12 239 -12 192.5 3.5 c 128,-1,2
 146 19 146 19 114.5 46 c 128,-1,3
 83 73 83 73 66.5 110 c 128,-1,4
 50 147 50 147 50 190 c 0,5,6
 50 260 50 260 88.5 302.5 c 128,-1,7
 127 345 127 345 190 362 c 1,8,-1
 190 370 l 1,9,10
 136 389 136 389 103.5 430 c 128,-1,11
 71 471 71 471 71 531 c 0,12,13
 71 571 71 571 86.5 604 c 128,-1,14
 102 637 102 637 131 660.5 c 128,-1,15
 160 684 160 684 203 697 c 128,-1,16
 246 710 246 710 300 710 c 256,17,18
 354 710 354 710 397 697 c 128,-1,19
 440 684 440 684 469 660.5 c 128,-1,20
 498 637 498 637 513.5 604 c 128,-1,21
 529 571 529 571 529 531 c 0,22,23
 529 471 529 471 496.5 430 c 128,-1,24
 464 389 464 389 410 370 c 1,25,-1
 410 362 l 1,26,27
 473 345 473 345 511.5 302.5 c 128,-1,28
 550 260 550 260 550 190 c 0,29,30
 550 147 550 147 533.5 110 c 128,-1,31
 517 73 517 73 485.5 46 c 128,-1,32
 454 19 454 19 407.5 3.5 c 128,-1,33
 361 -12 361 -12 300 -12 c 256,0,1
300 79 m 256,34,35
 363 79 363 79 397.5 108 c 128,-1,36
 432 137 432 137 432 189 c 2,37,-1
 432 209 l 2,38,39
 432 261 432 261 397.5 290 c 128,-1,40
 363 319 363 319 300 319 c 256,41,42
 237 319 237 319 202.5 290 c 128,-1,43
 168 261 168 261 168 209 c 2,44,-1
 168 189 l 2,45,46
 168 137 168 137 202.5 108 c 128,-1,47
 237 79 237 79 300 79 c 256,34,35
300 406 m 256,48,49
 358 406 358 406 388.5 431 c 128,-1,50
 419 456 419 456 419 504 c 2,51,-1
 419 521 l 2,52,53
 419 569 419 569 388.5 594 c 128,-1,54
 358 619 358 619 300 619 c 256,55,56
 242 619 242 619 211.5 594 c 128,-1,57
 181 569 181 569 181 521 c 2,58,-1
 181 504 l 2,59,60
 181 456 181 456 211.5 431 c 128,-1,61
 242 406 242 406 300 406 c 256,48,49
EndSplineSet
Substitution2: "'subs' +BB0EOAQ2BD0EOAQ5 +BDgEPQQ0BDUEOgRB lookup 11 subtable" uni2088
Substitution2: "'sinf' Scientific Inferiors lookup 10 subtable" uni2088
Substitution2: "'sups' +BBIENQRABEUEPQQ4BDkA +BDgEPQQ0BDUEOgRB lookup 9 subtable" uni2078
Substitution2: "'dnom' Denominators lookup 8 subtable" uni2088
Substitution2: "'numr' Numerators lookup 7 subtable" uni2078
Substitution2: "'frac' Diagonal Fractions lookup 5 subtable" uni2078
EndChar

StartChar: nine
Encoding: 57 57 70
Width: 600
GlyphClass: 1
Flags: W
LayerCount: 2
Fore
SplineSet
544 438 m 0,0,1
 544 362 544 362 521 295 c 128,-1,2
 498 228 498 228 462 172 c 128,-1,3
 426 116 426 116 381.5 72 c 128,-1,4
 337 28 337 28 294 0 c 1,5,-1
 144 0 l 1,6,7
 203 43 203 43 250 83 c 128,-1,8
 297 123 297 123 332 165 c 128,-1,9
 367 207 367 207 390.5 254 c 128,-1,10
 414 301 414 301 427 357 c 1,11,-1
 420 359 l 1,12,13
 409 338 409 338 394.5 319.5 c 128,-1,14
 380 301 380 301 360.5 287 c 128,-1,15
 341 273 341 273 316 265 c 128,-1,16
 291 257 291 257 258 257 c 0,17,18
 214 257 214 257 176.5 272 c 128,-1,19
 139 287 139 287 111.5 315.5 c 128,-1,20
 84 344 84 344 68.5 383.5 c 128,-1,21
 53 423 53 423 53 473 c 0,22,23
 53 525 53 525 70.5 569 c 128,-1,24
 88 613 88 613 120 644 c 128,-1,25
 152 675 152 675 197 692.5 c 128,-1,26
 242 710 242 710 298 710 c 0,27,28
 356 710 356 710 401.5 691 c 128,-1,29
 447 672 447 672 478.5 636.5 c 128,-1,30
 510 601 510 601 527 551 c 128,-1,31
 544 501 544 501 544 438 c 0,0,1
298 348 m 256,32,33
 359 348 359 348 393 380.5 c 128,-1,34
 427 413 427 413 427 476 c 2,35,-1
 427 490 l 2,36,37
 427 553 427 553 393 585.5 c 128,-1,38
 359 618 359 618 298 618 c 256,39,40
 237 618 237 618 203 585.5 c 128,-1,41
 169 553 169 553 169 490 c 2,42,-1
 169 476 l 2,43,44
 169 413 169 413 203 380.5 c 128,-1,45
 237 348 237 348 298 348 c 256,32,33
EndSplineSet
Substitution2: "'subs' +BB0EOAQ2BD0EOAQ5 +BDgEPQQ0BDUEOgRB lookup 11 subtable" uni2089
Substitution2: "'sinf' Scientific Inferiors lookup 10 subtable" uni2089
Substitution2: "'sups' +BBIENQRABEUEPQQ4BDkA +BDgEPQQ0BDUEOgRB lookup 9 subtable" uni2079
Substitution2: "'dnom' Denominators lookup 8 subtable" uni2089
Substitution2: "'numr' Numerators lookup 7 subtable" uni2079
Substitution2: "'frac' Diagonal Fractions lookup 5 subtable" uni2079
EndChar

StartChar: ampersand
Encoding: 38 38 71
Width: 707
GlyphClass: 1
Flags: W
LayerCount: 2
Fore
SplineSet
489 71 m 1,0,1
 476 58 476 58 457.5 43.5 c 128,-1,2
 439 29 439 29 414.5 16.5 c 128,-1,3
 390 4 390 4 358.5 -4 c 128,-1,4
 327 -12 327 -12 287 -12 c 0,5,6
 233 -12 233 -12 191 3 c 128,-1,7
 149 18 149 18 120.5 44 c 128,-1,8
 92 70 92 70 77.5 105.5 c 128,-1,9
 63 141 63 141 63 182 c 0,10,11
 63 219 63 219 74.5 248.5 c 128,-1,12
 86 278 86 278 105.5 301.5 c 128,-1,13
 125 325 125 325 150.5 343.5 c 128,-1,14
 176 362 176 362 205 378 c 1,15,16
 172 413 172 413 149 454 c 128,-1,17
 126 495 126 495 126 542 c 0,18,19
 126 577 126 577 139.5 608 c 128,-1,20
 153 639 153 639 178 661.5 c 128,-1,21
 203 684 203 684 238.5 697 c 128,-1,22
 274 710 274 710 317 710 c 0,23,24
 357 710 357 710 391 699 c 128,-1,25
 425 688 425 688 450 668 c 128,-1,26
 475 648 475 648 488.5 619.5 c 128,-1,27
 502 591 502 591 502 556 c 0,28,29
 502 522 502 522 490 494.5 c 128,-1,30
 478 467 478 467 457 444.5 c 128,-1,31
 436 422 436 422 408.5 402.5 c 128,-1,32
 381 383 381 383 350 365 c 1,33,-1
 486 218 l 1,34,35
 500 254 500 254 508 294 c 128,-1,36
 516 334 516 334 518 375 c 1,37,-1
 667 375 l 1,38,-1
 667 283 l 1,39,-1
 599 283 l 1,40,41
 584 207 584 207 553 148 c 1,42,-1
 690 0 l 1,43,-1
 554 0 l 1,44,-1
 489 71 l 1,0,1
317 623 m 256,45,46
 281 623 281 623 256 601.5 c 128,-1,47
 231 580 231 580 231 545 c 2,48,-1
 231 537 l 2,49,50
 231 511 231 511 247.5 485 c 128,-1,51
 264 459 264 459 295 425 c 1,52,53
 337 448 337 448 367 476.5 c 128,-1,54
 397 505 397 505 397 542 c 2,55,-1
 397 550 l 2,56,57
 397 585 397 585 375 604 c 128,-1,58
 353 623 353 623 317 623 c 256,45,46
300 81 m 0,59,60
 342 81 342 81 374 95 c 128,-1,61
 406 109 406 109 430 134 c 1,62,-1
 260 317 l 1,63,64
 222 296 222 296 198.5 270 c 128,-1,65
 175 244 175 244 175 199 c 2,66,-1
 175 186 l 2,67,68
 175 138 175 138 208 109.5 c 128,-1,69
 241 81 241 81 300 81 c 0,59,60
EndSplineSet
EndChar

StartChar: at
Encoding: 64 64 72
Width: 896
GlyphClass: 1
Flags: W
LayerCount: 2
Fore
SplineSet
676 -121 m 1,0,-1
 453 -121 l 2,1,2
 363 -121 363 -121 291 -91.5 c 128,-1,3
 219 -62 219 -62 168.5 -8 c 128,-1,4
 118 46 118 46 90.5 121.5 c 128,-1,5
 63 197 63 197 63 289 c 256,6,7
 63 381 63 381 91 458 c 128,-1,8
 119 535 119 535 170.5 590.5 c 128,-1,9
 222 646 222 646 295.5 677 c 128,-1,10
 369 708 369 708 459 708 c 0,11,12
 536 708 536 708 604.5 684.5 c 128,-1,13
 673 661 673 661 724 613.5 c 128,-1,14
 775 566 775 566 805 495 c 128,-1,15
 835 424 835 424 835 328 c 0,16,17
 835 273 835 273 824 226.5 c 128,-1,18
 813 180 813 180 790.5 146 c 128,-1,19
 768 112 768 112 734 93 c 128,-1,20
 700 74 700 74 655 74 c 0,21,22
 604 74 604 74 576 98.5 c 128,-1,23
 548 123 548 123 544 163 c 1,24,-1
 539 163 l 1,25,26
 524 122 524 122 494.5 98 c 128,-1,27
 465 74 465 74 419 74 c 0,28,29
 385 74 385 74 355 87.5 c 128,-1,30
 325 101 325 101 302.5 127.5 c 128,-1,31
 280 154 280 154 267 194.5 c 128,-1,32
 254 235 254 235 254 289 c 256,33,34
 254 343 254 343 267 383.5 c 128,-1,35
 280 424 280 424 302.5 450.5 c 128,-1,36
 325 477 325 477 355 490.5 c 128,-1,37
 385 504 385 504 419 504 c 0,38,39
 465 504 465 504 491 481.5 c 128,-1,40
 517 459 517 459 528 427 c 1,41,-1
 533 427 l 1,42,-1
 533 495 l 1,43,-1
 620 495 l 1,44,-1
 620 205 l 2,45,46
 620 172 620 172 632.5 159 c 128,-1,47
 645 146 645 146 670 146 c 0,48,49
 712 146 712 146 734.5 189.5 c 128,-1,50
 757 233 757 233 757 314 c 2,51,-1
 757 353 l 2,52,53
 757 418 757 418 734.5 470.5 c 128,-1,54
 712 523 712 523 672 559.5 c 128,-1,55
 632 596 632 596 577 616 c 128,-1,56
 522 636 522 636 458 636 c 0,57,58
 387 636 387 636 328.5 611.5 c 128,-1,59
 270 587 270 587 228.5 544.5 c 128,-1,60
 187 502 187 502 164 443.5 c 128,-1,61
 141 385 141 385 141 316 c 2,62,-1
 141 266 l 2,63,64
 141 196 141 196 163.5 138.5 c 128,-1,65
 186 81 186 81 227 39.5 c 128,-1,66
 268 -2 268 -2 325.5 -25 c 128,-1,67
 383 -48 383 -48 454 -48 c 2,68,-1
 676 -48 l 1,69,-1
 676 -121 l 1,0,-1
445 151 m 0,70,71
 487 151 487 151 510 174 c 128,-1,72
 533 197 533 197 533 233 c 2,73,-1
 533 353 l 2,74,75
 533 385 533 385 510 406.5 c 128,-1,76
 487 428 487 428 445 428 c 0,77,78
 399 428 399 428 375 400.5 c 128,-1,79
 351 373 351 373 351 328 c 2,80,-1
 351 251 l 2,81,82
 351 206 351 206 375 178.5 c 128,-1,83
 399 151 399 151 445 151 c 0,70,71
EndSplineSet
EndChar

StartChar: hyphen
Encoding: 45 45 73
Width: 401
GlyphClass: 1
Flags: W
LayerCount: 2
Fore
SplineSet
62 249 m 1,0,-1
 62 360 l 1,1,-1
 339 360 l 1,2,-1
 339 249 l 1,3,-1
 62 249 l 1,0,-1
EndSplineSet
EndChar

StartChar: endash
Encoding: 8211 8211 75
Width: 588
GlyphClass: 1
Flags: W
LayerCount: 2
Fore
SplineSet
36 257 m 1,0,-1
 36 351 l 1,1,-1
 552 351 l 1,2,-1
 552 257 l 1,3,-1
 36 257 l 1,0,-1
EndSplineSet
EndChar

StartChar: emdash
Encoding: 8212 8212 76
Width: 780
GlyphClass: 1
Flags: W
LayerCount: 2
Fore
SplineSet
36 257 m 1,0,-1
 36 351 l 1,1,-1
 744 351 l 1,2,-1
 744 257 l 1,3,-1
 36 257 l 1,0,-1
EndSplineSet
EndChar

StartChar: underscore
Encoding: 95 95 77
Width: 561
GlyphClass: 1
Flags: W
LayerCount: 2
Fore
SplineSet
30 -176 m 1,0,-1
 30 -82 l 1,1,-1
 531 -82 l 1,2,-1
 531 -176 l 1,3,-1
 30 -176 l 1,0,-1
EndSplineSet
EndChar

StartChar: period
Encoding: 46 46 78
Width: 290
GlyphClass: 1
Flags: W
LayerCount: 2
Fore
SplineSet
145 -12 m 256,0,1
 108 -12 108 -12 90 7.5 c 128,-1,2
 72 27 72 27 72 56 c 2,3,-1
 72 71 l 2,4,5
 72 100 72 100 90 119.5 c 128,-1,6
 108 139 108 139 145 139 c 256,7,8
 182 139 182 139 200 119.5 c 128,-1,9
 218 100 218 100 218 71 c 2,10,-1
 218 56 l 2,11,12
 218 27 218 27 200 7.5 c 128,-1,13
 182 -12 182 -12 145 -12 c 256,0,1
EndSplineSet
EndChar

StartChar: comma
Encoding: 44 44 81
Width: 290
GlyphClass: 1
Flags: W
LayerCount: 2
Fore
SplineSet
145 139 m 256,0,1
 182 139 182 139 200 120 c 128,-1,2
 218 101 218 101 218 71 c 2,3,-1
 218 55 l 2,4,5
 218 6 218 6 191.5 -47.5 c 128,-1,6
 165 -101 165 -101 120 -138 c 1,7,-1
 39 -138 l 1,8,9
 71 -106 71 -106 92 -76 c 128,-1,10
 113 -46 113 -46 124 -9 c 1,11,12
 98 -4 98 -4 85 13.5 c 128,-1,13
 72 31 72 31 72 55 c 2,14,-1
 72 71 l 2,15,16
 72 101 72 101 90 120 c 128,-1,17
 108 139 108 139 145 139 c 256,0,1
EndSplineSet
EndChar

StartChar: quotesingle
Encoding: 39 39 84
Width: 253
GlyphClass: 1
Flags: W
LayerCount: 2
Fore
SplineSet
78 440 m 1,0,-1
 78 740 l 1,1,-1
 175 740 l 1,2,-1
 175 440 l 1,3,-1
 78 440 l 1,0,-1
EndSplineSet
EndChar

StartChar: quoteleft
Encoding: 8216 8216 86
Width: 284
GlyphClass: 1
Flags: W
LayerCount: 2
Fore
SplineSet
139 469 m 256,0,1
 102 469 102 469 84.5 487 c 128,-1,2
 67 505 67 505 67 533 c 2,3,-1
 67 550 l 2,4,5
 67 574 67 574 74.5 600 c 128,-1,6
 82 626 82 626 95 651 c 128,-1,7
 108 676 108 676 126 699 c 128,-1,8
 144 722 144 722 166 740 c 1,9,-1
 243 740 l 1,10,11
 212 709 212 709 191.5 679.5 c 128,-1,12
 171 650 171 650 161 614 c 1,13,14
 187 609 187 609 199 591.5 c 128,-1,15
 211 574 211 574 211 551 c 2,16,-1
 211 533 l 2,17,18
 211 505 211 505 193.5 487 c 128,-1,19
 176 469 176 469 139 469 c 256,0,1
EndSplineSet
EndChar

StartChar: quoteright
Encoding: 8217 8217 87
Width: 284
GlyphClass: 1
Flags: W
LayerCount: 2
Fore
SplineSet
145 750 m 256,0,1
 183 750 183 750 200 732 c 128,-1,2
 217 714 217 714 217 685 c 2,3,-1
 217 668 l 2,4,5
 217 644 217 644 210 618.5 c 128,-1,6
 203 593 203 593 190 568 c 128,-1,7
 177 543 177 543 159 520 c 128,-1,8
 141 497 141 497 119 479 c 1,9,-1
 41 479 l 1,10,11
 73 510 73 510 93 540 c 128,-1,12
 113 570 113 570 124 605 c 1,13,14
 98 610 98 610 85.5 627 c 128,-1,15
 73 644 73 644 73 667 c 2,16,-1
 73 685 l 2,17,18
 73 714 73 714 90 732 c 128,-1,19
 107 750 107 750 145 750 c 256,0,1
EndSplineSet
EndChar

StartChar: quotesinglbase
Encoding: 8218 8218 90
Width: 286
GlyphClass: 1
Flags: W
LayerCount: 2
Fore
SplineSet
140 155 m 256,0,1
 178 155 178 155 195 137 c 128,-1,2
 212 119 212 119 212 90 c 2,3,-1
 212 73 l 2,4,5
 212 49 212 49 205 23.5 c 128,-1,6
 198 -2 198 -2 185 -27 c 128,-1,7
 172 -52 172 -52 154 -75 c 128,-1,8
 136 -98 136 -98 114 -116 c 1,9,-1
 36 -116 l 1,10,11
 68 -85 68 -85 88 -55 c 128,-1,12
 108 -25 108 -25 119 10 c 1,13,14
 93 15 93 15 80.5 32 c 128,-1,15
 68 49 68 49 68 72 c 2,16,-1
 68 90 l 2,17,18
 68 119 68 119 85 137 c 128,-1,19
 102 155 102 155 140 155 c 256,0,1
EndSplineSet
EndChar

StartChar: guilsinglleft
Encoding: 8249 8249 92
Width: 309
GlyphClass: 1
Flags: W
LayerCount: 2
Fore
SplineSet
226 67 m 1,0,-1
 37 230 l 1,1,-1
 37 328 l 1,2,-1
 226 491 l 1,3,-1
 258 421 l 1,4,-1
 129 279 l 1,5,-1
 258 137 l 1,6,-1
 226 67 l 1,0,-1
EndSplineSet
EndChar

StartChar: guilsinglright
Encoding: 8250 8250 93
Width: 309
GlyphClass: 1
Flags: W
LayerCount: 2
Fore
SplineSet
51 137 m 1,0,-1
 180 279 l 1,1,-1
 51 421 l 1,2,-1
 83 491 l 1,3,-1
 272 328 l 1,4,-1
 272 230 l 1,5,-1
 83 67 l 1,6,-1
 51 137 l 1,0,-1
EndSplineSet
EndChar

StartChar: exclamdown
Encoding: 161 161 96
Width: 298
GlyphClass: 1
Flags: W
LayerCount: 2
Fore
SplineSet
91 -178 m 1,0,-1
 91 21 l 1,1,-1
 124 320 l 1,2,-1
 174 320 l 1,3,-1
 209 21 l 1,4,-1
 209 -178 l 1,5,-1
 91 -178 l 1,0,-1
149 383 m 256,6,7
 111 383 111 383 93.5 401.5 c 128,-1,8
 76 420 76 420 76 449 c 2,9,-1
 76 466 l 2,10,11
 76 495 76 495 93.5 513.5 c 128,-1,12
 111 532 111 532 149 532 c 256,13,14
 187 532 187 532 204.5 513.5 c 128,-1,15
 222 495 222 495 222 466 c 2,16,-1
 222 449 l 2,17,18
 222 420 222 420 204.5 401.5 c 128,-1,19
 187 383 187 383 149 383 c 256,6,7
EndSplineSet
EndChar

StartChar: exclam
Encoding: 33 33 97
Width: 298
GlyphClass: 1
Flags: W
LayerCount: 2
Fore
SplineSet
124 200 m 1,0,-1
 89 499 l 1,1,-1
 89 698 l 1,2,-1
 207 698 l 1,3,-1
 207 499 l 1,4,-1
 174 200 l 1,5,-1
 124 200 l 1,0,-1
149 -12 m 256,6,7
 111 -12 111 -12 93.5 6.5 c 128,-1,8
 76 25 76 25 76 54 c 2,9,-1
 76 71 l 2,10,11
 76 100 76 100 93.5 118.5 c 128,-1,12
 111 137 111 137 149 137 c 256,13,14
 187 137 187 137 204.5 118.5 c 128,-1,15
 222 100 222 100 222 71 c 2,16,-1
 222 54 l 2,17,18
 222 25 222 25 204.5 6.5 c 128,-1,19
 187 -12 187 -12 149 -12 c 256,6,7
EndSplineSet
EndChar

StartChar: questiondown
Encoding: 191 191 98
Width: 479
GlyphClass: 1
Flags: W
LayerCount: 2
Fore
SplineSet
248 -190 m 0,0,1
 199 -190 199 -190 159 -176 c 128,-1,2
 119 -162 119 -162 91 -136.5 c 128,-1,3
 63 -111 63 -111 48 -74.5 c 128,-1,4
 33 -38 33 -38 33 6 c 0,5,6
 33 51 33 51 48.5 86.5 c 128,-1,7
 64 122 64 122 89.5 147 c 128,-1,8
 115 172 115 172 147 187.5 c 128,-1,9
 179 203 179 203 213 209 c 1,10,-1
 213 301 l 1,11,-1
 317 301 l 1,12,-1
 317 142 l 1,13,14
 236 138 236 138 192.5 107.5 c 128,-1,15
 149 77 149 77 149 17 c 2,16,-1
 149 3 l 2,17,18
 149 -43 149 -43 177 -68.5 c 128,-1,19
 205 -94 205 -94 252 -94 c 0,20,21
 302 -94 302 -94 332 -65 c 128,-1,22
 362 -36 362 -36 373 9 c 1,23,-1
 468 -29 l 1,24,25
 459 -60 459 -60 441.5 -89 c 128,-1,26
 424 -118 424 -118 397 -140.5 c 128,-1,27
 370 -163 370 -163 333 -176.5 c 128,-1,28
 296 -190 296 -190 248 -190 c 0,0,1
264 383 m 256,29,30
 226 383 226 383 208.5 401.5 c 128,-1,31
 191 420 191 420 191 449 c 2,32,-1
 191 466 l 2,33,34
 191 495 191 495 208.5 513.5 c 128,-1,35
 226 532 226 532 264 532 c 256,36,37
 302 532 302 532 319.5 513.5 c 128,-1,38
 337 495 337 495 337 466 c 2,39,-1
 337 449 l 2,40,41
 337 420 337 420 319.5 401.5 c 128,-1,42
 302 383 302 383 264 383 c 256,29,30
EndSplineSet
EndChar

StartChar: question
Encoding: 63 63 99
Width: 487
GlyphClass: 1
Flags: W
LayerCount: 2
Fore
SplineSet
170 219 m 1,0,-1
 170 378 l 1,1,2
 251 382 251 382 294.5 412.5 c 128,-1,3
 338 443 338 443 338 503 c 2,4,-1
 338 517 l 2,5,6
 338 563 338 563 310 588.5 c 128,-1,7
 282 614 282 614 235 614 c 0,8,9
 185 614 185 614 155 585 c 128,-1,10
 125 556 125 556 114 511 c 1,11,-1
 19 549 l 1,12,13
 28 580 28 580 45.5 609 c 128,-1,14
 63 638 63 638 90 660.5 c 128,-1,15
 117 683 117 683 154 696.5 c 128,-1,16
 191 710 191 710 239 710 c 0,17,18
 288 710 288 710 328 696 c 128,-1,19
 368 682 368 682 396 656.5 c 128,-1,20
 424 631 424 631 439 594.5 c 128,-1,21
 454 558 454 558 454 514 c 0,22,23
 454 469 454 469 438.5 433.5 c 128,-1,24
 423 398 423 398 397.5 373 c 128,-1,25
 372 348 372 348 340 332.5 c 128,-1,26
 308 317 308 317 274 311 c 1,27,-1
 274 219 l 1,28,-1
 170 219 l 1,0,-1
223 -12 m 256,29,30
 185 -12 185 -12 167.5 6.5 c 128,-1,31
 150 25 150 25 150 54 c 2,32,-1
 150 71 l 2,33,34
 150 100 150 100 167.5 118.5 c 128,-1,35
 185 137 185 137 223 137 c 256,36,37
 261 137 261 137 278.5 118.5 c 128,-1,38
 296 100 296 100 296 71 c 2,39,-1
 296 54 l 2,40,41
 296 25 296 25 278.5 6.5 c 128,-1,42
 261 -12 261 -12 223 -12 c 256,29,30
EndSplineSet
EndChar

StartChar: parenleft
Encoding: 40 40 100
Width: 336
GlyphClass: 1
Flags: W
LayerCount: 2
Fore
SplineSet
63 311 m 256,0,1
 63 384 63 384 76.5 451 c 128,-1,2
 90 518 90 518 114 576 c 128,-1,3
 138 634 138 634 170.5 681 c 128,-1,4
 203 728 203 728 241 760 c 1,5,-1
 344 760 l 1,6,7
 303 722 303 722 270 675 c 128,-1,8
 237 628 237 628 214 575 c 128,-1,9
 191 522 191 522 178.5 465 c 128,-1,10
 166 408 166 408 166 351 c 2,11,-1
 166 271 l 2,12,13
 166 214 166 214 178.5 157 c 128,-1,14
 191 100 191 100 214 47 c 128,-1,15
 237 -6 237 -6 270 -53.5 c 128,-1,16
 303 -101 303 -101 344 -138 c 1,17,-1
 241 -138 l 1,18,19
 203 -106 203 -106 170.5 -59 c 128,-1,20
 138 -12 138 -12 114 46 c 128,-1,21
 90 104 90 104 76.5 171 c 128,-1,22
 63 238 63 238 63 311 c 256,0,1
EndSplineSet
EndChar

StartChar: parenright
Encoding: 41 41 101
Width: 336
GlyphClass: 1
Flags: W
LayerCount: 2
Fore
SplineSet
273 311 m 256,0,1
 273 238 273 238 259.5 171 c 128,-1,2
 246 104 246 104 222 46 c 128,-1,3
 198 -12 198 -12 165.5 -59 c 128,-1,4
 133 -106 133 -106 95 -138 c 1,5,-1
 -8 -138 l 1,6,7
 33 -101 33 -101 66 -53.5 c 128,-1,8
 99 -6 99 -6 122 47 c 128,-1,9
 145 100 145 100 157.5 157 c 128,-1,10
 170 214 170 214 170 271 c 2,11,-1
 170 351 l 2,12,13
 170 408 170 408 157.5 465 c 128,-1,14
 145 522 145 522 122 575 c 128,-1,15
 99 628 99 628 66 675 c 128,-1,16
 33 722 33 722 -8 760 c 1,17,-1
 95 760 l 1,18,19
 133 728 133 728 165.5 681 c 128,-1,20
 198 634 198 634 222 576 c 128,-1,21
 246 518 246 518 259.5 451 c 128,-1,22
 273 384 273 384 273 311 c 256,0,1
EndSplineSet
EndChar

StartChar: bracketleft
Encoding: 91 91 102
Width: 325
GlyphClass: 1
Flags: W
LayerCount: 2
Fore
SplineSet
86 -138 m 1,0,-1
 86 760 l 1,1,-1
 269 760 l 1,2,-1
 269 679 l 1,3,-1
 184 679 l 1,4,-1
 184 -57 l 1,5,-1
 269 -57 l 1,6,-1
 269 -138 l 1,7,-1
 86 -138 l 1,0,-1
EndSplineSet
EndChar

StartChar: bracketright
Encoding: 93 93 103
Width: 325
GlyphClass: 1
Flags: W
LayerCount: 2
Fore
SplineSet
239 760 m 1,0,-1
 239 -138 l 1,1,-1
 56 -138 l 1,2,-1
 56 -57 l 1,3,-1
 141 -57 l 1,4,-1
 141 679 l 1,5,-1
 56 679 l 1,6,-1
 56 760 l 1,7,-1
 239 760 l 1,0,-1
EndSplineSet
EndChar

StartChar: braceleft
Encoding: 123 123 104
Width: 354
GlyphClass: 1
Flags: W
LayerCount: 2
Fore
SplineSet
204 -138 m 2,0,1
 164 -138 164 -138 140.5 -113.5 c 128,-1,2
 117 -89 117 -89 117 -48 c 2,3,-1
 117 176 l 2,4,5
 117 220 117 220 89.5 242.5 c 128,-1,6
 62 265 62 265 20 265 c 1,7,-1
 20 358 l 1,8,9
 62 358 62 358 89.5 380.5 c 128,-1,10
 117 403 117 403 117 446 c 2,11,-1
 117 670 l 2,12,13
 117 711 117 711 140.5 735.5 c 128,-1,14
 164 760 164 760 204 760 c 2,15,-1
 298 760 l 1,16,-1
 298 679 l 1,17,-1
 215 679 l 1,18,-1
 215 444 l 2,19,20
 215 420 215 420 207.5 399 c 128,-1,21
 200 378 200 378 186.5 360.5 c 128,-1,22
 173 343 173 343 155 331.5 c 128,-1,23
 137 320 137 320 116 316 c 1,24,-1
 116 306 l 1,25,26
 137 302 137 302 155 290.5 c 128,-1,27
 173 279 173 279 186.5 261.5 c 128,-1,28
 200 244 200 244 207.5 223 c 128,-1,29
 215 202 215 202 215 178 c 2,30,-1
 215 -57 l 1,31,-1
 298 -57 l 1,32,-1
 298 -138 l 1,33,-1
 204 -138 l 2,0,1
EndSplineSet
EndChar

StartChar: braceright
Encoding: 125 125 105
Width: 356
GlyphClass: 1
Flags: W
LayerCount: 2
Fore
SplineSet
150 760 m 2,0,1
 190 760 190 760 214.5 735.5 c 128,-1,2
 239 711 239 711 239 670 c 2,3,-1
 239 446 l 2,4,5
 239 403 239 403 266.5 380.5 c 128,-1,6
 294 358 294 358 336 358 c 1,7,-1
 336 265 l 1,8,9
 294 265 294 265 266.5 242.5 c 128,-1,10
 239 220 239 220 239 176 c 2,11,-1
 239 -48 l 2,12,13
 239 -89 239 -89 214.5 -113.5 c 128,-1,14
 190 -138 190 -138 150 -138 c 2,15,-1
 56 -138 l 1,16,-1
 56 -57 l 1,17,-1
 141 -57 l 1,18,-1
 141 178 l 2,19,20
 141 202 141 202 148.5 223 c 128,-1,21
 156 244 156 244 169 261.5 c 128,-1,22
 182 279 182 279 200 290.5 c 128,-1,23
 218 302 218 302 240 306 c 1,24,-1
 240 316 l 1,25,26
 218 320 218 320 200 331.5 c 128,-1,27
 182 343 182 343 169 360.5 c 128,-1,28
 156 378 156 378 148.5 399 c 128,-1,29
 141 420 141 420 141 444 c 2,30,-1
 141 679 l 1,31,-1
 56 679 l 1,32,-1
 56 760 l 1,33,-1
 150 760 l 2,0,1
EndSplineSet
EndChar

StartChar: slash
Encoding: 47 47 106
Width: 417
GlyphClass: 1
Flags: W
LayerCount: 2
Fore
SplineSet
7 -151 m 1,0,-1
 284 740 l 1,1,-1
 378 740 l 1,2,-1
 101 -151 l 1,3,-1
 7 -151 l 1,0,-1
EndSplineSet
Substitution2: "'frac' Diagonal Fractions lookup 5 subtable" fraction
EndChar

StartChar: backslash
Encoding: 92 92 107
Width: 417
GlyphClass: 1
Flags: W
LayerCount: 2
Fore
SplineSet
316 -151 m 1,0,-1
 39 740 l 1,1,-1
 133 740 l 1,2,-1
 410 -151 l 1,3,-1
 316 -151 l 1,0,-1
EndSplineSet
EndChar

StartChar: fraction
Encoding: 8260 8260 108
Width: 151
GlyphClass: 1
Flags: W
LayerCount: 2
Fore
SplineSet
-221 0 m 1,0,-1
 284 698 l 1,1,-1
 372 698 l 1,2,-1
 -132 0 l 1,3,-1
 -221 0 l 1,0,-1
EndSplineSet
EndChar

StartChar: percent
Encoding: 37 37 110
Width: 947
GlyphClass: 1
Flags: W
LayerCount: 2
Fore
SplineSet
181 0 m 1,0,-1
 665 698 l 1,1,-1
 766 698 l 1,2,-1
 282 0 l 1,3,-1
 181 0 l 1,0,-1
226 314 m 256,4,5
 145 314 145 314 102 364.5 c 128,-1,6
 59 415 59 415 59 512 c 256,7,8
 59 609 59 609 102 659.5 c 128,-1,9
 145 710 145 710 226 710 c 256,10,11
 307 710 307 710 350 659.5 c 128,-1,12
 393 609 393 609 393 512 c 256,13,14
 393 415 393 415 350 364.5 c 128,-1,15
 307 314 307 314 226 314 c 256,4,5
226 381 m 256,16,17
 297 381 297 381 297 484 c 2,18,-1
 297 540 l 2,19,20
 297 643 297 643 226 643 c 256,21,22
 155 643 155 643 155 540 c 2,23,-1
 155 484 l 2,24,25
 155 381 155 381 226 381 c 256,16,17
721 -12 m 256,26,27
 640 -12 640 -12 597 38.5 c 128,-1,28
 554 89 554 89 554 186 c 256,29,30
 554 283 554 283 597 333.5 c 128,-1,31
 640 384 640 384 721 384 c 256,32,33
 802 384 802 384 845 333.5 c 128,-1,34
 888 283 888 283 888 186 c 256,35,36
 888 89 888 89 845 38.5 c 128,-1,37
 802 -12 802 -12 721 -12 c 256,26,27
721 55 m 256,38,39
 792 55 792 55 792 158 c 2,40,-1
 792 214 l 2,41,42
 792 317 792 317 721 317 c 256,43,44
 650 317 650 317 650 214 c 2,45,-1
 650 158 l 2,46,47
 650 55 650 55 721 55 c 256,38,39
EndSplineSet
EndChar

StartChar: perthousand
Encoding: 8240 8240 111
Width: 1339
GlyphClass: 1
Flags: W
LayerCount: 2
Fore
SplineSet
181 0 m 1,0,-1
 665 698 l 1,1,-1
 766 698 l 1,2,-1
 282 0 l 1,3,-1
 181 0 l 1,0,-1
226 314 m 256,4,5
 145 314 145 314 102 364.5 c 128,-1,6
 59 415 59 415 59 512 c 256,7,8
 59 609 59 609 102 659.5 c 128,-1,9
 145 710 145 710 226 710 c 256,10,11
 307 710 307 710 350 659.5 c 128,-1,12
 393 609 393 609 393 512 c 256,13,14
 393 415 393 415 350 364.5 c 128,-1,15
 307 314 307 314 226 314 c 256,4,5
226 381 m 256,16,17
 297 381 297 381 297 484 c 2,18,-1
 297 540 l 2,19,20
 297 643 297 643 226 643 c 256,21,22
 155 643 155 643 155 540 c 2,23,-1
 155 484 l 2,24,25
 155 381 155 381 226 381 c 256,16,17
721 -12 m 256,26,27
 640 -12 640 -12 597 38.5 c 128,-1,28
 554 89 554 89 554 186 c 256,29,30
 554 283 554 283 597 333.5 c 128,-1,31
 640 384 640 384 721 384 c 256,32,33
 802 384 802 384 845 333.5 c 128,-1,34
 888 283 888 283 888 186 c 256,35,36
 888 89 888 89 845 38.5 c 128,-1,37
 802 -12 802 -12 721 -12 c 256,26,27
721 55 m 256,38,39
 792 55 792 55 792 158 c 2,40,-1
 792 214 l 2,41,42
 792 317 792 317 721 317 c 256,43,44
 650 317 650 317 650 214 c 2,45,-1
 650 158 l 2,46,47
 650 55 650 55 721 55 c 256,38,39
1113 -12 m 256,48,49
 1032 -12 1032 -12 989 38.5 c 128,-1,50
 946 89 946 89 946 186 c 256,51,52
 946 283 946 283 989 333.5 c 128,-1,53
 1032 384 1032 384 1113 384 c 256,54,55
 1194 384 1194 384 1237 333.5 c 128,-1,56
 1280 283 1280 283 1280 186 c 256,57,58
 1280 89 1280 89 1237 38.5 c 128,-1,59
 1194 -12 1194 -12 1113 -12 c 256,48,49
1113 55 m 256,60,61
 1184 55 1184 55 1184 158 c 2,62,-1
 1184 214 l 2,63,64
 1184 317 1184 317 1113 317 c 256,65,66
 1042 317 1042 317 1042 214 c 2,67,-1
 1042 158 l 2,68,69
 1042 55 1042 55 1113 55 c 256,60,61
EndSplineSet
EndChar

StartChar: bar
Encoding: 124 124 112
Width: 353
GlyphClass: 1
Flags: W
LayerCount: 2
Fore
SplineSet
130 -138 m 1,0,-1
 130 760 l 1,1,-1
 223 760 l 1,2,-1
 223 -138 l 1,3,-1
 130 -138 l 1,0,-1
EndSplineSet
EndChar

StartChar: brokenbar
Encoding: 166 166 113
Width: 353
GlyphClass: 1
Flags: W
LayerCount: 2
Fore
SplineSet
130 404 m 1,0,-1
 130 760 l 1,1,-1
 223 760 l 1,2,-1
 223 404 l 1,3,-1
 130 404 l 1,0,-1
130 -138 m 1,4,-1
 130 218 l 1,5,-1
 223 218 l 1,6,-1
 223 -138 l 1,7,-1
 130 -138 l 1,4,-1
EndSplineSet
EndChar

StartChar: section
Encoding: 167 167 114
Width: 577
GlyphClass: 1
Flags: W
LayerCount: 2
Fore
SplineSet
480 8 m 0,0,1
 480 -31 480 -31 465 -61.5 c 128,-1,2
 450 -92 450 -92 422.5 -113.5 c 128,-1,3
 395 -135 395 -135 357 -146.5 c 128,-1,4
 319 -158 319 -158 273 -158 c 0,5,6
 225 -158 225 -158 178 -143.5 c 128,-1,7
 131 -129 131 -129 93 -95 c 1,8,-1
 150 -25 l 1,9,10
 175 -48 175 -48 206 -60.5 c 128,-1,11
 237 -73 237 -73 275 -73 c 0,12,13
 324 -73 324 -73 352.5 -52.5 c 128,-1,14
 381 -32 381 -32 381 4 c 0,15,16
 381 38 381 38 356.5 57 c 128,-1,17
 332 76 332 76 285 90 c 2,18,-1
 216 110 l 2,19,20
 133 133 133 133 98.5 173.5 c 128,-1,21
 64 214 64 214 64 261 c 0,22,23
 64 307 64 307 91 343 c 128,-1,24
 118 379 118 379 172 402 c 1,25,-1
 172 413 l 1,26,27
 138 436 138 436 117.5 469 c 128,-1,28
 97 502 97 502 97 547 c 0,29,30
 97 585 97 585 112 615.5 c 128,-1,31
 127 646 127 646 154 667 c 128,-1,32
 181 688 181 688 218.5 699 c 128,-1,33
 256 710 256 710 302 710 c 0,34,35
 351 710 351 710 398 696 c 128,-1,36
 445 682 445 682 484 647 c 1,37,-1
 426 578 l 1,38,39
 401 600 401 600 370.5 613 c 128,-1,40
 340 626 340 626 300 626 c 0,41,42
 252 626 252 626 223 606.5 c 128,-1,43
 194 587 194 587 194 550 c 0,44,45
 194 517 194 517 218.5 498 c 128,-1,46
 243 479 243 479 291 465 c 2,47,-1
 360 446 l 2,48,49
 443 422 443 422 478 382 c 128,-1,50
 513 342 513 342 513 294 c 0,51,52
 513 248 513 248 485.5 211.5 c 128,-1,53
 458 175 458 175 404 153 c 1,54,-1
 404 143 l 1,55,56
 439 120 439 120 459.5 86.5 c 128,-1,57
 480 53 480 53 480 8 c 0,0,1
415 263 m 0,58,59
 415 298 415 298 392 322.5 c 128,-1,60
 369 347 369 347 314 362 c 2,61,-1
 246 381 l 2,62,63
 238 383 238 383 230 385.5 c 128,-1,64
 222 388 222 388 214 391 c 1,65,66
 189 371 189 371 175 346.5 c 128,-1,67
 161 322 161 322 161 292 c 0,68,69
 161 257 161 257 184 233 c 128,-1,70
 207 209 207 209 262 193 c 2,71,-1
 330 175 l 2,72,73
 345 171 345 171 362 164 c 1,74,75
 387 184 387 184 401 208.5 c 128,-1,76
 415 233 415 233 415 263 c 0,58,59
EndSplineSet
EndChar

StartChar: paragraph
Encoding: 182 182 115
Width: 663
GlyphClass: 1
Flags: W
LayerCount: 2
Fore
SplineSet
244 282 m 1,0,1
 202 282 202 282 165.5 298.5 c 128,-1,2
 129 315 129 315 101.5 343.5 c 128,-1,3
 74 372 74 372 58.5 409.5 c 128,-1,4
 43 447 43 447 43 490 c 256,5,6
 43 533 43 533 58.5 570.5 c 128,-1,7
 74 608 74 608 101.5 636.5 c 128,-1,8
 129 665 129 665 165.5 681.5 c 128,-1,9
 202 698 202 698 244 698 c 2,10,-1
 593 698 l 1,11,-1
 593 614 l 1,12,-1
 527 614 l 1,13,-1
 527 -149 l 1,14,-1
 438 -149 l 1,15,-1
 438 614 l 1,16,-1
 333 614 l 1,17,-1
 333 -149 l 1,18,-1
 244 -149 l 1,19,-1
 244 282 l 1,0,1
EndSplineSet
EndChar

StartChar: copyright
Encoding: 169 169 116
Width: 782
GlyphClass: 1
Flags: W
LayerCount: 2
Fore
SplineSet
391 -11 m 256,0,1
 319 -11 319 -11 256.5 14 c 128,-1,2
 194 39 194 39 148.5 85.5 c 128,-1,3
 103 132 103 132 77 199 c 128,-1,4
 51 266 51 266 51 349 c 256,5,6
 51 432 51 432 77 499 c 128,-1,7
 103 566 103 566 148.5 612.5 c 128,-1,8
 194 659 194 659 256.5 684 c 128,-1,9
 319 709 319 709 391 709 c 256,10,11
 463 709 463 709 525.5 684 c 128,-1,12
 588 659 588 659 633.5 612.5 c 128,-1,13
 679 566 679 566 705 499 c 128,-1,14
 731 432 731 432 731 349 c 256,15,16
 731 266 731 266 705 199 c 128,-1,17
 679 132 679 132 633.5 85.5 c 128,-1,18
 588 39 588 39 525.5 14 c 128,-1,19
 463 -11 463 -11 391 -11 c 256,0,1
391 50 m 256,20,21
 450 50 450 50 499.5 70.5 c 128,-1,22
 549 91 549 91 584.5 126.5 c 128,-1,23
 620 162 620 162 640 211 c 128,-1,24
 660 260 660 260 660 317 c 2,25,-1
 660 381 l 2,26,27
 660 438 660 438 640 487 c 128,-1,28
 620 536 620 536 584.5 571.5 c 128,-1,29
 549 607 549 607 499.5 627.5 c 128,-1,30
 450 648 450 648 391 648 c 256,31,32
 332 648 332 648 282.5 627.5 c 128,-1,33
 233 607 233 607 197.5 571.5 c 128,-1,34
 162 536 162 536 142 487 c 128,-1,35
 122 438 122 438 122 381 c 2,36,-1
 122 317 l 2,37,38
 122 260 122 260 142 211 c 128,-1,39
 162 162 162 162 197.5 126.5 c 128,-1,40
 233 91 233 91 282.5 70.5 c 128,-1,41
 332 50 332 50 391 50 c 256,20,21
399 146 m 0,42,43
 312 146 312 146 264 201 c 128,-1,44
 216 256 216 256 216 349 c 256,45,46
 216 442 216 442 264 497 c 128,-1,47
 312 552 312 552 399 552 c 0,48,49
 459 552 459 552 496 525 c 128,-1,50
 533 498 533 498 552 454 c 1,51,-1
 477 415 l 1,52,53
 466 441 466 441 448 456.5 c 128,-1,54
 430 472 430 472 399 472 c 0,55,56
 360 472 360 472 339 447.5 c 128,-1,57
 318 423 318 423 318 384 c 2,58,-1
 318 313 l 2,59,60
 318 274 318 274 339 249.5 c 128,-1,61
 360 225 360 225 399 225 c 0,62,63
 431 225 431 225 451 241.5 c 128,-1,64
 471 258 471 258 485 284 c 1,65,-1
 559 245 l 1,66,67
 540 203 540 203 501.5 174.5 c 128,-1,68
 463 146 463 146 399 146 c 0,42,43
EndSplineSet
EndChar

StartChar: registered
Encoding: 174 174 117
Width: 472
GlyphClass: 1
Flags: W
LayerCount: 2
Fore
SplineSet
236 298 m 256,0,1
 194 298 194 298 157.5 313.5 c 128,-1,2
 121 329 121 329 94 357 c 128,-1,3
 67 385 67 385 51.5 422.5 c 128,-1,4
 36 460 36 460 36 504 c 256,5,6
 36 548 36 548 51.5 585.5 c 128,-1,7
 67 623 67 623 94 651 c 128,-1,8
 121 679 121 679 157.5 694.5 c 128,-1,9
 194 710 194 710 236 710 c 256,10,11
 278 710 278 710 314.5 694.5 c 128,-1,12
 351 679 351 679 378 651 c 128,-1,13
 405 623 405 623 420.5 585.5 c 128,-1,14
 436 548 436 548 436 504 c 256,15,16
 436 460 436 460 420.5 422.5 c 128,-1,17
 405 385 405 385 378 357 c 128,-1,18
 351 329 351 329 314.5 313.5 c 128,-1,19
 278 298 278 298 236 298 c 256,0,1
236 341 m 256,20,21
 269 341 269 341 297 352.5 c 128,-1,22
 325 364 325 364 345.5 384.5 c 128,-1,23
 366 405 366 405 377.5 432 c 128,-1,24
 389 459 389 459 389 491 c 2,25,-1
 389 517 l 2,26,27
 389 548 389 548 377.5 575.5 c 128,-1,28
 366 603 366 603 345.5 623.5 c 128,-1,29
 325 644 325 644 297 655.5 c 128,-1,30
 269 667 269 667 236 667 c 256,31,32
 203 667 203 667 175 655.5 c 128,-1,33
 147 644 147 644 126.5 623.5 c 128,-1,34
 106 603 106 603 94.5 575.5 c 128,-1,35
 83 548 83 548 83 517 c 2,36,-1
 83 491 l 2,37,38
 83 459 83 459 94.5 432 c 128,-1,39
 106 405 106 405 126.5 384.5 c 128,-1,40
 147 364 147 364 175 352.5 c 128,-1,41
 203 341 203 341 236 341 c 256,20,21
206 398 m 1,42,-1
 155 398 l 1,43,-1
 155 607 l 1,44,-1
 250 607 l 2,45,46
 285 607 285 607 303 588.5 c 128,-1,47
 321 570 321 570 321 541 c 0,48,49
 321 516 321 516 310.5 500.5 c 128,-1,50
 300 485 300 485 283 478 c 1,51,-1
 330 398 l 1,52,-1
 274 398 l 1,53,-1
 235 470 l 1,54,-1
 206 470 l 1,55,-1
 206 398 l 1,42,-1
244 508 m 2,56,57
 269 508 269 508 269 530 c 2,58,-1
 269 545 l 2,59,60
 269 567 269 567 244 567 c 2,61,-1
 206 567 l 1,62,-1
 206 508 l 1,63,-1
 244 508 l 2,56,57
EndSplineSet
EndChar

StartChar: trademark
Encoding: 8482 8482 118
Width: 629
GlyphClass: 1
Flags: W
LayerCount: 2
Fore
SplineSet
109 415 m 1,0,-1
 109 646 l 1,1,-1
 29 646 l 1,2,-1
 29 698 l 1,3,-1
 253 698 l 1,4,-1
 253 646 l 1,5,-1
 174 646 l 1,6,-1
 174 415 l 1,7,-1
 109 415 l 1,0,-1
286 415 m 1,8,-1
 286 698 l 1,9,-1
 360 698 l 1,10,-1
 423 576 l 1,11,-1
 428 576 l 1,12,-1
 490 698 l 1,13,-1
 560 698 l 1,14,-1
 560 415 l 1,15,-1
 502 415 l 1,16,-1
 502 527 l 1,17,-1
 507 615 l 1,18,-1
 503 615 l 1,19,-1
 423 464 l 1,20,-1
 343 615 l 1,21,-1
 339 615 l 1,22,-1
 344 527 l 1,23,-1
 344 415 l 1,24,-1
 286 415 l 1,8,-1
EndSplineSet
EndChar

StartChar: ordfeminine
Encoding: 170 170 119
Width: 420
GlyphClass: 1
Flags: W
LayerCount: 2
Fore
SplineSet
379 342 m 1,0,-1
 334 342 l 2,1,2
 307 342 307 342 288 355.5 c 128,-1,3
 269 369 269 369 267 400 c 1,4,-1
 263 400 l 1,5,6
 252 372 252 372 225 354 c 128,-1,7
 198 336 198 336 154 336 c 0,8,9
 102 336 102 336 72.5 363.5 c 128,-1,10
 43 391 43 391 43 439 c 0,11,12
 43 494 43 494 82 520 c 128,-1,13
 121 546 121 546 196 546 c 2,14,-1
 261 546 l 1,15,-1
 261 569 l 2,16,17
 261 642 261 642 191 642 c 0,18,19
 158 642 158 642 136 628 c 128,-1,20
 114 614 114 614 102 593 c 1,21,-1
 54 634 l 1,22,23
 70 662 70 662 105.5 683 c 128,-1,24
 141 704 141 704 198 704 c 0,25,26
 264 704 264 704 302.5 670.5 c 128,-1,27
 341 637 341 637 341 573 c 2,28,-1
 341 407 l 1,29,-1
 379 407 l 1,30,-1
 379 342 l 1,0,-1
196 496 m 2,31,32
 122 496 122 496 122 451 c 2,33,-1
 122 439 l 2,34,35
 122 416 122 416 137 405.5 c 128,-1,36
 152 395 152 395 179 395 c 0,37,38
 212 395 212 395 236.5 410 c 128,-1,39
 261 425 261 425 261 454 c 2,40,-1
 261 496 l 1,41,-1
 196 496 l 2,31,32
EndSplineSet
EndChar

StartChar: ordmasculine
Encoding: 186 186 120
Width: 414
GlyphClass: 1
Flags: W
LayerCount: 2
Fore
SplineSet
207 336 m 256,0,1
 129 336 129 336 85.5 385 c 128,-1,2
 42 434 42 434 42 520 c 256,3,4
 42 606 42 606 85.5 655 c 128,-1,5
 129 704 129 704 207 704 c 256,6,7
 285 704 285 704 328.5 655 c 128,-1,8
 372 606 372 606 372 520 c 256,9,10
 372 434 372 434 328.5 385 c 128,-1,11
 285 336 285 336 207 336 c 256,0,1
207 399 m 256,12,13
 246 399 246 399 267 422 c 128,-1,14
 288 445 288 445 288 488 c 2,15,-1
 288 552 l 2,16,17
 288 595 288 595 267 618 c 128,-1,18
 246 641 246 641 207 641 c 256,19,20
 168 641 168 641 147 618 c 128,-1,21
 126 595 126 595 126 552 c 2,22,-1
 126 488 l 2,23,24
 126 445 126 445 147 422 c 128,-1,25
 168 399 168 399 207 399 c 256,12,13
EndSplineSet
EndChar

StartChar: degree
Encoding: 176 176 121
Width: 470
GlyphClass: 1
Flags: W
LayerCount: 2
Fore
SplineSet
235 352 m 0,0,1
 197 352 197 352 165 365.5 c 128,-1,2
 133 379 133 379 109.5 403 c 128,-1,3
 86 427 86 427 72.5 460 c 128,-1,4
 59 493 59 493 59 531 c 256,5,6
 59 569 59 569 72.5 602 c 128,-1,7
 86 635 86 635 109.5 659 c 128,-1,8
 133 683 133 683 165 696.5 c 128,-1,9
 197 710 197 710 235 710 c 0,10,11
 272 710 272 710 304.5 696.5 c 128,-1,12
 337 683 337 683 360.5 659 c 128,-1,13
 384 635 384 635 397.5 602 c 128,-1,14
 411 569 411 569 411 531 c 256,15,16
 411 493 411 493 397.5 460 c 128,-1,17
 384 427 384 427 360.5 403 c 128,-1,18
 337 379 337 379 304.5 365.5 c 128,-1,19
 272 352 272 352 235 352 c 0,0,1
235 430 m 256,20,21
 278 430 278 430 302.5 459 c 128,-1,22
 327 488 327 488 327 531 c 256,23,24
 327 574 327 574 302.5 603 c 128,-1,25
 278 632 278 632 235 632 c 256,26,27
 192 632 192 632 167.5 603 c 128,-1,28
 143 574 143 574 143 531 c 256,29,30
 143 488 143 488 167.5 459 c 128,-1,31
 192 430 192 430 235 430 c 256,20,21
EndSplineSet
EndChar

StartChar: uni2032
Encoding: 8242 8242 122
Width: 253
GlyphClass: 1
Flags: W
LayerCount: 2
Fore
SplineSet
47 364 m 1,0,-1
 106 698 l 1,1,-1
 206 698 l 1,2,-1
 147 364 l 1,3,-1
 47 364 l 1,0,-1
EndSplineSet
EndChar

StartChar: asterisk
Encoding: 42 42 124
Width: 514
GlyphClass: 1
Flags: W
LayerCount: 2
Fore
SplineSet
163 324 m 1,0,-1
 87 377 l 1,1,-1
 193 509 l 1,2,-1
 34 555 l 1,3,-1
 63 642 l 1,4,-1
 216 582 l 1,5,-1
 209 747 l 1,6,-1
 304 747 l 1,7,-1
 297 582 l 1,8,-1
 450 642 l 1,9,-1
 480 555 l 1,10,-1
 320 509 l 1,11,-1
 426 377 l 1,12,-1
 350 324 l 1,13,-1
 256 464 l 1,14,-1
 163 324 l 1,0,-1
EndSplineSet
EndChar

StartChar: dagger
Encoding: 8224 8224 125
Width: 540
GlyphClass: 1
Flags: W
LayerCount: 2
Fore
SplineSet
223 -200 m 1,0,-1
 223 433 l 1,1,-1
 40 433 l 1,2,-1
 40 516 l 1,3,-1
 223 516 l 1,4,-1
 223 740 l 1,5,-1
 317 740 l 1,6,-1
 317 516 l 1,7,-1
 500 516 l 1,8,-1
 500 433 l 1,9,-1
 317 433 l 1,10,-1
 317 -200 l 1,11,-1
 223 -200 l 1,0,-1
EndSplineSet
EndChar

StartChar: daggerdbl
Encoding: 8225 8225 126
Width: 548
GlyphClass: 1
Flags: W
LayerCount: 2
Fore
SplineSet
227 -200 m 1,0,-1
 227 24 l 1,1,-1
 44 24 l 1,2,-1
 44 107 l 1,3,-1
 227 107 l 1,4,-1
 227 433 l 1,5,-1
 44 433 l 1,6,-1
 44 516 l 1,7,-1
 227 516 l 1,8,-1
 227 740 l 1,9,-1
 321 740 l 1,10,-1
 321 516 l 1,11,-1
 504 516 l 1,12,-1
 504 433 l 1,13,-1
 321 433 l 1,14,-1
 321 107 l 1,15,-1
 504 107 l 1,16,-1
 504 24 l 1,17,-1
 321 24 l 1,18,-1
 321 -200 l 1,19,-1
 227 -200 l 1,0,-1
EndSplineSet
EndChar

StartChar: numbersign
Encoding: 35 35 127
Width: 678
GlyphClass: 1
Flags: W
LayerCount: 2
Fore
SplineSet
391 191 m 1,0,-1
 233 191 l 1,1,-1
 200 0 l 1,2,-1
 123 0 l 1,3,-1
 156 191 l 1,4,-1
 40 191 l 1,5,-1
 40 264 l 1,6,-1
 169 264 l 1,7,-1
 198 434 l 1,8,-1
 82 434 l 1,9,-1
 82 507 l 1,10,-1
 211 507 l 1,11,-1
 244 698 l 1,12,-1
 320 698 l 1,13,-1
 287 507 l 1,14,-1
 445 507 l 1,15,-1
 478 698 l 1,16,-1
 555 698 l 1,17,-1
 522 507 l 1,18,-1
 638 507 l 1,19,-1
 638 434 l 1,20,-1
 509 434 l 1,21,-1
 480 264 l 1,22,-1
 596 264 l 1,23,-1
 596 191 l 1,24,-1
 467 191 l 1,25,-1
 434 0 l 1,26,-1
 358 0 l 1,27,-1
 391 191 l 1,0,-1
403 264 m 1,28,-1
 433 434 l 1,29,-1
 275 434 l 1,30,-1
 245 264 l 1,31,-1
 403 264 l 1,28,-1
EndSplineSet
EndChar

StartChar: asciicircum
Encoding: 94 94 128
Width: 600
GlyphClass: 1
Flags: W
LayerCount: 2
Fore
SplineSet
467 288 m 1,0,-1
 300 587 l 1,1,-1
 295 587 l 1,2,-1
 129 288 l 1,3,-1
 47 331 l 1,4,-1
 250 698 l 1,5,-1
 350 698 l 1,6,-1
 553 331 l 1,7,-1
 467 288 l 1,0,-1
EndSplineSet
EndChar

StartChar: asciitilde
Encoding: 126 126 129
Width: 600
GlyphClass: 1
Flags: W
LayerCount: 2
Fore
SplineSet
418 226 m 0,0,1
 381 226 381 226 352.5 235.5 c 128,-1,2
 324 245 324 245 290 262 c 0,3,4
 262 276 262 276 235.5 286 c 128,-1,5
 209 296 209 296 178 296 c 0,6,7
 155 296 155 296 137.5 289 c 128,-1,8
 120 282 120 282 97 266 c 1,9,-1
 58 327 l 1,10,11
 77 353 77 353 106 369 c 128,-1,12
 135 385 135 385 182 385 c 0,13,14
 219 385 219 385 247.5 375.5 c 128,-1,15
 276 366 276 366 310 349 c 0,16,17
 338 335 338 335 364.5 325 c 128,-1,18
 391 315 391 315 422 315 c 0,19,20
 445 315 445 315 462.5 322 c 128,-1,21
 480 329 480 329 503 345 c 1,22,-1
 542 284 l 1,23,24
 523 258 523 258 494 242 c 128,-1,25
 465 226 465 226 418 226 c 0,0,1
EndSplineSet
EndChar

StartChar: plus
Encoding: 43 43 130
Width: 600
GlyphClass: 1
Flags: W
LayerCount: 2
Fore
SplineSet
251 63 m 1,0,-1
 251 261 l 1,1,-1
 67 261 l 1,2,-1
 67 350 l 1,3,-1
 251 350 l 1,4,-1
 251 548 l 1,5,-1
 349 548 l 1,6,-1
 349 350 l 1,7,-1
 533 350 l 1,8,-1
 533 261 l 1,9,-1
 349 261 l 1,10,-1
 349 63 l 1,11,-1
 251 63 l 1,0,-1
EndSplineSet
EndChar

StartChar: minus
Encoding: 8722 8722 131
Width: 600
GlyphClass: 1
Flags: W
LayerCount: 2
Fore
SplineSet
67 261 m 1,0,-1
 67 350 l 1,1,-1
 533 350 l 1,2,-1
 533 261 l 1,3,-1
 67 261 l 1,0,-1
EndSplineSet
EndChar

StartChar: plusminus
Encoding: 177 177 132
Width: 600
GlyphClass: 1
Flags: W
LayerCount: 2
Fore
SplineSet
251 167 m 1,0,-1
 251 351 l 1,1,-1
 67 351 l 1,2,-1
 67 440 l 1,3,-1
 251 440 l 1,4,-1
 251 625 l 1,5,-1
 349 625 l 1,6,-1
 349 440 l 1,7,-1
 533 440 l 1,8,-1
 533 351 l 1,9,-1
 349 351 l 1,10,-1
 349 167 l 1,11,-1
 251 167 l 1,0,-1
67 0 m 1,12,-1
 67 89 l 1,13,-1
 533 89 l 1,14,-1
 533 0 l 1,15,-1
 67 0 l 1,12,-1
EndSplineSet
EndChar

StartChar: multiply
Encoding: 215 215 133
Width: 600
GlyphClass: 1
Flags: W
LayerCount: 2
Fore
SplineSet
300 238 m 1,0,-1
 150 83 l 1,1,-1
 86 146 l 1,2,-1
 237 302 l 1,3,-1
 86 458 l 1,4,-1
 150 521 l 1,5,-1
 300 366 l 1,6,-1
 450 521 l 1,7,-1
 514 458 l 1,8,-1
 363 302 l 1,9,-1
 514 146 l 1,10,-1
 450 83 l 1,11,-1
 300 238 l 1,0,-1
EndSplineSet
EndChar

StartChar: divide
Encoding: 247 247 134
Width: 600
GlyphClass: 1
Flags: W
LayerCount: 2
Fore
SplineSet
67 261 m 1,0,-1
 67 350 l 1,1,-1
 533 350 l 1,2,-1
 533 261 l 1,3,-1
 67 261 l 1,0,-1
300 42 m 256,4,5
 260 42 260 42 243.5 59 c 128,-1,6
 227 76 227 76 227 99 c 2,7,-1
 227 122 l 2,8,9
 227 145 227 145 243.5 162 c 128,-1,10
 260 179 260 179 300 179 c 256,11,12
 340 179 340 179 356.5 162 c 128,-1,13
 373 145 373 145 373 122 c 2,14,-1
 373 99 l 2,15,16
 373 76 373 76 356.5 59 c 128,-1,17
 340 42 340 42 300 42 c 256,4,5
300 431 m 256,18,19
 260 431 260 431 243.5 448 c 128,-1,20
 227 465 227 465 227 488 c 2,21,-1
 227 511 l 2,22,23
 227 534 227 534 243.5 551 c 128,-1,24
 260 568 260 568 300 568 c 256,25,26
 340 568 340 568 356.5 551 c 128,-1,27
 373 534 373 534 373 511 c 2,28,-1
 373 488 l 2,29,30
 373 465 373 465 356.5 448 c 128,-1,31
 340 431 340 431 300 431 c 256,18,19
EndSplineSet
EndChar

StartChar: equal
Encoding: 61 61 135
Width: 600
GlyphClass: 1
Flags: W
LayerCount: 2
Fore
SplineSet
67 368 m 1,0,-1
 67 457 l 1,1,-1
 533 457 l 1,2,-1
 533 368 l 1,3,-1
 67 368 l 1,0,-1
67 154 m 1,4,-1
 67 243 l 1,5,-1
 533 243 l 1,6,-1
 533 154 l 1,7,-1
 67 154 l 1,4,-1
EndSplineSet
EndChar

StartChar: notequal
Encoding: 8800 8800 137
Width: 600
GlyphClass: 1
Flags: W
LayerCount: 2
Fore
SplineSet
120 56 m 1,0,-1
 171 151 l 1,1,-1
 67 151 l 1,2,-1
 67 240 l 1,3,-1
 218 240 l 1,4,-1
 287 371 l 1,5,-1
 67 371 l 1,6,-1
 67 460 l 1,7,-1
 335 460 l 1,8,-1
 385 555 l 1,9,-1
 480 555 l 1,10,-1
 429 460 l 1,11,-1
 533 460 l 1,12,-1
 533 371 l 1,13,-1
 381 371 l 1,14,-1
 312 240 l 1,15,-1
 533 240 l 1,16,-1
 533 151 l 1,17,-1
 265 151 l 1,18,-1
 215 56 l 1,19,-1
 120 56 l 1,0,-1
EndSplineSet
EndChar

StartChar: less
Encoding: 60 60 138
Width: 600
GlyphClass: 1
Flags: W
LayerCount: 2
Fore
SplineSet
96 246 m 1,0,-1
 96 328 l 1,1,-1
 504 582 l 1,2,-1
 504 470 l 1,3,-1
 205 291 l 1,4,-1
 205 284 l 1,5,-1
 504 104 l 1,6,-1
 504 -8 l 1,7,-1
 96 246 l 1,0,-1
EndSplineSet
EndChar

StartChar: greater
Encoding: 62 62 139
Width: 600
GlyphClass: 1
Flags: W
LayerCount: 2
Fore
SplineSet
96 104 m 1,0,-1
 395 284 l 1,1,-1
 395 291 l 1,2,-1
 96 470 l 1,3,-1
 96 582 l 1,4,-1
 504 328 l 1,5,-1
 504 246 l 1,6,-1
 96 -8 l 1,7,-1
 96 104 l 1,0,-1
EndSplineSet
EndChar

StartChar: lessequal
Encoding: 8804 8804 140
Width: 600
GlyphClass: 1
Flags: W
LayerCount: 2
Fore
SplineSet
96 0 m 1,0,-1
 96 89 l 1,1,-1
 504 89 l 1,2,-1
 504 0 l 1,3,-1
 96 0 l 1,0,-1
504 494 m 1,4,-1
 214 367 l 1,5,-1
 214 361 l 1,6,-1
 504 236 l 1,7,-1
 504 131 l 1,8,-1
 96 320 l 1,9,-1
 96 408 l 1,10,-1
 504 599 l 1,11,-1
 504 494 l 1,4,-1
EndSplineSet
EndChar

StartChar: greaterequal
Encoding: 8805 8805 141
Width: 600
GlyphClass: 1
Flags: W
LayerCount: 2
Fore
SplineSet
96 236 m 1,0,-1
 386 361 l 1,1,-1
 386 367 l 1,2,-1
 96 494 l 1,3,-1
 96 599 l 1,4,-1
 504 408 l 1,5,-1
 504 320 l 1,6,-1
 96 131 l 1,7,-1
 96 236 l 1,0,-1
96 89 m 1,8,-1
 504 89 l 1,9,-1
 504 0 l 1,10,-1
 96 0 l 1,11,-1
 96 89 l 1,8,-1
EndSplineSet
EndChar

StartChar: periodcentered
Encoding: 183 183 142
Width: 356
GlyphClass: 1
Flags: W
LayerCount: 2
Fore
SplineSet
178 224 m 256,0,1
 136 224 136 224 117 243.5 c 128,-1,2
 98 263 98 263 98 292 c 2,3,-1
 98 316 l 2,4,5
 98 345 98 345 117 364.5 c 128,-1,6
 136 384 136 384 178 384 c 256,7,8
 220 384 220 384 239 364.5 c 128,-1,9
 258 345 258 345 258 316 c 2,10,-1
 258 292 l 2,11,12
 258 263 258 263 239 243.5 c 128,-1,13
 220 224 220 224 178 224 c 256,0,1
EndSplineSet
EndChar

StartChar: bullet
Encoding: 8226 8226 144
Width: 410
GlyphClass: 1
Flags: W
LayerCount: 2
Fore
SplineSet
205 165 m 0,0,1
 168 165 168 165 142.5 174 c 128,-1,2
 117 183 117 183 101 198.5 c 128,-1,3
 85 214 85 214 77.5 235 c 128,-1,4
 70 256 70 256 70 281 c 2,5,-1
 70 312 l 2,6,7
 70 337 70 337 77.5 358 c 128,-1,8
 85 379 85 379 101 394.5 c 128,-1,9
 117 410 117 410 142.5 419 c 128,-1,10
 168 428 168 428 205 428 c 256,11,12
 242 428 242 428 267.5 419 c 128,-1,13
 293 410 293 410 309 394.5 c 128,-1,14
 325 379 325 379 332.5 358 c 128,-1,15
 340 337 340 337 340 312 c 2,16,-1
 340 281 l 2,17,18
 340 231 340 231 309 198 c 128,-1,19
 278 165 278 165 205 165 c 0,0,1
EndSplineSet
EndChar

StartChar: lozenge
Encoding: 9674 9674 145
Width: 600
GlyphClass: 1
Flags: W
LayerCount: 2
Fore
SplineSet
260 0 m 1,0,-1
 50 349 l 1,1,-1
 260 698 l 1,2,-1
 340 698 l 1,3,-1
 550 349 l 1,4,-1
 340 0 l 1,5,-1
 260 0 l 1,0,-1
303 104 m 1,6,-1
 446 349 l 1,7,-1
 303 594 l 1,8,-1
 297 594 l 1,9,-1
 154 349 l 1,10,-1
 297 104 l 1,11,-1
 303 104 l 1,6,-1
EndSplineSet
EndChar

StartChar: logicalnot
Encoding: 172 172 146
Width: 600
GlyphClass: 1
Flags: W
LayerCount: 2
Fore
SplineSet
442 78 m 1,0,-1
 442 261 l 1,1,-1
 45 261 l 1,2,-1
 45 350 l 1,3,-1
 533 350 l 1,4,-1
 533 78 l 1,5,-1
 442 78 l 1,0,-1
EndSplineSet
EndChar

StartChar: radical
Encoding: 8730 8730 147
Width: 600
GlyphClass: 1
Flags: W
LayerCount: 2
Fore
SplineSet
234 0 m 1,0,-1
 113 431 l 1,1,-1
 23 431 l 1,2,-1
 23 520 l 1,3,-1
 189 520 l 1,4,-1
 241 328 l 1,5,-1
 303 91 l 1,6,-1
 309 91 l 1,7,-1
 373 328 l 1,8,-1
 478 698 l 1,9,-1
 576 698 l 1,10,-1
 374 0 l 1,11,-1
 234 0 l 1,0,-1
EndSplineSet
EndChar

StartChar: integral
Encoding: 8747 8747 148
Width: 437
GlyphClass: 1
Flags: W
LayerCount: 2
Fore
SplineSet
44 -111 m 1,0,-1
 164 -111 l 1,1,-1
 164 609 l 2,2,3
 164 668 164 668 196 704 c 128,-1,4
 228 740 228 740 296 740 c 2,5,-1
 393 740 l 1,6,-1
 393 651 l 1,7,-1
 273 651 l 1,8,-1
 273 -69 l 2,9,10
 273 -128 273 -128 241 -164 c 128,-1,11
 209 -200 209 -200 141 -200 c 2,12,-1
 44 -200 l 1,13,-1
 44 -111 l 1,0,-1
EndSplineSet
EndChar

StartChar: infinity
Encoding: 8734 8734 149
Width: 762
GlyphClass: 1
Flags: W
LayerCount: 2
Fore
SplineSet
206 102 m 0,0,1
 162 102 162 102 127.5 116 c 128,-1,2
 93 130 93 130 68.5 156 c 128,-1,3
 44 182 44 182 31 218.5 c 128,-1,4
 18 255 18 255 18 299 c 256,5,6
 18 343 18 343 31 379.5 c 128,-1,7
 44 416 44 416 68.5 442 c 128,-1,8
 93 468 93 468 127.5 482 c 128,-1,9
 162 496 162 496 206 496 c 0,10,11
 280 496 280 496 327.5 463 c 128,-1,12
 375 430 375 430 400 358 c 1,13,-1
 405 358 l 1,14,15
 416 426 416 426 459 461 c 128,-1,16
 502 496 502 496 556 496 c 0,17,18
 599 496 599 496 634 482 c 128,-1,19
 669 468 669 468 693.5 442 c 128,-1,20
 718 416 718 416 731 379.5 c 128,-1,21
 744 343 744 343 744 299 c 256,22,23
 744 255 744 255 731 218.5 c 128,-1,24
 718 182 718 182 693.5 156 c 128,-1,25
 669 130 669 130 634 116 c 128,-1,26
 599 102 599 102 556 102 c 0,27,28
 482 102 482 102 434.5 135 c 128,-1,29
 387 168 387 168 362 240 c 1,30,-1
 357 240 l 1,31,32
 346 172 346 172 303 137 c 128,-1,33
 260 102 260 102 206 102 c 0,0,1
206 189 m 0,34,35
 253 189 253 189 286 215.5 c 128,-1,36
 319 242 319 242 334 293 c 1,37,38
 317 348 317 348 285 378.5 c 128,-1,39
 253 409 253 409 206 409 c 0,40,41
 167 409 167 409 143.5 384.5 c 128,-1,42
 120 360 120 360 120 318 c 2,43,-1
 120 280 l 2,44,45
 120 238 120 238 143.5 213.5 c 128,-1,46
 167 189 167 189 206 189 c 0,34,35
556 189 m 0,47,48
 595 189 595 189 618.5 213.5 c 128,-1,49
 642 238 642 238 642 280 c 2,50,-1
 642 318 l 2,51,52
 642 360 642 360 618.5 384.5 c 128,-1,53
 595 409 595 409 556 409 c 0,54,55
 509 409 509 409 476 382.5 c 128,-1,56
 443 356 443 356 428 305 c 1,57,58
 445 250 445 250 477 219.5 c 128,-1,59
 509 189 509 189 556 189 c 0,47,48
EndSplineSet
EndChar

StartChar: uni212E
Encoding: 8494 8494 150
Width: 720
GlyphClass: 1
Flags: W
LayerCount: 2
Fore
SplineSet
194 100 m 1,0,1
 224 75 224 75 265 59 c 128,-1,2
 306 43 306 43 360 43 c 0,3,4
 450 43 450 43 509 84 c 128,-1,5
 568 125 568 125 604 192 c 1,6,-1
 654 164 l 1,7,8
 634 126 634 126 605.5 94 c 128,-1,9
 577 62 577 62 540.5 38.5 c 128,-1,10
 504 15 504 15 458.5 1.5 c 128,-1,11
 413 -12 413 -12 360 -12 c 0,12,13
 289 -12 289 -12 229.5 13.5 c 128,-1,14
 170 39 170 39 126 86 c 128,-1,15
 82 133 82 133 57.5 199.5 c 128,-1,16
 33 266 33 266 33 349 c 0,17,18
 33 431 33 431 57.5 498 c 128,-1,19
 82 565 82 565 126 612 c 128,-1,20
 170 659 170 659 229.5 684.5 c 128,-1,21
 289 710 289 710 360 710 c 0,22,23
 430 710 430 710 490 684.5 c 128,-1,24
 550 659 550 659 594 612 c 128,-1,25
 638 565 638 565 662.5 498 c 128,-1,26
 687 431 687 431 687 349 c 1,27,-1
 194 349 l 1,28,-1
 194 100 l 1,0,1
526 401 m 1,29,-1
 526 601 l 1,30,31
 496 626 496 626 455 642 c 128,-1,32
 414 658 414 658 360 658 c 256,33,34
 306 658 306 658 265 642 c 128,-1,35
 224 626 224 626 194 601 c 1,36,-1
 194 401 l 1,37,-1
 526 401 l 1,29,-1
EndSplineSet
EndChar

StartChar: uni2113
Encoding: 8467 8467 151
Width: 516
GlyphClass: 1
Flags: W
LayerCount: 2
Fore
SplineSet
290 -12 m 0,0,1
 213 -12 213 -12 167 34.5 c 128,-1,2
 121 81 121 81 121 159 c 2,3,-1
 121 167 l 1,4,5
 111 159 111 159 97 149.5 c 128,-1,6
 83 140 83 140 72 133 c 1,7,-1
 26 208 l 1,8,9
 49 222 49 222 74 238.5 c 128,-1,10
 99 255 99 255 117 269 c 1,11,-1
 117 555 l 2,12,13
 117 610 117 610 129 647.5 c 128,-1,14
 141 685 141 685 162 708 c 128,-1,15
 183 731 183 731 212 741.5 c 128,-1,16
 241 752 241 752 275 752 c 0,17,18
 352 752 352 752 392 706 c 128,-1,19
 432 660 432 660 432 575 c 0,20,21
 432 527 432 527 418.5 483 c 128,-1,22
 405 439 405 439 378.5 396.5 c 128,-1,23
 352 354 352 354 312.5 312 c 128,-1,24
 273 270 273 270 221 225 c 1,25,-1
 221 182 l 2,26,27
 221 128 221 128 240 105.5 c 128,-1,28
 259 83 259 83 293 83 c 0,29,30
 331 83 331 83 356 109 c 128,-1,31
 381 135 381 135 406 187 c 1,32,-1
 490 141 l 1,33,34
 476 108 476 108 457.5 80 c 128,-1,35
 439 52 439 52 414.5 31.5 c 128,-1,36
 390 11 390 11 359 -0.5 c 128,-1,37
 328 -12 328 -12 290 -12 c 0,0,1
278 657 m 0,38,39
 255 657 255 657 238 636.5 c 128,-1,40
 221 616 221 616 221 561 c 2,41,-1
 221 338 l 1,42,43
 273 391 273 391 302.5 446.5 c 128,-1,44
 332 502 332 502 332 564 c 2,45,-1
 332 578 l 2,46,47
 332 621 332 621 317 639 c 128,-1,48
 302 657 302 657 278 657 c 0,38,39
EndSplineSet
EndChar

StartChar: uni2116
Encoding: 8470 8470 152
Width: 1041
GlyphClass: 1
Flags: W
LayerCount: 2
Fore
SplineSet
837 362 m 256,0,1
 764 362 764 362 719 407.5 c 128,-1,2
 674 453 674 453 674 536 c 256,3,4
 674 619 674 619 719 664.5 c 128,-1,5
 764 710 764 710 837 710 c 256,6,7
 910 710 910 710 955 664.5 c 128,-1,8
 1000 619 1000 619 1000 536 c 256,9,10
 1000 453 1000 453 955 407.5 c 128,-1,11
 910 362 910 362 837 362 c 256,0,1
86 0 m 1,12,-1
 86 698 l 1,13,-1
 211 698 l 1,14,-1
 409 329 l 1,15,-1
 492 163 l 1,16,-1
 495 163 l 1,17,-1
 495 698 l 1,18,-1
 601 698 l 1,19,-1
 601 0 l 1,20,-1
 475 0 l 1,21,-1
 269 377 l 1,22,-1
 194 530 l 1,23,-1
 191 530 l 1,24,-1
 191 0 l 1,25,-1
 86 0 l 1,12,-1
837 430 m 256,26,27
 873 430 873 430 894 451.5 c 128,-1,28
 915 473 915 473 915 510 c 2,29,-1
 915 562 l 2,30,31
 915 599 915 599 894 620.5 c 128,-1,32
 873 642 873 642 837 642 c 256,33,34
 801 642 801 642 780 620.5 c 128,-1,35
 759 599 759 599 759 562 c 2,36,-1
 759 510 l 2,37,38
 759 473 759 473 780 451.5 c 128,-1,39
 801 430 801 430 837 430 c 256,26,27
690 232 m 1,40,-1
 690 304 l 1,41,-1
 984 304 l 1,42,-1
 984 232 l 1,43,-1
 690 232 l 1,40,-1
EndSplineSet
EndChar

StartChar: partialdiff
Encoding: 8706 8706 153
Width: 589
GlyphClass: 1
Flags: W
LayerCount: 2
Fore
SplineSet
534 271 m 0,0,1
 534 199 534 199 517 145.5 c 128,-1,2
 500 92 500 92 468.5 57 c 128,-1,3
 437 22 437 22 393 5 c 128,-1,4
 349 -12 349 -12 295 -12 c 0,5,6
 238 -12 238 -12 193 6.5 c 128,-1,7
 148 25 148 25 116.5 59 c 128,-1,8
 85 93 85 93 68.5 141.5 c 128,-1,9
 52 190 52 190 52 250 c 0,10,11
 52 307 52 307 67 354 c 128,-1,12
 82 401 82 401 109 434.5 c 128,-1,13
 136 468 136 468 175 486 c 128,-1,14
 214 504 214 504 262 504 c 256,15,16
 310 504 310 504 343 484.5 c 128,-1,17
 376 465 376 465 399 431 c 1,18,-1
 405 433 l 1,19,20
 392 471 392 471 365 506.5 c 128,-1,21
 338 542 338 542 301 575 c 128,-1,22
 264 608 264 608 217.5 639 c 128,-1,23
 171 670 171 670 119 698 c 1,24,-1
 284 698 l 1,25,26
 323 674 323 674 367 637.5 c 128,-1,27
 411 601 411 601 448 549.5 c 128,-1,28
 485 498 485 498 509.5 429.5 c 128,-1,29
 534 361 534 361 534 271 c 0,0,1
293 75 m 256,30,31
 351 75 351 75 385 110 c 128,-1,32
 419 145 419 145 419 214 c 2,33,-1
 419 278 l 2,34,35
 419 347 419 347 385 382 c 128,-1,36
 351 417 351 417 293 417 c 256,37,38
 235 417 235 417 201 382 c 128,-1,39
 167 347 167 347 167 278 c 2,40,-1
 167 214 l 2,41,42
 167 145 167 145 201 110 c 128,-1,43
 235 75 235 75 293 75 c 256,30,31
EndSplineSet
EndChar

StartChar: currency
Encoding: 164 164 154
Width: 620
GlyphClass: 1
Flags: W
LayerCount: 2
Fore
SplineSet
310 114 m 256,0,1
 269 114 269 114 234.5 124 c 128,-1,2
 200 134 200 134 174 152 c 1,3,-1
 77 55 l 1,4,-1
 15 116 l 1,5,-1
 114 215 l 1,6,7
 82 271 82 271 82 349 c 256,8,9
 82 427 82 427 114 483 c 1,10,-1
 15 582 l 1,11,-1
 77 643 l 1,12,-1
 174 546 l 1,13,14
 200 564 200 564 234.5 574 c 128,-1,15
 269 584 269 584 310 584 c 256,16,17
 351 584 351 584 385.5 574 c 128,-1,18
 420 564 420 564 446 546 c 1,19,-1
 543 643 l 1,20,-1
 605 582 l 1,21,-1
 506 483 l 1,22,23
 538 427 538 427 538 349 c 256,24,25
 538 271 538 271 506 215 c 1,26,-1
 605 116 l 1,27,-1
 543 55 l 1,28,-1
 446 152 l 1,29,30
 420 134 420 134 385.5 124 c 128,-1,31
 351 114 351 114 310 114 c 256,0,1
310 198 m 256,32,33
 364 198 364 198 395 228.5 c 128,-1,34
 426 259 426 259 426 319 c 2,35,-1
 426 379 l 2,36,37
 426 439 426 439 395 469.5 c 128,-1,38
 364 500 364 500 310 500 c 256,39,40
 256 500 256 500 225 469.5 c 128,-1,41
 194 439 194 439 194 379 c 2,42,-1
 194 319 l 2,43,44
 194 259 194 259 225 228.5 c 128,-1,45
 256 198 256 198 310 198 c 256,32,33
EndSplineSet
EndChar

StartChar: cent
Encoding: 162 162 155
Width: 529
GlyphClass: 1
Flags: W
LayerCount: 2
Fore
SplineSet
235 -114 m 1,0,-1
 235 -8 l 1,1,2
 144 7 144 7 94 77 c 128,-1,3
 44 147 44 147 44 258 c 0,4,5
 44 370 44 370 94 440 c 128,-1,6
 144 510 144 510 235 524 c 1,7,-1
 235 630 l 1,8,-1
 322 630 l 1,9,-1
 322 526 l 1,10,11
 384 518 384 518 424 486 c 128,-1,12
 464 454 464 454 485 406 c 1,13,-1
 403 361 l 1,14,15
 391 390 391 390 369.5 410 c 128,-1,16
 348 430 348 430 317 437 c 1,17,-1
 317 79 l 1,18,19
 350 85 350 85 374.5 106 c 128,-1,20
 399 127 399 127 414 159 c 1,21,-1
 492 111 l 1,22,23
 470 62 470 62 427.5 29.5 c 128,-1,24
 385 -3 385 -3 322 -10 c 1,25,-1
 322 -114 l 1,26,-1
 235 -114 l 1,0,-1
153 215 m 2,27,28
 153 165 153 165 174.5 129 c 128,-1,29
 196 93 196 93 240 81 c 1,30,-1
 240 435 l 1,31,32
 197 423 197 423 175 387.5 c 128,-1,33
 153 352 153 352 153 301 c 2,34,-1
 153 215 l 2,27,28
EndSplineSet
EndChar

StartChar: Euro
Encoding: 8364 8364 156
Width: 627
GlyphClass: 1
Flags: W
LayerCount: 2
Fore
SplineSet
347 -12 m 0,0,1
 280 -12 280 -12 226 11.5 c 128,-1,2
 172 35 172 35 134 81.5 c 128,-1,3
 96 128 96 128 75.5 195 c 128,-1,4
 55 262 55 262 55 349 c 256,5,6
 55 436 55 436 75.5 503 c 128,-1,7
 96 570 96 570 134 616 c 128,-1,8
 172 662 172 662 226 686 c 128,-1,9
 280 710 280 710 347 710 c 0,10,11
 439 710 439 710 494 671 c 128,-1,12
 549 632 549 632 582 571 c 1,13,-1
 498 514 l 1,14,15
 477 562 477 562 439.5 589 c 128,-1,16
 402 616 402 616 347 616 c 0,17,18
 280 616 280 616 236.5 576 c 128,-1,19
 193 536 193 536 179 469 c 1,20,-1
 423 469 l 1,21,-1
 423 392 l 1,22,-1
 174 392 l 1,23,-1
 174 306 l 1,24,-1
 423 306 l 1,25,-1
 423 229 l 1,26,-1
 179 229 l 1,27,28
 193 160 193 160 236.5 121 c 128,-1,29
 280 82 280 82 347 82 c 0,30,31
 404 82 404 82 443 111 c 128,-1,32
 482 140 482 140 505 191 c 1,33,-1
 589 132 l 1,34,35
 574 103 574 103 552.5 76.5 c 128,-1,36
 531 50 531 50 501.5 30.5 c 128,-1,37
 472 11 472 11 434 -0.5 c 128,-1,38
 396 -12 396 -12 347 -12 c 0,0,1
EndSplineSet
EndChar

StartChar: florin
Encoding: 402 402 157
Width: 484
GlyphClass: 1
Flags: W
LayerCount: 2
Fore
SplineSet
9 -45 m 1,0,-1
 141 -45 l 1,1,-1
 174 280 l 1,2,-1
 47 280 l 1,3,-1
 57 373 l 1,4,-1
 183 373 l 1,5,-1
 203 565 l 2,6,7
 209 624 209 624 245 661 c 128,-1,8
 281 698 281 698 349 698 c 2,9,-1
 465 698 l 1,10,-1
 455 609 l 1,11,-1
 317 609 l 1,12,-1
 292 373 l 1,13,-1
 443 373 l 1,14,-1
 434 280 l 1,15,-1
 283 280 l 1,16,-1
 255 -2 l 2,17,18
 249 -60 249 -60 213 -97 c 128,-1,19
 177 -134 177 -134 109 -134 c 2,20,-1
 0 -134 l 1,21,-1
 9 -45 l 1,0,-1
EndSplineSet
EndChar

StartChar: sterling
Encoding: 163 163 158
Width: 589
GlyphClass: 1
Flags: W
LayerCount: 2
Fore
SplineSet
75 0 m 1,0,-1
 75 115 l 1,1,2
 116 133 116 133 134 168.5 c 128,-1,3
 152 204 152 204 152 246 c 0,4,5
 152 257 152 257 151 267.5 c 128,-1,6
 150 278 150 278 148 288 c 1,7,-1
 49 288 l 1,8,-1
 49 379 l 1,9,-1
 117 379 l 1,10,11
 108 408 108 408 100 437.5 c 128,-1,12
 92 467 92 467 92 502 c 0,13,14
 92 548 92 548 108.5 586.5 c 128,-1,15
 125 625 125 625 156 652.5 c 128,-1,16
 187 680 187 680 231 695 c 128,-1,17
 275 710 275 710 331 710 c 0,18,19
 409 710 409 710 463.5 680 c 128,-1,20
 518 650 518 650 554 593 c 1,21,-1
 471 534 l 1,22,23
 445 572 445 572 411.5 592 c 128,-1,24
 378 612 378 612 331 612 c 0,25,26
 272 612 272 612 239.5 580.5 c 128,-1,27
 207 549 207 549 207 487 c 0,28,29
 207 456 207 456 214 430.5 c 128,-1,30
 221 405 221 405 229 379 c 1,31,-1
 437 379 l 1,32,-1
 437 288 l 1,33,-1
 259 288 l 1,34,35
 262 271 262 271 262 253 c 0,36,37
 262 198 262 198 238.5 159.5 c 128,-1,38
 215 121 215 121 186 104 c 1,39,-1
 186 98 l 1,40,-1
 537 98 l 1,41,-1
 537 0 l 1,42,-1
 75 0 l 1,0,-1
EndSplineSet
EndChar

StartChar: dollar
Encoding: 36 36 159
Width: 599
GlyphClass: 1
Flags: W
LayerCount: 2
Fore
SplineSet
261 -82 m 1,0,-1
 261 4 l 1,1,2
 185 10 185 10 133 41 c 128,-1,3
 81 72 81 72 43 117 c 1,4,-1
 116 183 l 1,5,6
 147 145 147 145 183.5 122 c 128,-1,7
 220 99 220 99 268 93 c 1,8,-1
 268 317 l 1,9,10
 160 340 160 340 112 386.5 c 128,-1,11
 64 433 64 433 64 509 c 0,12,13
 64 589 64 589 117 636 c 128,-1,14
 170 683 170 683 261 693 c 1,15,-1
 261 780 l 1,16,-1
 346 780 l 1,17,-1
 346 693 l 1,18,19
 410 687 410 687 457.5 661 c 128,-1,20
 505 635 505 635 540 590 c 1,21,-1
 466 529 l 1,22,23
 444 558 444 558 413.5 577.5 c 128,-1,24
 383 597 383 597 340 604 c 1,25,-1
 340 399 l 1,26,27
 399 386 399 386 438 368 c 128,-1,28
 477 350 477 350 501.5 327.5 c 128,-1,29
 526 305 526 305 537 275.5 c 128,-1,30
 548 246 548 246 548 207 c 0,31,32
 548 126 548 126 495.5 72 c 128,-1,33
 443 18 443 18 346 6 c 1,34,-1
 346 -82 l 1,35,-1
 261 -82 l 1,0,-1
443 200 m 0,36,37
 443 238 443 238 421 262.5 c 128,-1,38
 399 287 399 287 340 302 c 1,39,-1
 340 94 l 1,40,41
 389 102 389 102 416 130 c 128,-1,42
 443 158 443 158 443 200 c 0,36,37
168 514 m 0,43,44
 168 472 168 472 192.5 450.5 c 128,-1,45
 217 429 217 429 268 415 c 1,46,-1
 268 605 l 1,47,48
 220 598 220 598 194 575 c 128,-1,49
 168 552 168 552 168 514 c 0,43,44
EndSplineSet
EndChar

StartChar: yen
Encoding: 165 165 160
Width: 622
GlyphClass: 1
Flags: W
LayerCount: 2
Fore
SplineSet
368 140 m 1,0,-1
 368 0 l 1,1,-1
 255 0 l 1,2,-1
 255 140 l 1,3,-1
 83 140 l 1,4,-1
 83 217 l 1,5,-1
 255 217 l 1,6,-1
 255 301 l 1,7,-1
 83 301 l 1,8,-1
 83 378 l 1,9,-1
 208 378 l 1,10,-1
 28 698 l 1,11,-1
 156 698 l 1,12,-1
 315 400 l 1,13,-1
 319 400 l 1,14,-1
 473 698 l 1,15,-1
 595 698 l 1,16,-1
 416 378 l 1,17,-1
 540 378 l 1,18,-1
 540 301 l 1,19,-1
 368 301 l 1,20,-1
 368 217 l 1,21,-1
 540 217 l 1,22,-1
 540 140 l 1,23,-1
 368 140 l 1,0,-1
EndSplineSet
EndChar

StartChar: uni0E3F
Encoding: 3647 3647 161
Width: 652
GlyphClass: 1
Flags: W
LayerCount: 2
Fore
SplineSet
365 -85 m 1,0,-1
 280 -85 l 1,1,-1
 280 21 l 1,2,-1
 86 21 l 1,3,-1
 86 677 l 1,4,-1
 280 677 l 1,5,-1
 280 780 l 1,6,-1
 365 780 l 1,7,-1
 365 677 l 1,8,-1
 394 677 l 2,9,10
 479 677 479 677 526.5 631 c 128,-1,11
 574 585 574 585 574 508 c 0,12,13
 574 441 574 441 541 408.5 c 128,-1,14
 508 376 508 376 453 368 c 1,15,-1
 453 362 l 1,16,17
 480 359 480 359 506.5 350 c 128,-1,18
 533 341 533 341 553.5 323.5 c 128,-1,19
 574 306 574 306 586.5 278 c 128,-1,20
 599 250 599 250 599 210 c 256,21,22
 599 170 599 170 585.5 135.5 c 128,-1,23
 572 101 572 101 548.5 75.5 c 128,-1,24
 525 50 525 50 492.5 35.5 c 128,-1,25
 460 21 460 21 423 21 c 2,26,-1
 365 21 l 1,27,-1
 365 -85 l 1,0,-1
285 399 m 1,28,-1
 285 583 l 1,29,-1
 194 583 l 1,30,-1
 194 399 l 1,31,-1
 285 399 l 1,28,-1
360 399 m 1,32,-1
 380 399 l 2,33,34
 461 399 461 399 461 475 c 2,35,-1
 461 507 l 2,36,37
 461 583 461 583 380 583 c 2,38,-1
 360 583 l 1,39,-1
 360 399 l 1,32,-1
285 115 m 1,40,-1
 285 310 l 1,41,-1
 194 310 l 1,42,-1
 194 115 l 1,43,-1
 285 115 l 1,40,-1
360 115 m 1,44,-1
 393 115 l 2,45,46
 436 115 436 115 461 135 c 128,-1,47
 486 155 486 155 486 196 c 2,48,-1
 486 229 l 2,49,50
 486 270 486 270 461 290 c 128,-1,51
 436 310 436 310 393 310 c 2,52,-1
 360 310 l 1,53,-1
 360 115 l 1,44,-1
EndSplineSet
EndChar

StartChar: uni20A1
Encoding: 8353 8353 162
Width: 623
GlyphClass: 1
Flags: W
LayerCount: 2
Fore
SplineSet
319 3 m 1,0,1
 306 4 306 4 294.5 6 c 128,-1,2
 283 8 283 8 272 10 c 1,3,-1
 262 -82 l 1,4,-1
 193 -82 l 1,5,-1
 205 33 l 1,6,7
 134 69 134 69 94.5 148.5 c 128,-1,8
 55 228 55 228 55 348 c 0,9,10
 55 494 55 494 112.5 580 c 128,-1,11
 170 666 170 666 273 688 c 1,12,-1
 283 780 l 1,13,-1
 351 780 l 1,14,-1
 342 696 l 1,15,-1
 349 696 l 2,16,17
 371 696 371 696 391 693 c 1,18,-1
 400 780 l 1,19,-1
 468 780 l 1,20,-1
 458 677 l 1,21,22
 500 660 500 660 530 630 c 128,-1,23
 560 600 560 600 583 559 c 1,24,-1
 501 504 l 1,25,26
 490 527 490 527 477 545 c 128,-1,27
 464 563 464 563 445 575 c 1,28,-1
 396 101 l 1,29,30
 434 112 434 112 460.5 137.5 c 128,-1,31
 487 163 487 163 503 201 c 1,32,-1
 585 144 l 1,33,34
 559 93 559 93 511 53.5 c 128,-1,35
 463 14 463 14 387 5 c 1,36,-1
 378 -82 l 1,37,-1
 310 -82 l 1,38,-1
 319 3 l 1,0,1
332 604 m 1,39,-1
 280 106 l 1,40,41
 304 96 304 96 330 95 c 1,42,-1
 382 600 l 1,43,44
 374 602 374 602 364 603 c 128,-1,45
 354 604 354 604 339 604 c 2,46,-1
 332 604 l 1,39,-1
171 292 m 2,47,48
 171 198 171 198 220 147 c 1,49,-1
 264 585 l 1,50,51
 219 564 219 564 195 517.5 c 128,-1,52
 171 471 171 471 171 406 c 2,53,-1
 171 292 l 2,47,48
EndSplineSet
EndChar

StartChar: uni20A4
Encoding: 8356 8356 163
Width: 589
GlyphClass: 1
Flags: W
LayerCount: 2
Fore
SplineSet
537 0 m 1,0,-1
 75 0 l 1,1,-1
 75 112 l 1,2,3
 112 129 112 129 129.5 162 c 128,-1,4
 147 195 147 195 150 233 c 1,5,-1
 49 233 l 1,6,-1
 49 310 l 1,7,-1
 142 310 l 1,8,9
 137 330 137 330 129.5 350 c 128,-1,10
 122 370 122 370 115 390 c 1,11,-1
 49 390 l 1,12,-1
 49 467 l 1,13,-1
 95 467 l 1,14,15
 92 485 92 485 92 502 c 0,16,17
 92 548 92 548 108.5 586.5 c 128,-1,18
 125 625 125 625 156 652.5 c 128,-1,19
 187 680 187 680 231 695 c 128,-1,20
 275 710 275 710 331 710 c 0,21,22
 409 710 409 710 463.5 680 c 128,-1,23
 518 650 518 650 554 593 c 1,24,-1
 471 537 l 1,25,26
 445 575 445 575 411.5 595 c 128,-1,27
 378 615 378 615 331 615 c 0,28,29
 272 615 272 615 239.5 582 c 128,-1,30
 207 549 207 549 207 487 c 0,31,32
 207 482 207 482 207.5 477 c 128,-1,33
 208 472 208 472 208 467 c 1,34,-1
 428 467 l 1,35,-1
 428 390 l 1,36,-1
 227 390 l 1,37,38
 234 370 234 370 241.5 350.5 c 128,-1,39
 249 331 249 331 254 310 c 1,40,-1
 428 310 l 1,41,-1
 428 233 l 1,42,-1
 260 233 l 1,43,44
 255 187 255 187 233.5 152.5 c 128,-1,45
 212 118 212 118 186 101 c 1,46,-1
 186 95 l 1,47,-1
 537 95 l 1,48,-1
 537 0 l 1,0,-1
EndSplineSet
EndChar

StartChar: uni20A6
Encoding: 8358 8358 164
Width: 730
GlyphClass: 1
Flags: W
LayerCount: 2
Fore
SplineSet
370 233 m 1,0,-1
 203 233 l 1,1,-1
 203 0 l 1,2,-1
 99 0 l 1,3,-1
 99 231 l 1,4,-1
 16 231 l 1,5,-1
 16 308 l 1,6,-1
 99 308 l 1,7,-1
 99 392 l 1,8,-1
 16 392 l 1,9,-1
 16 469 l 1,10,-1
 99 469 l 1,11,-1
 99 698 l 1,12,-1
 228 698 l 1,13,-1
 355 467 l 1,14,-1
 528 467 l 1,15,-1
 528 698 l 1,16,-1
 630 698 l 1,17,-1
 630 469 l 1,18,-1
 714 469 l 1,19,-1
 714 392 l 1,20,-1
 630 392 l 1,21,-1
 630 308 l 1,22,-1
 714 308 l 1,23,-1
 714 231 l 1,24,-1
 630 231 l 1,25,-1
 630 0 l 1,26,-1
 499 0 l 1,27,-1
 370 233 l 1,0,-1
335 306 m 1,28,-1
 206 544 l 1,29,-1
 203 544 l 1,30,-1
 203 306 l 1,31,-1
 335 306 l 1,28,-1
525 147 m 1,32,-1
 528 147 l 1,33,-1
 528 394 l 1,34,-1
 391 394 l 1,35,-1
 525 147 l 1,32,-1
EndSplineSet
EndChar

StartChar: uni20A8
Encoding: 8360 8360 165
Width: 790
GlyphClass: 1
Flags: W
LayerCount: 2
Fore
SplineSet
86 0 m 1,0,-1
 86 698 l 1,1,-1
 286 698 l 2,2,3
 379 698 379 698 429 647 c 128,-1,4
 479 596 479 596 479 503 c 0,5,6
 479 440 479 440 455.5 396 c 128,-1,7
 432 352 432 352 385 329 c 1,8,-1
 469 159 l 2,9,10
 491 116 491 116 516 95.5 c 128,-1,11
 541 75 541 75 576 75 c 0,12,13
 609 75 609 75 627.5 89.5 c 128,-1,14
 646 104 646 104 646 130 c 0,15,16
 646 140 646 140 644 148.5 c 128,-1,17
 642 157 642 157 636.5 165.5 c 128,-1,18
 631 174 631 174 622 184 c 128,-1,19
 613 194 613 194 598 208 c 2,20,-1
 579 227 l 2,21,22
 537 266 537 266 519.5 298.5 c 128,-1,23
 502 331 502 331 502 370 c 0,24,25
 502 430 502 430 541.5 466 c 128,-1,26
 581 502 581 502 648 502 c 0,27,28
 677 502 677 502 705 496 c 128,-1,29
 733 490 733 490 759 473 c 1,30,-1
 720 399 l 1,31,32
 706 409 706 409 691 414 c 128,-1,33
 676 419 676 419 657 419 c 0,34,35
 634 419 634 419 619.5 407 c 128,-1,36
 605 395 605 395 605 372 c 0,37,38
 605 350 605 350 618 333.5 c 128,-1,39
 631 317 631 317 657 291 c 2,40,-1
 674 276 l 2,41,42
 695 255 695 255 710 238 c 128,-1,43
 725 221 725 221 734.5 205 c 128,-1,44
 744 189 744 189 748 171.5 c 128,-1,45
 752 154 752 154 752 133 c 0,46,47
 752 102 752 102 741.5 75.5 c 128,-1,48
 731 49 731 49 708.5 29.5 c 128,-1,49
 686 10 686 10 650.5 -1 c 128,-1,50
 615 -12 615 -12 566 -12 c 0,51,52
 498 -12 498 -12 451 14 c 128,-1,53
 404 40 404 40 374 105 c 2,54,-1
 283 301 l 1,55,-1
 197 301 l 1,56,-1
 197 0 l 1,57,-1
 86 0 l 1,0,-1
273 394 m 2,58,59
 316 394 316 394 340.5 414.5 c 128,-1,60
 365 435 365 435 365 477 c 2,61,-1
 365 521 l 2,62,63
 365 563 365 563 340.5 583.5 c 128,-1,64
 316 604 316 604 273 604 c 2,65,-1
 197 604 l 1,66,-1
 197 394 l 1,67,-1
 273 394 l 2,58,59
EndSplineSet
EndChar

StartChar: uni20A9
Encoding: 8361 8361 166
Width: 982
GlyphClass: 1
Flags: W
LayerCount: 2
Fore
SplineSet
574 233 m 1,0,-1
 402 233 l 1,1,-1
 343 0 l 1,2,-1
 217 0 l 1,3,-1
 163 232 l 1,4,-1
 37 232 l 1,5,-1
 37 309 l 1,6,-1
 144 309 l 1,7,-1
 125 392 l 1,8,-1
 37 392 l 1,9,-1
 37 469 l 1,10,-1
 107 469 l 1,11,-1
 53 698 l 1,12,-1
 165 698 l 1,13,-1
 214 467 l 1,14,-1
 371 467 l 1,15,-1
 429 698 l 1,16,-1
 555 698 l 1,17,-1
 611 468 l 1,18,-1
 770 468 l 1,19,-1
 821 698 l 1,20,-1
 931 698 l 1,21,-1
 874 470 l 1,22,-1
 945 470 l 1,23,-1
 945 393 l 1,24,-1
 855 393 l 1,25,-1
 835 309 l 1,26,-1
 945 309 l 1,27,-1
 945 232 l 1,28,-1
 816 232 l 1,29,-1
 758 0 l 1,30,-1
 632 0 l 1,31,-1
 574 233 l 1,0,-1
345 360 m 1,32,-1
 353 394 l 1,33,-1
 229 394 l 1,34,-1
 237 360 l 1,35,-1
 286 128 l 1,36,-1
 289 128 l 1,37,-1
 345 360 l 1,32,-1
696 129 m 1,38,-1
 746 359 l 1,39,-1
 754 395 l 1,40,-1
 629 395 l 1,41,-1
 637 362 l 1,42,-1
 693 129 l 1,43,-1
 696 129 l 1,38,-1
421 306 m 1,44,-1
 556 306 l 1,45,-1
 545 350 l 1,46,-1
 490 578 l 1,47,-1
 488 578 l 1,48,-1
 432 351 l 1,49,-1
 421 306 l 1,44,-1
EndSplineSet
EndChar

StartChar: uni20AA
Encoding: 8362 8362 167
Width: 830
GlyphClass: 1
Flags: W
LayerCount: 2
Fore
SplineSet
271 525 m 1,0,-1
 374 525 l 1,1,-1
 374 93 l 1,2,-1
 551 93 l 2,3,4
 589 93 589 93 615 115.5 c 128,-1,5
 641 138 641 138 641 189 c 2,6,-1
 641 698 l 1,7,-1
 744 698 l 1,8,-1
 744 198 l 2,9,10
 744 98 744 98 692.5 49 c 128,-1,11
 641 0 641 0 560 0 c 2,12,-1
 271 0 l 1,13,-1
 271 525 l 1,0,-1
86 0 m 1,14,-1
 86 698 l 1,15,-1
 377 698 l 2,16,17
 458 698 458 698 508.5 649 c 128,-1,18
 559 600 559 600 559 500 c 2,19,-1
 559 173 l 1,20,-1
 456 173 l 1,21,-1
 456 509 l 2,22,23
 456 560 456 560 431.5 582.5 c 128,-1,24
 407 605 407 605 368 605 c 2,25,-1
 189 605 l 1,26,-1
 189 0 l 1,27,-1
 86 0 l 1,14,-1
EndSplineSet
EndChar

StartChar: uni20AB
Encoding: 8363 8363 168
Width: 577
GlyphClass: 1
Flags: W
LayerCount: 2
Fore
SplineSet
368 222 m 1,0,-1
 364 222 l 1,1,2
 345 186 345 186 312 164 c 128,-1,3
 279 142 279 142 226 142 c 0,4,5
 148 142 148 142 102 193 c 128,-1,6
 56 244 56 244 56 347 c 256,7,8
 56 450 56 450 102 501 c 128,-1,9
 148 552 148 552 226 552 c 0,10,11
 279 552 279 552 312 530 c 128,-1,12
 345 508 345 508 364 472 c 1,13,-1
 368 472 l 1,14,-1
 368 608 l 1,15,-1
 231 608 l 1,16,-1
 231 681 l 1,17,-1
 368 681 l 1,18,-1
 368 740 l 1,19,-1
 475 740 l 1,20,-1
 475 681 l 1,21,-1
 539 681 l 1,22,-1
 539 608 l 1,23,-1
 475 608 l 1,24,-1
 475 151 l 1,25,-1
 368 151 l 1,26,-1
 368 222 l 1,0,-1
268 223 m 0,27,28
 313 223 313 223 340.5 245 c 128,-1,29
 368 267 368 267 368 300 c 2,30,-1
 368 394 l 2,31,32
 368 427 368 427 340.5 449 c 128,-1,33
 313 471 313 471 268 471 c 0,34,35
 219 471 219 471 191 444.5 c 128,-1,36
 163 418 163 418 163 373 c 2,37,-1
 163 321 l 2,38,39
 163 276 163 276 191 249.5 c 128,-1,40
 219 223 219 223 268 223 c 0,27,28
63 0 m 1,41,-1
 63 84 l 1,42,-1
 500 84 l 1,43,-1
 500 0 l 1,44,-1
 63 0 l 1,41,-1
EndSplineSet
EndChar

StartChar: uni20AD
Encoding: 8365 8365 169
Width: 646
GlyphClass: 1
Flags: W
LayerCount: 2
Fore
SplineSet
208 0 m 1,0,-1
 95 0 l 1,1,-1
 95 312 l 1,2,-1
 8 312 l 1,3,-1
 8 402 l 1,4,-1
 95 402 l 1,5,-1
 95 698 l 1,6,-1
 208 698 l 1,7,-1
 208 402 l 1,8,-1
 269 402 l 1,9,-1
 477 698 l 1,10,-1
 604 698 l 1,11,-1
 386 402 l 1,12,-1
 586 402 l 1,13,-1
 586 312 l 1,14,-1
 395 312 l 1,15,-1
 625 0 l 1,16,-1
 491 0 l 1,17,-1
 271 312 l 1,18,-1
 208 312 l 1,19,-1
 208 0 l 1,0,-1
EndSplineSet
EndChar

StartChar: uni20AE
Encoding: 8366 8366 170
Width: 607
GlyphClass: 1
Flags: W
LayerCount: 2
Fore
SplineSet
360 213 m 1,0,-1
 360 0 l 1,1,-1
 247 0 l 1,2,-1
 247 159 l 1,3,-1
 119 98 l 1,4,-1
 119 176 l 1,5,-1
 247 237 l 1,6,-1
 247 318 l 1,7,-1
 119 257 l 1,8,-1
 119 335 l 1,9,-1
 247 396 l 1,10,-1
 247 603 l 1,11,-1
 39 603 l 1,12,-1
 39 698 l 1,13,-1
 568 698 l 1,14,-1
 568 603 l 1,15,-1
 360 603 l 1,16,-1
 360 450 l 1,17,-1
 488 511 l 1,18,-1
 488 433 l 1,19,-1
 360 372 l 1,20,-1
 360 291 l 1,21,-1
 488 353 l 1,22,-1
 488 275 l 1,23,-1
 360 213 l 1,0,-1
EndSplineSet
EndChar

StartChar: uni20B1
Encoding: 8369 8369 171
Width: 657
GlyphClass: 1
Flags: W
LayerCount: 2
Fore
SplineSet
220 0 m 1,0,-1
 107 0 l 1,1,-1
 107 323 l 1,2,-1
 24 323 l 1,3,-1
 24 396 l 1,4,-1
 107 396 l 1,5,-1
 107 479 l 1,6,-1
 24 479 l 1,7,-1
 24 552 l 1,8,-1
 107 552 l 1,9,-1
 107 698 l 1,10,-1
 360 698 l 2,11,12
 509 698 509 698 546 552 c 1,13,-1
 640 552 l 1,14,-1
 640 479 l 1,15,-1
 556 479 l 1,16,17
 557 469 557 469 557.5 459 c 128,-1,18
 558 449 558 449 558 438 c 256,19,20
 558 427 558 427 557.5 416.5 c 128,-1,21
 557 406 557 406 556 396 c 1,22,-1
 640 396 l 1,23,-1
 640 323 l 1,24,-1
 544 323 l 1,25,26
 525 251 525 251 479 213 c 128,-1,27
 433 175 433 175 360 175 c 2,28,-1
 220 175 l 1,29,-1
 220 0 l 1,0,-1
220 548 m 1,30,-1
 440 548 l 1,31,32
 431 577 431 577 408.5 595 c 128,-1,33
 386 613 386 613 352 613 c 2,34,-1
 220 613 l 1,35,-1
 220 548 l 1,30,-1
446 392 m 1,36,-1
 446 483 l 1,37,-1
 220 483 l 1,38,-1
 220 392 l 1,39,-1
 446 392 l 1,36,-1
352 260 m 2,40,41
 387 260 387 260 410 278 c 128,-1,42
 433 296 433 296 441 327 c 1,43,-1
 220 327 l 1,44,-1
 220 260 l 1,45,-1
 352 260 l 2,40,41
EndSplineSet
EndChar

StartChar: uni20B2
Encoding: 8370 8370 172
Width: 673
GlyphClass: 1
Flags: W
LayerCount: 2
Fore
SplineSet
213 -82 m 1,0,-1
 231 22 l 1,1,2
 173 46 173 46 134.5 90 c 128,-1,3
 96 134 96 134 75.5 198.5 c 128,-1,4
 55 263 55 263 55 349 c 0,5,6
 55 434 55 434 75.5 499 c 128,-1,7
 96 564 96 564 133.5 608 c 128,-1,8
 171 652 171 652 224.5 674 c 128,-1,9
 278 696 278 696 345 696 c 2,10,-1
 349 696 l 1,11,-1
 363 780 l 1,12,-1
 450 780 l 1,13,-1
 433 684 l 1,14,15
 476 673 476 673 520 640.5 c 128,-1,16
 564 608 564 608 596 543 c 1,17,-1
 507 496 l 1,18,19
 488 541 488 541 461.5 563.5 c 128,-1,20
 435 586 435 586 412 593 c 1,21,-1
 373 371 l 1,22,-1
 609 371 l 1,23,-1
 609 256 l 2,24,25
 609 183 609 183 584 134.5 c 128,-1,26
 559 86 559 86 520 56.5 c 128,-1,27
 481 27 481 27 434.5 14.5 c 128,-1,28
 388 2 388 2 345 2 c 0,29,30
 330 2 330 2 315 3 c 1,31,-1
 300 -82 l 1,32,-1
 213 -82 l 1,0,-1
218 553 m 0,33,34
 172 501 172 501 172 404 c 2,35,-1
 172 294 l 2,36,37
 172 228 172 228 194 184 c 128,-1,38
 216 140 216 140 252 118 c 1,39,-1
 337 604 l 1,40,41
 261 601 261 601 218 553 c 0,33,34
345 94 m 2,42,43
 416 94 416 94 460 132 c 128,-1,44
 504 170 504 170 504 242 c 2,45,-1
 504 278 l 1,46,-1
 357 278 l 1,47,-1
 325 94 l 1,48,-1
 345 94 l 2,42,43
EndSplineSet
EndChar

StartChar: uni20B4
Encoding: 8372 8372 173
Width: 635
GlyphClass: 1
Flags: W
LayerCount: 2
Fore
SplineSet
324 -12 m 0,0,1
 273 -12 273 -12 232.5 3 c 128,-1,2
 192 18 192 18 164 45 c 128,-1,3
 136 72 136 72 121.5 108 c 128,-1,4
 107 144 107 144 107 186 c 0,5,6
 107 202 107 202 109.5 215.5 c 128,-1,7
 112 229 112 229 115 240 c 1,8,-1
 43 240 l 1,9,-1
 43 317 l 1,10,-1
 160 317 l 1,11,-1
 311 400 l 1,12,-1
 43 400 l 1,13,-1
 43 477 l 1,14,-1
 411 477 l 1,15,16
 414 487 414 487 416 497.5 c 128,-1,17
 418 508 418 508 418 520 c 0,18,19
 418 570 418 570 390 593 c 128,-1,20
 362 616 362 616 311 616 c 0,21,22
 273 616 273 616 239 602.5 c 128,-1,23
 205 589 205 589 178 557 c 1,24,-1
 116 625 l 1,25,26
 154 668 154 668 206.5 689 c 128,-1,27
 259 710 259 710 317 710 c 0,28,29
 364 710 364 710 402 696.5 c 128,-1,30
 440 683 440 683 467 659 c 128,-1,31
 494 635 494 635 508.5 602 c 128,-1,32
 523 569 523 569 523 530 c 0,33,34
 523 516 523 516 521.5 502.5 c 128,-1,35
 520 489 520 489 516 477 c 1,36,-1
 592 477 l 1,37,-1
 592 400 l 1,38,-1
 469 400 l 1,39,-1
 321 317 l 1,40,-1
 592 317 l 1,41,-1
 592 240 l 1,42,-1
 223 240 l 1,43,44
 212 218 212 218 212 191 c 0,45,46
 212 137 212 137 244 109.5 c 128,-1,47
 276 82 276 82 330 82 c 0,48,49
 368 82 368 82 403.5 97 c 128,-1,50
 439 112 439 112 478 154 c 1,51,-1
 539 85 l 1,52,53
 501 39 501 39 446.5 13.5 c 128,-1,54
 392 -12 392 -12 324 -12 c 0,0,1
EndSplineSet
EndChar

StartChar: uni20B5
Encoding: 8373 8373 174
Width: 619
GlyphClass: 1
Flags: W
LayerCount: 2
Fore
SplineSet
213 -82 m 1,0,-1
 231 23 l 1,1,2
 172 48 172 48 134.5 92 c 128,-1,3
 97 136 97 136 76 200.5 c 128,-1,4
 55 265 55 265 55 349 c 256,5,6
 55 433 55 433 75.5 497.5 c 128,-1,7
 96 562 96 562 134 606.5 c 128,-1,8
 172 651 172 651 225.5 673.5 c 128,-1,9
 279 696 279 696 344 696 c 2,10,-1
 349 696 l 1,11,-1
 363 780 l 1,12,-1
 450 780 l 1,13,-1
 433 683 l 1,14,15
 472 672 472 672 510.5 643.5 c 128,-1,16
 549 615 549 615 579 561 c 1,17,-1
 496 505 l 1,18,19
 479 541 479 541 456.5 561 c 128,-1,20
 434 581 434 581 412 590 c 1,21,-1
 325 96 l 1,22,-1
 344 96 l 2,23,24
 399 96 399 96 438.5 123.5 c 128,-1,25
 478 151 478 151 499 201 c 1,26,-1
 581 145 l 1,27,28
 566 116 566 116 545 90 c 128,-1,29
 524 64 524 64 495 44.5 c 128,-1,30
 466 25 466 25 429 13.5 c 128,-1,31
 392 2 392 2 344 2 c 0,32,33
 330 2 330 2 315 3 c 1,34,-1
 300 -82 l 1,35,-1
 213 -82 l 1,0,-1
273 590 m 0,36,37
 241 576 241 576 218.5 550.5 c 128,-1,38
 196 525 196 525 183.5 488 c 128,-1,39
 171 451 171 451 171 406 c 2,40,-1
 171 294 l 2,41,42
 171 249 171 249 183.5 212.5 c 128,-1,43
 196 176 196 176 214.5 154.5 c 128,-1,44
 233 133 233 133 253 121 c 1,45,-1
 337 604 l 1,46,47
 301 602 301 602 273 590 c 0,36,37
EndSplineSet
EndChar

StartChar: uni20B8
Encoding: 8376 8376 175
Width: 607
GlyphClass: 1
Flags: W
LayerCount: 2
Fore
SplineSet
39 613 m 1,0,-1
 39 698 l 1,1,-1
 568 698 l 1,2,-1
 568 613 l 1,3,-1
 39 613 l 1,0,-1
360 442 m 1,4,-1
 360 0 l 1,5,-1
 247 0 l 1,6,-1
 247 442 l 1,7,-1
 39 442 l 1,8,-1
 39 527 l 1,9,-1
 568 527 l 1,10,-1
 568 442 l 1,11,-1
 360 442 l 1,4,-1
EndSplineSet
EndChar

StartChar: uni20B9
Encoding: 8377 8377 176
Width: 615
GlyphClass: 1
Flags: W
LayerCount: 2
Fore
SplineSet
374 0 m 1,0,-1
 178 263 l 1,1,-1
 57 263 l 1,2,-1
 57 348 l 1,3,-1
 253 348 l 2,4,5
 302 348 302 348 331 370.5 c 128,-1,6
 360 393 360 393 362 438 c 1,7,-1
 57 438 l 1,8,-1
 57 523 l 1,9,-1
 362 523 l 1,10,11
 359 571 359 571 330 592 c 128,-1,12
 301 613 301 613 253 613 c 2,13,-1
 57 613 l 1,14,-1
 57 698 l 1,15,-1
 580 698 l 1,16,-1
 580 613 l 1,17,-1
 398 613 l 1,18,-1
 398 609 l 1,19,20
 407 608 407 608 417.5 603 c 128,-1,21
 428 598 428 598 438 588.5 c 128,-1,22
 448 579 448 579 456 563 c 128,-1,23
 464 547 464 547 469 523 c 1,24,-1
 580 523 l 1,25,-1
 580 438 l 1,26,-1
 471 438 l 1,27,28
 462 368 462 368 419.5 323.5 c 128,-1,29
 377 279 377 279 302 270 c 1,30,-1
 511 0 l 1,31,-1
 374 0 l 1,0,-1
EndSplineSet
EndChar

StartChar: uni20BA
Encoding: 8378 8378 177
Width: 609
GlyphClass: 1
Flags: W
LayerCount: 2
Fore
SplineSet
108 233 m 1,0,-1
 15 188 l 1,1,-1
 15 266 l 1,2,-1
 108 311 l 1,3,-1
 108 392 l 1,4,-1
 15 347 l 1,5,-1
 15 425 l 1,6,-1
 108 470 l 1,7,-1
 108 698 l 1,8,-1
 222 698 l 1,9,-1
 222 524 l 1,10,-1
 410 614 l 1,11,-1
 410 536 l 1,12,-1
 222 446 l 1,13,-1
 222 365 l 1,14,-1
 410 455 l 1,15,-1
 410 377 l 1,16,-1
 222 287 l 1,17,-1
 222 94 l 1,18,-1
 304 94 l 2,19,20
 381 94 381 94 422 145.5 c 128,-1,21
 463 197 463 197 463 305 c 1,22,-1
 572 305 l 1,23,24
 572 241 572 241 556.5 185.5 c 128,-1,25
 541 130 541 130 509 88.5 c 128,-1,26
 477 47 477 47 428.5 23.5 c 128,-1,27
 380 0 380 0 315 0 c 2,28,-1
 108 0 l 1,29,-1
 108 233 l 1,0,-1
EndSplineSet
EndChar

StartChar: uni20BD
Encoding: 8381 8381 178
Width: 639
GlyphClass: 1
Flags: W
LayerCount: 2
Fore
SplineSet
220 121 m 1,0,-1
 220 0 l 1,1,-1
 107 0 l 1,2,-1
 107 121 l 1,3,-1
 24 121 l 1,4,-1
 24 206 l 1,5,-1
 107 206 l 1,6,-1
 107 296 l 1,7,-1
 24 296 l 1,8,-1
 24 381 l 1,9,-1
 107 381 l 1,10,-1
 107 698 l 1,11,-1
 399 698 l 2,12,13
 495 698 495 698 548 645 c 128,-1,14
 601 592 601 592 601 497 c 256,15,16
 601 402 601 402 548 349 c 128,-1,17
 495 296 495 296 399 296 c 2,18,-1
 220 296 l 1,19,-1
 220 206 l 1,20,-1
 469 206 l 1,21,-1
 469 121 l 1,22,-1
 220 121 l 1,0,-1
220 381 m 1,23,-1
 391 381 l 2,24,25
 435 381 435 381 458.5 403 c 128,-1,26
 482 425 482 425 482 467 c 2,27,-1
 482 517 l 2,28,29
 482 559 482 559 458.5 581 c 128,-1,30
 435 603 435 603 391 603 c 2,31,-1
 220 603 l 1,32,-1
 220 381 l 1,23,-1
EndSplineSet
EndChar

StartChar: uni20BF
Encoding: 8383 8383 179
Width: 652
GlyphClass: 1
Flags: W
LayerCount: 2
Fore
SplineSet
341 21 m 1,0,-1
 278 21 l 1,1,-1
 278 -82 l 1,2,-1
 191 -82 l 1,3,-1
 191 21 l 1,4,-1
 86 21 l 1,5,-1
 86 677 l 1,6,-1
 191 677 l 1,7,-1
 191 780 l 1,8,-1
 278 780 l 1,9,-1
 278 677 l 1,10,-1
 341 677 l 1,11,-1
 341 780 l 1,12,-1
 428 780 l 1,13,-1
 428 676 l 1,14,15
 497 666 497 666 535.5 621.5 c 128,-1,16
 574 577 574 577 574 508 c 0,17,18
 574 441 574 441 541 408.5 c 128,-1,19
 508 376 508 376 453 368 c 1,20,-1
 453 362 l 1,21,22
 481 359 481 359 507.5 350 c 128,-1,23
 534 341 534 341 554.5 323 c 128,-1,24
 575 305 575 305 587 277.5 c 128,-1,25
 599 250 599 250 599 210 c 0,26,27
 599 171 599 171 586 136.5 c 128,-1,28
 573 102 573 102 550 76.5 c 128,-1,29
 527 51 527 51 496 36.5 c 128,-1,30
 465 22 465 22 428 21 c 1,31,-1
 428 -82 l 1,32,-1
 341 -82 l 1,33,-1
 341 21 l 1,0,-1
194 399 m 1,34,-1
 380 399 l 2,35,36
 461 399 461 399 461 475 c 2,37,-1
 461 506 l 2,38,39
 461 582 461 582 380 582 c 2,40,-1
 194 582 l 1,41,-1
 194 399 l 1,34,-1
194 116 m 1,42,-1
 393 116 l 2,43,44
 436 116 436 116 461 136.5 c 128,-1,45
 486 157 486 157 486 197 c 2,46,-1
 486 228 l 2,47,48
 486 268 486 268 461 288.5 c 128,-1,49
 436 309 436 309 393 309 c 2,50,-1
 194 309 l 1,51,-1
 194 116 l 1,42,-1
EndSplineSet
EndChar

StartChar: fi
Encoding: 64257 64257 180
Width: 601
GlyphClass: 3
Flags: W
LayerCount: 2
Fore
SplineSet
105 431 m 1,0,-1
 26 431 l 1,1,-1
 26 520 l 1,2,-1
 105 520 l 1,3,-1
 105 606 l 2,4,5
 105 669 105 669 138 704.5 c 128,-1,6
 171 740 171 740 237 740 c 2,7,-1
 323 740 l 1,8,-1
 323 651 l 1,9,-1
 214 651 l 1,10,-1
 214 520 l 1,11,-1
 523 520 l 1,12,-1
 523 0 l 1,13,-1
 414 0 l 1,14,-1
 414 431 l 1,15,-1
 214 431 l 1,16,-1
 214 0 l 1,17,-1
 105 0 l 1,18,-1
 105 431 l 1,0,-1
469 613 m 256,19,20
 435 613 435 613 419.5 629 c 128,-1,21
 404 645 404 645 404 670 c 2,22,-1
 404 687 l 2,23,24
 404 712 404 712 419.5 728 c 128,-1,25
 435 744 435 744 469 744 c 256,26,27
 503 744 503 744 518 728 c 128,-1,28
 533 712 533 712 533 687 c 2,29,-1
 533 670 l 2,30,31
 533 645 533 645 518 629 c 128,-1,32
 503 613 503 613 469 613 c 256,19,20
EndSplineSet
Ligature2: "'liga' +BCEEQgQwBD0ENAQwBEAEQgQ9BEsENQAA +BDsEOAQzBDAEQgRDBEAESwAA lookup 19 subtable" f i
EndChar

StartChar: aogonek
Encoding: 261 261 191
Width: 549
GlyphClass: 2
Flags: W
AnchorPoint: "+BBEENQQ3BEsEPARPBD0EPQQ+BDUA--2" 259 540 basechar 0
LayerCount: 2
Fore
SplineSet
520 0 m 1,0,1
 486 -26 486 -26 465.5 -44 c 128,-1,2
 445 -62 445 -62 433.5 -75 c 128,-1,3
 422 -88 422 -88 418.5 -97 c 128,-1,4
 415 -106 415 -106 415 -115 c 0,5,6
 415 -133 415 -133 425 -140 c 128,-1,7
 435 -147 435 -147 449 -147 c 0,8,9
 465 -147 465 -147 477.5 -139.5 c 128,-1,10
 490 -132 490 -132 500 -121 c 1,11,-1
 545 -165 l 1,12,13
 534 -185 534 -185 508.5 -197 c 128,-1,14
 483 -209 483 -209 443 -209 c 0,15,16
 421 -209 421 -209 401.5 -204.5 c 128,-1,17
 382 -200 382 -200 367 -190.5 c 128,-1,18
 352 -181 352 -181 343.5 -166 c 128,-1,19
 335 -151 335 -151 335 -129 c 0,20,21
 335 -89 335 -89 366 -60 c 128,-1,22
 397 -31 397 -31 445 -3 c 1,23,-1
 443 1 l 1,24,25
 408 6 408 6 389 29 c 128,-1,26
 370 52 370 52 365 87 c 1,27,-1
 360 87 l 1,28,29
 345 38 345 38 305 13 c 128,-1,30
 265 -12 265 -12 208 -12 c 0,31,32
 127 -12 127 -12 83.5 30 c 128,-1,33
 40 72 40 72 40 143 c 0,34,35
 40 221 40 221 96.5 260 c 128,-1,36
 153 299 153 299 262 299 c 2,37,-1
 356 299 l 1,38,-1
 356 343 l 2,39,40
 356 391 356 391 330 417 c 128,-1,41
 304 443 304 443 249 443 c 0,42,43
 203 443 203 443 174 423 c 128,-1,44
 145 403 145 403 125 372 c 1,45,-1
 60 431 l 1,46,47
 86 475 86 475 133 503.5 c 128,-1,48
 180 532 180 532 256 532 c 0,49,50
 357 532 357 532 411 485 c 128,-1,51
 465 438 465 438 465 350 c 2,52,-1
 465 89 l 1,53,-1
 520 89 l 1,54,-1
 520 0 l 1,0,1
264 229 m 2,55,56
 151 229 151 229 151 159 c 2,57,-1
 151 141 l 2,58,59
 151 106 151 106 174.5 88.5 c 128,-1,60
 198 71 198 71 239 71 c 0,61,62
 290 71 290 71 323 93.5 c 128,-1,63
 356 116 356 116 356 154 c 2,64,-1
 356 229 l 1,65,-1
 264 229 l 2,55,56
EndSplineSet
Substitution2: "'salt' +BCEEQgQ4BDsEOARBBEIEOARHBDUEQQQ6BDgENQAA +BDAEOwRMBEIENQRABD0EMARCBDgEMgRL lookup 18 subtable" aogonek.alt01
Substitution2: "'ss01' Style Set 1 lookup 13 subtable" aogonek.alt01
Substitution2: "'aalt' +BBIEQQQ1 +BDAEOwRMBEIENQRABD0EMARCBDgEMgQ9BEsENQAA +BDIEMARABDgEMAQ9BEIESwAA lookup 0 subtable" aogonek.alt01
EndChar

StartChar: aogonek.alt01
Encoding: 65551 -1 214
Width: 592
GlyphClass: 2
Flags: W
AnchorPoint: "+BBEENQQ3BEsEPARPBD0EPQQ+BDUA--2" 294 540 basechar 0
LayerCount: 2
Fore
SplineSet
514 0 m 1,0,1
 480 -26 480 -26 459.5 -44 c 128,-1,2
 439 -62 439 -62 427.5 -75 c 128,-1,3
 416 -88 416 -88 412.5 -97 c 128,-1,4
 409 -106 409 -106 409 -115 c 0,5,6
 409 -133 409 -133 419 -140 c 128,-1,7
 429 -147 429 -147 443 -147 c 0,8,9
 459 -147 459 -147 471.5 -139.5 c 128,-1,10
 484 -132 484 -132 494 -121 c 1,11,-1
 539 -165 l 1,12,13
 528 -185 528 -185 502.5 -197 c 128,-1,14
 477 -209 477 -209 437 -209 c 0,15,16
 415 -209 415 -209 395.5 -204.5 c 128,-1,17
 376 -200 376 -200 361.5 -190.5 c 128,-1,18
 347 -181 347 -181 338.5 -166 c 128,-1,19
 330 -151 330 -151 330 -129 c 0,20,21
 330 -89 330 -89 360.5 -60 c 128,-1,22
 391 -31 391 -31 438 -3 c 1,23,-1
 437 0 l 1,24,-1
 405 0 l 1,25,-1
 405 86 l 1,26,-1
 400 86 l 1,27,28
 383 40 383 40 344.5 14 c 128,-1,29
 306 -12 306 -12 254 -12 c 0,30,31
 155 -12 155 -12 101 59.5 c 128,-1,32
 47 131 47 131 47 260 c 256,33,34
 47 389 47 389 101 460.5 c 128,-1,35
 155 532 155 532 254 532 c 0,36,37
 306 532 306 532 344.5 506.5 c 128,-1,38
 383 481 383 481 400 434 c 1,39,-1
 405 434 l 1,40,-1
 405 520 l 1,41,-1
 514 520 l 1,42,-1
 514 0 l 1,0,1
287 82 m 0,43,44
 337 82 337 82 371 106.5 c 128,-1,45
 405 131 405 131 405 171 c 2,46,-1
 405 349 l 2,47,48
 405 389 405 389 371 413.5 c 128,-1,49
 337 438 337 438 287 438 c 0,50,51
 230 438 230 438 196 401.5 c 128,-1,52
 162 365 162 365 162 305 c 2,53,-1
 162 215 l 2,54,55
 162 155 162 155 196 118.5 c 128,-1,56
 230 82 230 82 287 82 c 0,43,44
EndSplineSet
EndChar

StartChar: ae
Encoding: 230 230 228
Width: 865
GlyphClass: 2
Flags: W
AnchorPoint: "+BBEENQQ3BEsEPARPBD0EPQQ+BDUA--2" 422 540 basechar 0
AnchorPoint: "+BBEENQQ3BEsEPARPBD0EPQQ+BDUA--0" 422 0 basechar 0
LayerCount: 2
Fore
SplineSet
264 232 m 2,0,1
 151 230 151 230 151 161 c 2,2,-1
 151 143 l 2,3,4
 151 108 151 108 174.5 89.5 c 128,-1,5
 198 71 198 71 241 71 c 0,6,7
 289 71 289 71 322.5 93.5 c 128,-1,8
 356 116 356 116 356 154 c 2,9,-1
 356 232 l 1,10,-1
 264 232 l 2,0,1
707 304 m 1,11,-1
 707 314 l 2,12,13
 707 374 707 374 676 410.5 c 128,-1,14
 645 447 645 447 591 447 c 0,15,16
 563 447 563 447 539.5 437 c 128,-1,17
 516 427 516 427 499.5 409 c 128,-1,18
 483 391 483 391 474 366 c 128,-1,19
 465 341 465 341 465 311 c 2,20,-1
 465 304 l 1,21,-1
 707 304 l 1,11,-1
604 78 m 0,22,23
 652 78 652 78 685.5 99 c 128,-1,24
 719 120 719 120 740 155 c 1,25,-1
 804 93 l 1,26,27
 775 45 775 45 721.5 16.5 c 128,-1,28
 668 -12 668 -12 599 -12 c 0,29,30
 560 -12 560 -12 526.5 -2 c 128,-1,31
 493 8 493 8 467.5 24 c 128,-1,32
 442 40 442 40 425.5 59.5 c 128,-1,33
 409 79 409 79 402 98 c 1,34,-1
 396 98 l 1,35,36
 391 80 391 80 376.5 60.5 c 128,-1,37
 362 41 362 41 339 25 c 128,-1,38
 316 9 316 9 283 -1.5 c 128,-1,39
 250 -12 250 -12 208 -12 c 0,40,41
 129 -12 129 -12 84.5 31 c 128,-1,42
 40 74 40 74 40 143 c 0,43,44
 40 222 40 222 98 263 c 128,-1,45
 156 304 156 304 262 304 c 2,46,-1
 356 304 l 1,47,-1
 356 343 l 2,48,49
 356 391 356 391 330 417 c 128,-1,50
 304 443 304 443 250 443 c 0,51,52
 202 443 202 443 173.5 423.5 c 128,-1,53
 145 404 145 404 125 373 c 1,54,-1
 60 431 l 1,55,56
 86 475 86 475 133 503.5 c 128,-1,57
 180 532 180 532 256 532 c 0,58,59
 292 532 292 532 318 523 c 128,-1,60
 344 514 344 514 362.5 500 c 128,-1,61
 381 486 381 486 392.5 468.5 c 128,-1,62
 404 451 404 451 412 434 c 1,63,-1
 418 434 l 1,64,65
 426 452 426 452 442 469.5 c 128,-1,66
 458 487 458 487 480.5 501 c 128,-1,67
 503 515 503 515 532.5 523.5 c 128,-1,68
 562 532 562 532 597 532 c 0,69,70
 653 532 653 532 695 512 c 128,-1,71
 737 492 737 492 765.5 456.5 c 128,-1,72
 794 421 794 421 808 374 c 128,-1,73
 822 327 822 327 822 273 c 2,74,-1
 822 232 l 1,75,-1
 465 232 l 1,76,-1
 465 215 l 2,77,78
 465 155 465 155 501.5 116.5 c 128,-1,79
 538 78 538 78 604 78 c 0,22,23
EndSplineSet
EndChar

StartChar: ccedilla
Encoding: 231 231 232
Width: 510
GlyphClass: 2
Flags: W
AnchorPoint: "+BBEENQQ3BEsEPARPBD0EPQQ+BDUA--2" 275 540 basechar 0
LayerCount: 2
Fore
SplineSet
279 532 m 0,0,1
 357 532 357 532 407 497 c 128,-1,2
 457 462 457 462 480 404 c 1,3,-1
 390 362 l 1,4,5
 379 398 379 398 351.5 419.5 c 128,-1,6
 324 441 324 441 279 441 c 0,7,8
 219 441 219 441 188.5 403.5 c 128,-1,9
 158 366 158 366 158 306 c 2,10,-1
 158 213 l 2,11,12
 158 153 158 153 188.5 115.5 c 128,-1,13
 219 78 219 78 279 78 c 0,14,15
 327 78 327 78 355.5 101.5 c 128,-1,16
 384 125 384 125 401 164 c 1,17,-1
 484 120 l 1,18,19
 460 60 460 60 412.5 26.5 c 128,-1,20
 365 -7 365 -7 296 -12 c 1,21,-1
 287 -58 l 1,22,-1
 290 -62 l 1,23,24
 301 -59 301 -59 311.5 -57 c 128,-1,25
 322 -55 322 -55 333 -55 c 0,26,27
 362 -55 362 -55 382.5 -71.5 c 128,-1,28
 403 -88 403 -88 403 -123 c 0,29,30
 403 -146 403 -146 393 -162 c 128,-1,31
 383 -178 383 -178 366.5 -188.5 c 128,-1,32
 350 -199 350 -199 328.5 -204 c 128,-1,33
 307 -209 307 -209 283 -209 c 0,34,35
 238 -209 238 -209 211.5 -195 c 128,-1,36
 185 -181 185 -181 173 -167 c 1,37,-1
 215 -119 l 1,38,39
 224 -131 224 -131 239.5 -139.5 c 128,-1,40
 255 -148 255 -148 278 -148 c 0,41,42
 297 -148 297 -148 309.5 -141 c 128,-1,43
 322 -134 322 -134 322 -119 c 0,44,45
 322 -107 322 -107 308 -95.5 c 128,-1,46
 294 -84 294 -84 251 -79 c 2,47,-1
 226 -76 l 1,48,-1
 239 -9 l 1,49,50
 145 4 145 4 94 75 c 128,-1,51
 43 146 43 146 43 260 c 0,52,53
 43 322 43 322 59 372.5 c 128,-1,54
 75 423 75 423 105 458.5 c 128,-1,55
 135 494 135 494 179 513 c 128,-1,56
 223 532 223 532 279 532 c 0,0,1
EndSplineSet
EndChar

StartChar: dcroat
Encoding: 273 273 236
Width: 595
GlyphClass: 2
Flags: W
AnchorPoint: "+BBEENQQ3BEsEPARPBD0EPQQ+BDUA--0" 281 0 basechar 0
LayerCount: 2
Fore
SplineSet
405 86 m 1,0,-1
 400 86 l 1,1,2
 383 40 383 40 344.5 14 c 128,-1,3
 306 -12 306 -12 254 -12 c 0,4,5
 155 -12 155 -12 101 59.5 c 128,-1,6
 47 131 47 131 47 260 c 256,7,8
 47 389 47 389 101 460.5 c 128,-1,9
 155 532 155 532 254 532 c 0,10,11
 306 532 306 532 344.5 506.5 c 128,-1,12
 383 481 383 481 400 434 c 1,13,-1
 405 434 l 1,14,-1
 405 600 l 1,15,-1
 259 600 l 1,16,-1
 259 679 l 1,17,-1
 405 679 l 1,18,-1
 405 740 l 1,19,-1
 514 740 l 1,20,-1
 514 679 l 1,21,-1
 577 679 l 1,22,-1
 577 600 l 1,23,-1
 514 600 l 1,24,-1
 514 0 l 1,25,-1
 405 0 l 1,26,-1
 405 86 l 1,0,-1
287 82 m 0,27,28
 337 82 337 82 371 106.5 c 128,-1,29
 405 131 405 131 405 171 c 2,30,-1
 405 349 l 2,31,32
 405 389 405 389 371 413.5 c 128,-1,33
 337 438 337 438 287 438 c 0,34,35
 230 438 230 438 196 401.5 c 128,-1,36
 162 365 162 365 162 305 c 2,37,-1
 162 215 l 2,38,39
 162 155 162 155 196 118.5 c 128,-1,40
 230 82 230 82 287 82 c 0,27,28
EndSplineSet
EndChar

StartChar: eth
Encoding: 240 240 237
Width: 574
GlyphClass: 2
Flags: W
AnchorPoint: "+BBEENQQ3BEsEPARPBD0EPQQ+BDUA--0" 287 0 basechar 0
LayerCount: 2
Fore
SplineSet
443 704 m 1,0,-1
 367 653 l 1,1,2
 400 619 400 619 429 578.5 c 128,-1,3
 458 538 458 538 479.5 490.5 c 128,-1,4
 501 443 501 443 513 389 c 128,-1,5
 525 335 525 335 525 274 c 0,6,7
 525 201 525 201 507.5 147.5 c 128,-1,8
 490 94 490 94 458.5 58.5 c 128,-1,9
 427 23 427 23 383 5.5 c 128,-1,10
 339 -12 339 -12 286 -12 c 0,11,12
 229 -12 229 -12 184.5 6.5 c 128,-1,13
 140 25 140 25 108.5 59.5 c 128,-1,14
 77 94 77 94 60.5 142 c 128,-1,15
 44 190 44 190 44 249 c 0,16,17
 44 306 44 306 59 352.5 c 128,-1,18
 74 399 74 399 102 432 c 128,-1,19
 130 465 130 465 170 483.5 c 128,-1,20
 210 502 210 502 259 502 c 0,21,22
 311 502 311 502 346 476 c 128,-1,23
 381 450 381 450 400 404 c 1,24,-1
 406 407 l 1,25,26
 394 460 394 460 362 508.5 c 128,-1,27
 330 557 330 557 285 600 c 1,28,-1
 201 546 l 1,29,-1
 162 595 l 1,30,-1
 236 644 l 1,31,32
 202 671 202 671 166 695 c 128,-1,33
 130 719 130 719 93 740 c 1,34,-1
 260 740 l 1,35,36
 274 731 274 731 289 720.5 c 128,-1,37
 304 710 304 710 319 697 c 1,38,-1
 403 753 l 1,39,-1
 443 704 l 1,0,-1
285 75 m 256,40,41
 342 75 342 75 376.5 111.5 c 128,-1,42
 411 148 411 148 411 214 c 2,43,-1
 411 276 l 2,44,45
 411 342 411 342 376.5 378.5 c 128,-1,46
 342 415 342 415 285 415 c 256,47,48
 228 415 228 415 193.5 378.5 c 128,-1,49
 159 342 159 342 159 276 c 2,50,-1
 159 214 l 2,51,52
 159 148 159 148 193.5 111.5 c 128,-1,53
 228 75 228 75 285 75 c 256,40,41
EndSplineSet
EndChar

StartChar: eogonek
Encoding: 281 281 248
Width: 555
GlyphClass: 2
Flags: W
AnchorPoint: "+BBEENQQ3BEsEPARPBD0EPQQ+BDUA--2" 282 540 basechar 0
LayerCount: 2
Fore
SplineSet
347 -209 m 0,0,1
 326 -209 326 -209 306.5 -204.5 c 128,-1,2
 287 -200 287 -200 272.5 -190.5 c 128,-1,3
 258 -181 258 -181 249.5 -166 c 128,-1,4
 241 -151 241 -151 241 -129 c 256,5,6
 241 -107 241 -107 250 -89.5 c 128,-1,7
 259 -72 259 -72 273.5 -57 c 128,-1,8
 288 -42 288 -42 307.5 -29.5 c 128,-1,9
 327 -17 327 -17 348 -5 c 1,10,-1
 346 -1 l 1,11,12
 332 -6 332 -6 316.5 -9 c 128,-1,13
 301 -12 301 -12 281 -12 c 0,14,15
 225 -12 225 -12 181 7 c 128,-1,16
 137 26 137 26 106.5 61.5 c 128,-1,17
 76 97 76 97 59.5 147.5 c 128,-1,18
 43 198 43 198 43 260 c 256,19,20
 43 322 43 322 59 372 c 128,-1,21
 75 422 75 422 106 457.5 c 128,-1,22
 137 493 137 493 180.5 512.5 c 128,-1,23
 224 532 224 532 280 532 c 0,24,25
 338 532 338 532 381.5 512 c 128,-1,26
 425 492 425 492 454 456.5 c 128,-1,27
 483 421 483 421 497.5 374 c 128,-1,28
 512 327 512 327 512 273 c 2,29,-1
 512 232 l 1,30,-1
 156 232 l 1,31,-1
 156 215 l 2,32,33
 156 155 156 155 191 116.5 c 128,-1,34
 226 78 226 78 294 78 c 0,35,36
 341 78 341 78 375 99 c 128,-1,37
 409 120 409 120 430 155 c 1,38,-1
 494 93 l 1,39,40
 484 78 484 78 469 63 c 128,-1,41
 454 48 454 48 429 26 c 0,42,43
 411 8 411 8 392 -9.5 c 128,-1,44
 373 -27 373 -27 357 -44.5 c 128,-1,45
 341 -62 341 -62 330.5 -79.5 c 128,-1,46
 320 -97 320 -97 320 -115 c 0,47,48
 320 -132 320 -132 330 -139.5 c 128,-1,49
 340 -147 340 -147 354 -147 c 0,50,51
 369 -147 369 -147 382 -139.5 c 128,-1,52
 395 -132 395 -132 405 -121 c 1,53,-1
 449 -165 l 1,54,55
 438 -185 438 -185 413 -197 c 128,-1,56
 388 -209 388 -209 347 -209 c 0,0,1
397 304 m 1,57,-1
 397 314 l 2,58,59
 397 374 397 374 366.5 410.5 c 128,-1,60
 336 447 336 447 281 447 c 0,61,62
 224 447 224 447 190 409 c 128,-1,63
 156 371 156 371 156 311 c 2,64,-1
 156 304 l 1,65,-1
 397 304 l 1,57,-1
EndSplineSet
EndChar

StartChar: uni0259
Encoding: 601 601 255
Width: 556
GlyphClass: 2
Flags: W
AnchorPoint: "+BBEENQQ3BEsEPARPBD0EPQQ+BDUA--2" 270 540 basechar 0
AnchorPoint: "+BBEENQQ3BEsEPARPBD0EPQQ+BDUA--0" 272 0 basechar 0
LayerCount: 2
Fore
SplineSet
400 288 m 1,0,-1
 400 305 l 2,1,2
 400 365 400 365 365.5 403.5 c 128,-1,3
 331 442 331 442 265 442 c 0,4,5
 215 442 215 442 182.5 420 c 128,-1,6
 150 398 150 398 130 364 c 1,7,-1
 65 427 l 1,8,9
 94 475 94 475 148.5 503.5 c 128,-1,10
 203 532 203 532 275 532 c 0,11,12
 330 532 330 532 374.5 513 c 128,-1,13
 419 494 419 494 449.5 458.5 c 128,-1,14
 480 423 480 423 496.5 372.5 c 128,-1,15
 513 322 513 322 513 260 c 256,16,17
 513 198 513 198 496.5 147.5 c 128,-1,18
 480 97 480 97 449.5 61.5 c 128,-1,19
 419 26 419 26 374.5 7 c 128,-1,20
 330 -12 330 -12 275 -12 c 0,21,22
 218 -12 218 -12 174.5 8 c 128,-1,23
 131 28 131 28 101.5 63.5 c 128,-1,24
 72 99 72 99 57.5 146 c 128,-1,25
 43 193 43 193 43 247 c 2,26,-1
 43 288 l 1,27,-1
 400 288 l 1,0,-1
157 206 m 2,28,29
 157 146 157 146 188 109.5 c 128,-1,30
 219 73 219 73 274 73 c 0,31,32
 302 73 302 73 325.5 83 c 128,-1,33
 349 93 349 93 365.5 111 c 128,-1,34
 382 129 382 129 391 154 c 128,-1,35
 400 179 400 179 400 209 c 2,36,-1
 400 216 l 1,37,-1
 157 216 l 1,38,-1
 157 206 l 2,28,29
EndSplineSet
EndChar

StartChar: hbar
Encoding: 295 295 264
Width: 580
GlyphClass: 2
Flags: W
AnchorPoint: "+BBEENQQ3BEsEPARPBD0EPQQ+BDUA--0" 293 0 basechar 0
LayerCount: 2
Fore
SplineSet
78 0 m 1,0,-1
 78 600 l 1,1,-1
 15 600 l 1,2,-1
 15 679 l 1,3,-1
 78 679 l 1,4,-1
 78 740 l 1,5,-1
 187 740 l 1,6,-1
 187 679 l 1,7,-1
 333 679 l 1,8,-1
 333 600 l 1,9,-1
 187 600 l 1,10,-1
 187 434 l 1,11,-1
 192 434 l 1,12,13
 209 476 209 476 243.5 504 c 128,-1,14
 278 532 278 532 338 532 c 0,15,16
 419 532 419 532 463 479.5 c 128,-1,17
 507 427 507 427 507 330 c 2,18,-1
 507 0 l 1,19,-1
 398 0 l 1,20,-1
 398 317 l 2,21,22
 398 438 398 438 300 438 c 0,23,24
 279 438 279 438 258.5 432.5 c 128,-1,25
 238 427 238 427 222 416 c 128,-1,26
 206 405 206 405 196.5 388 c 128,-1,27
 187 371 187 371 187 349 c 2,28,-1
 187 0 l 1,29,-1
 78 0 l 1,0,-1
EndSplineSet
EndChar

StartChar: dotlessi
Encoding: 305 305 266
Width: 265
GlyphClass: 2
Flags: W
AnchorPoint: "+BBEENQQ3BEsEPARPBD0EPQQ+BDUA--2" 133 540 basechar 0
AnchorPoint: "+BBEENQQ3BEsEPARPBD0EPQQ+BDUA--1" 187 0 basechar 0
AnchorPoint: "+BBEENQQ3BEsEPARPBD0EPQQ+BDUA--0" 133 0 basechar 0
LayerCount: 2
Fore
SplineSet
78 0 m 1,0,-1
 78 520 l 1,1,-1
 187 520 l 1,2,-1
 187 0 l 1,3,-1
 78 0 l 1,0,-1
EndSplineSet
EndChar

StartChar: iogonek
Encoding: 303 303 276
Width: 265
GlyphClass: 1
Flags: W
LayerCount: 2
Fore
SplineSet
78 520 m 1,0,-1
 187 520 l 1,1,-1
 187 0 l 1,2,3
 153 -26 153 -26 132.5 -44 c 128,-1,4
 112 -62 112 -62 100.5 -75 c 128,-1,5
 89 -88 89 -88 85.5 -97 c 128,-1,6
 82 -106 82 -106 82 -115 c 0,7,8
 82 -133 82 -133 92 -140 c 128,-1,9
 102 -147 102 -147 116 -147 c 0,10,11
 132 -147 132 -147 144.5 -139.5 c 128,-1,12
 157 -132 157 -132 167 -121 c 1,13,-1
 213 -165 l 1,14,15
 202 -185 202 -185 176.5 -197 c 128,-1,16
 151 -209 151 -209 110 -209 c 0,17,18
 88 -209 88 -209 68.5 -204.5 c 128,-1,19
 49 -200 49 -200 34.5 -190.5 c 128,-1,20
 20 -181 20 -181 11.5 -166 c 128,-1,21
 3 -151 3 -151 3 -129 c 0,22,23
 3 -89 3 -89 34 -60.5 c 128,-1,24
 65 -32 65 -32 112 -4 c 1,25,-1
 111 0 l 1,26,-1
 78 0 l 1,27,-1
 78 520 l 1,0,-1
133 613 m 256,28,29
 99 613 99 613 83.5 629 c 128,-1,30
 68 645 68 645 68 670 c 2,31,-1
 68 687 l 2,32,33
 68 712 68 712 83.5 728 c 128,-1,34
 99 744 99 744 133 744 c 256,35,36
 167 744 167 744 182 728 c 128,-1,37
 197 712 197 712 197 687 c 2,38,-1
 197 670 l 2,39,40
 197 645 197 645 182 629 c 128,-1,41
 167 613 167 613 133 613 c 256,28,29
EndSplineSet
EndChar

StartChar: uni0237
Encoding: 567 567 279
Width: 265
GlyphClass: 2
Flags: W
AnchorPoint: "+BBEENQQ3BEsEPARPBD0EPQQ+BDUA--2" 133 540 basechar 0
LayerCount: 2
Fore
SplineSet
-3 -111 m 1,0,-1
 78 -111 l 1,1,-1
 78 520 l 1,2,-1
 187 520 l 1,3,-1
 187 -70 l 2,4,5
 187 -130 187 -130 156.5 -165 c 128,-1,6
 126 -200 126 -200 60 -200 c 2,7,-1
 -3 -200 l 1,8,-1
 -3 -111 l 1,0,-1
EndSplineSet
EndChar

StartChar: kgreenlandic
Encoding: 312 312 282
Width: 547
GlyphClass: 2
Flags: W
AnchorPoint: "+BBEENQQ3BEsEPARPBD0EPQQ+BDUA--2" 306 540 basechar 0
AnchorPoint: "+BBEENQQ3BEsEPARPBD0EPQQ+BDUA--0" 306 0 basechar 0
LayerCount: 2
Fore
SplineSet
259 245 m 1,0,-1
 187 170 l 1,1,-1
 187 0 l 1,2,-1
 78 0 l 1,3,-1
 78 520 l 1,4,-1
 187 520 l 1,5,-1
 187 286 l 1,6,-1
 192 286 l 1,7,-1
 267 376 l 1,8,-1
 400 520 l 1,9,-1
 527 520 l 1,10,-1
 336 317 l 1,11,-1
 538 0 l 1,12,-1
 409 0 l 1,13,-1
 259 245 l 1,0,-1
EndSplineSet
EndChar

StartChar: lslash
Encoding: 322 322 287
Width: 292
GlyphClass: 1
Flags: W
LayerCount: 2
Fore
SplineSet
263 0 m 1,0,-1
 193 0 l 2,1,2
 137 0 137 0 109.5 28.5 c 128,-1,3
 82 57 82 57 82 108 c 2,4,-1
 82 312 l 1,5,-1
 9 288 l 1,6,-1
 9 374 l 1,7,-1
 82 398 l 1,8,-1
 82 740 l 1,9,-1
 191 740 l 1,10,-1
 191 434 l 1,11,-1
 294 468 l 1,12,-1
 294 382 l 1,13,-1
 191 348 l 1,14,-1
 191 89 l 1,15,-1
 263 89 l 1,16,-1
 263 0 l 1,0,-1
EndSplineSet
EndChar

StartChar: eng
Encoding: 331 331 293
Width: 580
GlyphClass: 2
Flags: W
AnchorPoint: "+BBEENQQ3BEsEPARPBD0EPQQ+BDUA--2" 293 540 basechar 0
LayerCount: 2
Fore
SplineSet
317 -111 m 1,0,-1
 398 -111 l 1,1,-1
 398 317 l 2,2,3
 398 438 398 438 300 438 c 0,4,5
 279 438 279 438 258.5 432.5 c 128,-1,6
 238 427 238 427 222 416 c 128,-1,7
 206 405 206 405 196.5 388.5 c 128,-1,8
 187 372 187 372 187 349 c 2,9,-1
 187 0 l 1,10,-1
 78 0 l 1,11,-1
 78 520 l 1,12,-1
 187 520 l 1,13,-1
 187 434 l 1,14,-1
 192 434 l 1,15,16
 209 476 209 476 243.5 504 c 128,-1,17
 278 532 278 532 338 532 c 0,18,19
 418 532 418 532 462.5 479.5 c 128,-1,20
 507 427 507 427 507 330 c 2,21,-1
 507 -71 l 2,22,23
 507 -131 507 -131 477 -165.5 c 128,-1,24
 447 -200 447 -200 381 -200 c 2,25,-1
 317 -200 l 1,26,-1
 317 -111 l 1,0,-1
EndSplineSet
EndChar

StartChar: oslash
Encoding: 248 248 304
Width: 570
GlyphClass: 2
Flags: W
AnchorPoint: "+BBEENQQ3BEsEPARPBD0EPQQ+BDUA--2" 284 540 basechar 0
AnchorPoint: "+BBEENQQ3BEsEPARPBD0EPQQ+BDUA--0" 284 0 basechar 0
LayerCount: 2
Fore
SplineSet
26 1 m 1,0,-1
 93 84 l 1,1,2
 70 119 70 119 58 162.5 c 128,-1,3
 46 206 46 206 46 260 c 0,4,5
 46 322 46 322 63 372.5 c 128,-1,6
 80 423 80 423 111 458.5 c 128,-1,7
 142 494 142 494 186.5 513 c 128,-1,8
 231 532 231 532 285 532 c 0,9,10
 364 532 364 532 423 490 c 1,11,-1
 484 564 l 1,12,-1
 544 519 l 1,13,-1
 476 435 l 1,14,15
 499 401 499 401 511.5 357 c 128,-1,16
 524 313 524 313 524 260 c 0,17,18
 524 198 524 198 507 147.5 c 128,-1,19
 490 97 490 97 459 61.5 c 128,-1,20
 428 26 428 26 383.5 7 c 128,-1,21
 339 -12 339 -12 285 -12 c 0,22,23
 244 -12 244 -12 209.5 -1.5 c 128,-1,24
 175 9 175 9 147 29 c 1,25,-1
 86 -44 l 1,26,-1
 26 1 l 1,0,-1
285 75 m 0,27,28
 342 75 342 75 376.5 111.5 c 128,-1,29
 411 148 411 148 411 218 c 2,30,-1
 411 302 l 2,31,32
 411 329 411 329 405 352 c 1,33,-1
 202 103 l 1,34,35
 233 75 233 75 285 75 c 0,27,28
159 218 m 2,36,37
 159 190 159 190 165 168 c 1,38,-1
 368 416 l 1,39,40
 334 445 334 445 285 445 c 0,41,42
 228 445 228 445 193.5 408.5 c 128,-1,43
 159 372 159 372 159 302 c 2,44,-1
 159 218 l 2,36,37
EndSplineSet
EndChar

StartChar: ohorn
Encoding: 417 417 307
Width: 563
GlyphClass: 2
Flags: W
AnchorPoint: "+BBEENQQ3BEsEPARPBD0EPQQ+BDUA--2" 280 540 basechar 0
AnchorPoint: "+BBEENQQ3BEsEPARPBD0EPQQ+BDUA--0" 280 0 basechar 0
LayerCount: 2
Fore
SplineSet
534 629 m 1,0,-1
 534 533 l 2,1,2
 534 495 534 495 518 474.5 c 128,-1,3
 502 454 502 454 459 454 c 1,4,5
 494 412 494 412 507 365 c 128,-1,6
 520 318 520 318 520 261 c 0,7,8
 520 199 520 199 503 148.5 c 128,-1,9
 486 98 486 98 455 62.5 c 128,-1,10
 424 27 424 27 380 7.5 c 128,-1,11
 336 -12 336 -12 282 -12 c 256,12,13
 228 -12 228 -12 183.5 7.5 c 128,-1,14
 139 27 139 27 108 62.5 c 128,-1,15
 77 98 77 98 60 148.5 c 128,-1,16
 43 199 43 199 43 261 c 0,17,18
 43 324 43 324 60 374 c 128,-1,19
 77 424 77 424 108 459 c 128,-1,20
 139 494 139 494 183.5 513 c 128,-1,21
 228 532 228 532 282 532 c 0,22,23
 324 532 324 532 362 520 c 1,24,-1
 440 520 l 1,25,-1
 440 629 l 1,26,-1
 534 629 l 1,0,-1
282 78 m 256,27,28
 338 78 338 78 371.5 113 c 128,-1,29
 405 148 405 148 405 217 c 2,30,-1
 405 304 l 2,31,32
 405 373 405 373 371.5 407.5 c 128,-1,33
 338 442 338 442 282 442 c 256,34,35
 226 442 226 442 192 407.5 c 128,-1,36
 158 373 158 373 158 304 c 2,37,-1
 158 217 l 2,38,39
 158 148 158 148 192 113 c 128,-1,40
 226 78 226 78 282 78 c 256,27,28
EndSplineSet
EndChar

StartChar: oe
Encoding: 339 339 318
Width: 921
GlyphClass: 2
Flags: W
AnchorPoint: "+BBEENQQ3BEsEPARPBD0EPQQ+BDUA--2" 472 540 basechar 0
AnchorPoint: "+BBEENQQ3BEsEPARPBD0EPQQ+BDUA--0" 472 0 basechar 0
LayerCount: 2
Fore
SplineSet
282 78 m 256,0,1
 338 78 338 78 372 112.5 c 128,-1,2
 406 147 406 147 406 216 c 2,3,-1
 406 304 l 2,4,5
 406 373 406 373 372 407.5 c 128,-1,6
 338 442 338 442 282 442 c 256,7,8
 226 442 226 442 192 407.5 c 128,-1,9
 158 373 158 373 158 304 c 2,10,-1
 158 216 l 2,11,12
 158 147 158 147 192 112.5 c 128,-1,13
 226 78 226 78 282 78 c 256,0,1
763 304 m 1,14,-1
 763 314 l 2,15,16
 763 374 763 374 732 410.5 c 128,-1,17
 701 447 701 447 647 447 c 0,18,19
 619 447 619 447 595.5 437 c 128,-1,20
 572 427 572 427 555.5 409 c 128,-1,21
 539 391 539 391 530 366 c 128,-1,22
 521 341 521 341 521 311 c 2,23,-1
 521 304 l 1,24,-1
 763 304 l 1,14,-1
653 -12 m 256,25,26
 581 -12 581 -12 533.5 16 c 128,-1,27
 486 44 486 44 466 85 c 1,28,-1
 460 85 l 1,29,30
 439 42 439 42 392.5 15 c 128,-1,31
 346 -12 346 -12 282 -12 c 0,32,33
 228 -12 228 -12 183.5 7 c 128,-1,34
 139 26 139 26 108 61.5 c 128,-1,35
 77 97 77 97 60 147.5 c 128,-1,36
 43 198 43 198 43 260 c 256,37,38
 43 322 43 322 60 372.5 c 128,-1,39
 77 423 77 423 108 458.5 c 128,-1,40
 139 494 139 494 183.5 513 c 128,-1,41
 228 532 228 532 282 532 c 0,42,43
 344 532 344 532 390 507.5 c 128,-1,44
 436 483 436 483 460 434 c 1,45,-1
 466 434 l 1,46,47
 488 479 488 479 535 505.5 c 128,-1,48
 582 532 582 532 648 532 c 0,49,50
 702 532 702 532 744.5 513 c 128,-1,51
 787 494 787 494 817 460 c 128,-1,52
 847 426 847 426 862.5 378.5 c 128,-1,53
 878 331 878 331 878 273 c 2,54,-1
 878 232 l 1,55,-1
 521 232 l 1,56,-1
 521 215 l 2,57,58
 521 155 521 155 556.5 116.5 c 128,-1,59
 592 78 592 78 660 78 c 0,60,61
 708 78 708 78 741 99 c 128,-1,62
 774 120 774 120 797 156 c 1,63,-1
 861 93 l 1,64,65
 832 45 832 45 778.5 16.5 c 128,-1,66
 725 -12 725 -12 653 -12 c 256,25,26
EndSplineSet
EndChar

StartChar: scedilla
Encoding: 351 351 324
Width: 494
GlyphClass: 2
Flags: W
AnchorPoint: "+BBEENQQ3BEsEPARPBD0EPQQ+BDUA--2" 243 540 basechar 0
LayerCount: 2
Fore
SplineSet
256 -209 m 0,0,1
 211 -209 211 -209 184.5 -195 c 128,-1,2
 158 -181 158 -181 147 -167 c 1,3,-1
 188 -119 l 1,4,5
 197 -131 197 -131 212.5 -139.5 c 128,-1,6
 228 -148 228 -148 251 -148 c 0,7,8
 270 -148 270 -148 282.5 -141 c 128,-1,9
 295 -134 295 -134 295 -119 c 0,10,11
 295 -107 295 -107 281.5 -95.5 c 128,-1,12
 268 -84 268 -84 224 -79 c 2,13,-1
 199 -76 l 1,14,-1
 212 -11 l 1,15,16
 152 -6 152 -6 108 19.5 c 128,-1,17
 64 45 64 45 32 86 c 1,18,-1
 102 150 l 1,19,20
 131 115 131 115 166.5 95.5 c 128,-1,21
 202 76 202 76 249 76 c 0,22,23
 297 76 297 76 320.5 94.5 c 128,-1,24
 344 113 344 113 344 146 c 0,25,26
 344 172 344 172 327.5 188.5 c 128,-1,27
 311 205 311 205 270 211 c 2,28,-1
 222 217 l 2,29,30
 142 228 142 228 96.5 264 c 128,-1,31
 51 300 51 300 51 372 c 0,32,33
 51 410 51 410 65 439.5 c 128,-1,34
 79 469 79 469 104.5 489.5 c 128,-1,35
 130 510 130 510 165.5 521 c 128,-1,36
 201 532 201 532 244 532 c 0,37,38
 314 532 314 532 358.5 510 c 128,-1,39
 403 488 403 488 438 449 c 1,40,-1
 371 385 l 1,41,42
 351 409 351 409 318.5 426.5 c 128,-1,43
 286 444 286 444 244 444 c 0,44,45
 199 444 199 444 177.5 426 c 128,-1,46
 156 408 156 408 156 379 c 0,47,48
 156 349 156 349 175 334 c 128,-1,49
 194 319 194 319 236 312 c 2,50,-1
 284 306 l 2,51,52
 370 293 370 293 409.5 255.5 c 128,-1,53
 449 218 449 218 449 155 c 0,54,55
 449 85 449 85 400.5 40.5 c 128,-1,56
 352 -4 352 -4 269 -11 c 1,57,-1
 260 -58 l 1,58,-1
 263 -62 l 1,59,60
 274 -59 274 -59 284.5 -57 c 128,-1,61
 295 -55 295 -55 306 -55 c 0,62,63
 336 -55 336 -55 356 -71.5 c 128,-1,64
 376 -88 376 -88 376 -123 c 0,65,66
 376 -146 376 -146 366 -162 c 128,-1,67
 356 -178 356 -178 339.5 -188.5 c 128,-1,68
 323 -199 323 -199 301.5 -204 c 128,-1,69
 280 -209 280 -209 256 -209 c 0,0,1
EndSplineSet
Substitution2: "'locl' +BBsEPgQ6BDAEOwQ4BDcEPgQyBDAEPQQ9BEsENQAA +BEQEPgRABDwESwAA in Latin lookup 3 subtable" scommaaccent
Substitution2: "'locl' +BBsEPgQ6BDAEOwQ4BDcEPgQyBDAEPQQ9BEsENQAA +BEQEPgRABDwESwAA in Latin lookup 2 subtable" scommaaccent
EndChar

StartChar: uni017F
Encoding: 383 383 327
Width: 292
GlyphClass: 1
Flags: W
LayerCount: 2
Fore
SplineSet
105 431 m 1,0,-1
 26 431 l 1,1,-1
 26 520 l 1,2,-1
 105 520 l 1,3,-1
 105 606 l 2,4,5
 105 669 105 669 138 704.5 c 128,-1,6
 171 740 171 740 237 740 c 2,7,-1
 323 740 l 1,8,-1
 323 651 l 1,9,-1
 214 651 l 1,10,-1
 214 0 l 1,11,-1
 105 0 l 1,12,-1
 105 431 l 1,0,-1
EndSplineSet
EndChar

StartChar: germandbls
Encoding: 223 223 328
Width: 662
GlyphClass: 1
Flags: W
LayerCount: 2
Fore
SplineSet
636 159 m 0,0,1
 636 119 636 119 622.5 87.5 c 128,-1,2
 609 56 609 56 585 34 c 128,-1,3
 561 12 561 12 526.5 0 c 128,-1,4
 492 -12 492 -12 450 -12 c 0,5,6
 388 -12 388 -12 343.5 8.5 c 128,-1,7
 299 29 299 29 269 68 c 1,8,-1
 335 132 l 1,9,10
 383 74 383 74 452 74 c 0,11,12
 490 74 490 74 512 92.5 c 128,-1,13
 534 111 534 111 534 146 c 0,14,15
 534 175 534 175 519 192.5 c 128,-1,16
 504 210 504 210 466 220 c 2,17,-1
 435 228 l 2,18,19
 406 236 406 236 382 247.5 c 128,-1,20
 358 259 358 259 340.5 276 c 128,-1,21
 323 293 323 293 313 317.5 c 128,-1,22
 303 342 303 342 303 375 c 0,23,24
 303 440 303 440 346.5 478.5 c 128,-1,25
 390 517 390 517 465 525 c 1,26,-1
 465 529 l 2,27,28
 465 666 465 666 339 666 c 0,29,30
 214 666 214 666 214 529 c 2,31,-1
 214 0 l 1,32,-1
 105 0 l 1,33,-1
 105 431 l 1,34,-1
 26 431 l 1,35,-1
 26 520 l 1,36,-1
 105 520 l 1,37,-1
 105 524 l 2,38,39
 105 630 105 630 167 691 c 128,-1,40
 229 752 229 752 338 752 c 0,41,42
 391 752 391 752 433.5 736 c 128,-1,43
 476 720 476 720 506 691 c 128,-1,44
 536 662 536 662 552 619.5 c 128,-1,45
 568 577 568 577 568 525 c 2,46,-1
 568 449 l 1,47,-1
 517 449 l 2,48,49
 461 449 461 449 433 434 c 128,-1,50
 405 419 405 419 405 383 c 0,51,52
 405 351 405 351 423.5 337 c 128,-1,53
 442 323 442 323 477 313 c 2,54,-1
 507 304 l 2,55,56
 573 287 573 287 604.5 253 c 128,-1,57
 636 219 636 219 636 159 c 0,0,1
EndSplineSet
Substitution2: "'salt' +BCEEQgQ4BDsEOARBBEIEOARHBDUEQQQ6BDgENQAA +BDAEOwRMBEIENQRABD0EMARCBDgEMgRL lookup 18 subtable" germandbls.alt01
Substitution2: "'ss05' Style Set 5 lookup 17 subtable" germandbls.alt01
Substitution2: "'aalt' +BBIEQQQ1 +BDAEOwRMBEIENQRABD0EMARCBDgEMgQ9BEsENQAA +BDIEMARABDgEMAQ9BEIESwAA lookup 0 subtable" germandbls.alt01
EndChar

StartChar: germandbls.alt01
Encoding: 65569 -1 329
Width: 577
GlyphClass: 1
Flags: W
LayerCount: 2
Fore
SplineSet
78 0 m 1,0,-1
 78 608 l 2,1,2
 78 666 78 666 110 703 c 128,-1,3
 142 740 142 740 209 740 c 2,4,-1
 335 740 l 1,5,-1
 335 651 l 1,6,-1
 184 651 l 1,7,-1
 184 520 l 1,8,-1
 522 520 l 1,9,-1
 522 437 l 1,10,-1
 365 219 l 1,11,12
 455 208 455 208 505.5 159 c 128,-1,13
 556 110 556 110 556 19 c 0,14,15
 556 -90 556 -90 487.5 -145 c 128,-1,16
 419 -200 419 -200 302 -200 c 2,17,-1
 239 -200 l 1,18,-1
 239 -111 l 1,19,-1
 296 -111 l 2,20,21
 372 -113 372 -113 407.5 -84 c 128,-1,22
 443 -55 443 -55 443 8 c 2,23,-1
 443 27 l 2,24,25
 443 89 443 89 406 115 c 128,-1,26
 369 141 369 141 287 141 c 2,27,-1
 268 141 l 1,28,-1
 268 229 l 1,29,-1
 412 431 l 1,30,-1
 184 431 l 1,31,-1
 184 0 l 1,32,-1
 78 0 l 1,0,-1
EndSplineSet
EndChar

StartChar: tbar
Encoding: 359 359 330
Width: 372
GlyphClass: 2
Flags: W
AnchorPoint: "+BBEENQQ3BEsEPARPBD0EPQQ+BDUA--0" 223 0 basechar 0
LayerCount: 2
Fore
SplineSet
320 0 m 1,0,-1
 225 0 l 2,1,2
 168 0 168 0 139 29.5 c 128,-1,3
 110 59 110 59 110 113 c 2,4,-1
 110 236 l 1,5,-1
 46 236 l 1,6,-1
 46 315 l 1,7,-1
 110 315 l 1,8,-1
 110 431 l 1,9,-1
 30 431 l 1,10,-1
 30 520 l 1,11,-1
 73 520 l 2,12,13
 101 520 101 520 111 532 c 128,-1,14
 121 544 121 544 121 571 c 2,15,-1
 121 662 l 1,16,-1
 219 662 l 1,17,-1
 219 520 l 1,18,-1
 328 520 l 1,19,-1
 328 431 l 1,20,-1
 219 431 l 1,21,-1
 219 315 l 1,22,-1
 308 315 l 1,23,-1
 308 236 l 1,24,-1
 219 236 l 1,25,-1
 219 89 l 1,26,-1
 320 89 l 1,27,-1
 320 0 l 1,0,-1
EndSplineSet
EndChar

StartChar: uni0163
Encoding: 355 355 333
Width: 365
GlyphClass: 1
Flags: W
LayerCount: 2
Fore
SplineSet
233 -209 m 0,0,1
 187 -209 187 -209 160.5 -195 c 128,-1,2
 134 -181 134 -181 123 -167 c 1,3,-1
 165 -119 l 1,4,5
 174 -131 174 -131 189.5 -139.5 c 128,-1,6
 205 -148 205 -148 228 -148 c 0,7,8
 247 -148 247 -148 259.5 -141 c 128,-1,9
 272 -134 272 -134 272 -119 c 0,10,11
 272 -107 272 -107 258 -95.5 c 128,-1,12
 244 -84 244 -84 201 -79 c 2,13,-1
 176 -76 l 1,14,-1
 191 2 l 1,15,16
 149 10 149 10 128 38.5 c 128,-1,17
 107 67 107 67 107 113 c 2,18,-1
 107 431 l 1,19,-1
 26 431 l 1,20,-1
 26 520 l 1,21,-1
 70 520 l 2,22,23
 97 520 97 520 107.5 532 c 128,-1,24
 118 544 118 544 118 571 c 2,25,-1
 118 662 l 1,26,-1
 216 662 l 1,27,-1
 216 520 l 1,28,-1
 325 520 l 1,29,-1
 325 431 l 1,30,-1
 216 431 l 1,31,-1
 216 89 l 1,32,-1
 317 89 l 1,33,-1
 317 0 l 1,34,-1
 248 0 l 1,35,-1
 236 -58 l 1,36,-1
 240 -62 l 1,37,38
 251 -59 251 -59 261.5 -57 c 128,-1,39
 272 -55 272 -55 283 -55 c 0,40,41
 312 -55 312 -55 332.5 -71.5 c 128,-1,42
 353 -88 353 -88 353 -123 c 0,43,44
 353 -146 353 -146 343 -162 c 128,-1,45
 333 -178 333 -178 316.5 -188.5 c 128,-1,46
 300 -199 300 -199 278.5 -204 c 128,-1,47
 257 -209 257 -209 233 -209 c 0,0,1
EndSplineSet
Substitution2: "'locl' +BBsEPgQ6BDAEOwQ4BDcEPgQyBDAEPQQ9BEsENQAA +BEQEPgRABDwESwAA in Latin lookup 3 subtable" uni021B
Substitution2: "'locl' +BBsEPgQ6BDAEOwQ4BDcEPgQyBDAEPQQ9BEsENQAA +BEQEPgRABDwESwAA in Latin lookup 2 subtable" uni021B
EndChar

StartChar: thorn
Encoding: 254 254 334
Width: 592
GlyphClass: 1
Flags: W
LayerCount: 2
Fore
SplineSet
78 740 m 1,0,-1
 187 740 l 1,1,-1
 187 434 l 1,2,-1
 192 434 l 1,3,4
 209 481 209 481 247.5 506.5 c 128,-1,5
 286 532 286 532 338 532 c 0,6,7
 437 532 437 532 491 460.5 c 128,-1,8
 545 389 545 389 545 260 c 256,9,10
 545 131 545 131 491 59.5 c 128,-1,11
 437 -12 437 -12 338 -12 c 0,12,13
 286 -12 286 -12 247.5 14 c 128,-1,14
 209 40 209 40 192 86 c 1,15,-1
 187 86 l 1,16,-1
 187 -200 l 1,17,-1
 78 -200 l 1,18,-1
 78 740 l 1,0,-1
305 82 m 0,19,20
 362 82 362 82 396 118.5 c 128,-1,21
 430 155 430 155 430 215 c 2,22,-1
 430 305 l 2,23,24
 430 365 430 365 396 401.5 c 128,-1,25
 362 438 362 438 305 438 c 0,26,27
 255 438 255 438 221 413.5 c 128,-1,28
 187 389 187 389 187 349 c 2,29,-1
 187 171 l 2,30,31
 187 131 187 131 221 106.5 c 128,-1,32
 255 82 255 82 305 82 c 0,19,20
EndSplineSet
EndChar

StartChar: uogonek
Encoding: 371 371 345
Width: 581
GlyphClass: 2
Flags: W
AnchorPoint: "+BBEENQQ3BEsEPARPBD0EPQQ+BDUA--2" 288 540 basechar 0
LayerCount: 2
Fore
SplineSet
502 0 m 1,0,1
 468 -26 468 -26 447.5 -44 c 128,-1,2
 427 -62 427 -62 415.5 -75 c 128,-1,3
 404 -88 404 -88 400.5 -97 c 128,-1,4
 397 -106 397 -106 397 -115 c 0,5,6
 397 -133 397 -133 407 -140 c 128,-1,7
 417 -147 417 -147 431 -147 c 0,8,9
 448 -147 448 -147 460.5 -139.5 c 128,-1,10
 473 -132 473 -132 482 -121 c 1,11,-1
 528 -165 l 1,12,13
 517 -185 517 -185 491.5 -197 c 128,-1,14
 466 -209 466 -209 425 -209 c 0,15,16
 403 -209 403 -209 383.5 -204.5 c 128,-1,17
 364 -200 364 -200 349.5 -190.5 c 128,-1,18
 335 -181 335 -181 326.5 -166 c 128,-1,19
 318 -151 318 -151 318 -129 c 0,20,21
 318 -89 318 -89 348.5 -60 c 128,-1,22
 379 -31 379 -31 427 -3 c 1,23,-1
 426 0 l 1,24,-1
 393 0 l 1,25,-1
 393 86 l 1,26,-1
 389 86 l 1,27,28
 382 67 382 67 370.5 49 c 128,-1,29
 359 31 359 31 341.5 17.5 c 128,-1,30
 324 4 324 4 299.5 -4 c 128,-1,31
 275 -12 275 -12 243 -12 c 0,32,33
 162 -12 162 -12 117.5 40 c 128,-1,34
 73 92 73 92 73 189 c 2,35,-1
 73 520 l 1,36,-1
 182 520 l 1,37,-1
 182 203 l 2,38,39
 182 82 182 82 282 82 c 0,40,41
 303 82 303 82 323 87.5 c 128,-1,42
 343 93 343 93 358.5 104 c 128,-1,43
 374 115 374 115 383.5 132 c 128,-1,44
 393 149 393 149 393 172 c 2,45,-1
 393 520 l 1,46,-1
 502 520 l 1,47,-1
 502 0 l 1,0,1
EndSplineSet
EndChar

StartChar: uhorn
Encoding: 432 432 348
Width: 581
GlyphClass: 2
Flags: W
AnchorPoint: "+BBEENQQ3BEsEPARPBD0EPQQ+BDUA--2" 287 540 basechar 0
AnchorPoint: "+BBEENQQ3BEsEPARPBD0EPQQ+BDUA--0" 285 0 basechar 0
LayerCount: 2
Fore
SplineSet
577 531 m 2,0,1
 577 494 577 494 562 473 c 128,-1,2
 547 452 547 452 502 452 c 1,3,-1
 502 0 l 1,4,-1
 393 0 l 1,5,-1
 393 86 l 1,6,-1
 389 86 l 1,7,8
 382 67 382 67 370.5 49 c 128,-1,9
 359 31 359 31 341.5 17.5 c 128,-1,10
 324 4 324 4 299.5 -4 c 128,-1,11
 275 -12 275 -12 243 -12 c 0,12,13
 162 -12 162 -12 117.5 40 c 128,-1,14
 73 92 73 92 73 189 c 2,15,-1
 73 520 l 1,16,-1
 182 520 l 1,17,-1
 182 203 l 2,18,19
 182 82 182 82 282 82 c 0,20,21
 303 82 303 82 323 87.5 c 128,-1,22
 343 93 343 93 358.5 104 c 128,-1,23
 374 115 374 115 383.5 132 c 128,-1,24
 393 149 393 149 393 172 c 2,25,-1
 393 520 l 1,26,-1
 483 520 l 1,27,-1
 483 629 l 1,28,-1
 577 629 l 1,29,-1
 577 531 l 2,0,1
EndSplineSet
EndChar

StartChar: Aogonek
Encoding: 260 260 381
Width: 662
GlyphClass: 2
Flags: W
AnchorPoint: "+BBEENQQ3BEsEPARPBD0EPQQ+BDUA--2" 329 698 basechar 0
LayerCount: 2
Fore
SplineSet
260 698 m 1,0,-1
 402 698 l 1,1,-1
 640 0 l 1,2,3
 605 -26 605 -26 584.5 -44 c 128,-1,4
 564 -62 564 -62 552.5 -75 c 128,-1,5
 541 -88 541 -88 537.5 -97 c 128,-1,6
 534 -106 534 -106 534 -115 c 0,7,8
 534 -133 534 -133 544 -140 c 128,-1,9
 554 -147 554 -147 568 -147 c 0,10,11
 584 -147 584 -147 596.5 -139.5 c 128,-1,12
 609 -132 609 -132 619 -121 c 1,13,-1
 664 -165 l 1,14,15
 653 -185 653 -185 627.5 -197 c 128,-1,16
 602 -209 602 -209 562 -209 c 0,17,18
 540 -209 540 -209 520.5 -204.5 c 128,-1,19
 501 -200 501 -200 486 -190.5 c 128,-1,20
 471 -181 471 -181 462.5 -166 c 128,-1,21
 454 -151 454 -151 454 -129 c 0,22,23
 454 -89 454 -89 485 -60.5 c 128,-1,24
 516 -32 516 -32 563 -4 c 1,25,-1
 562 0 l 1,26,-1
 522 0 l 1,27,-1
 459 189 l 1,28,-1
 198 189 l 1,29,-1
 137 0 l 1,30,-1
 22 0 l 1,31,-1
 260 698 l 1,0,-1
331 594 m 1,32,-1
 326 594 l 1,33,-1
 225 286 l 1,34,-1
 431 286 l 1,35,-1
 331 594 l 1,32,-1
EndSplineSet
EndChar

StartChar: AE
Encoding: 198 198 395
Width: 933
GlyphClass: 2
Flags: W
AnchorPoint: "+BBEENQQ3BEsEPARPBD0EPQQ+BDUA--2" 614 698 basechar 0
AnchorPoint: "+BBEENQQ3BEsEPARPBD0EPQQ+BDUA--0" 496 0 basechar 0
LayerCount: 2
Fore
SplineSet
426 188 m 1,0,-1
 208 188 l 1,1,-1
 116 0 l 1,2,-1
 2 0 l 1,3,-1
 352 698 l 1,4,-1
 873 698 l 1,5,-1
 873 598 l 1,6,-1
 539 598 l 1,7,-1
 539 404 l 1,8,-1
 842 404 l 1,9,-1
 842 304 l 1,10,-1
 539 304 l 1,11,-1
 539 100 l 1,12,-1
 873 100 l 1,13,-1
 873 0 l 1,14,-1
 426 0 l 1,15,-1
 426 188 l 1,0,-1
409 598 m 1,16,-1
 254 286 l 1,17,-1
 426 286 l 1,18,-1
 426 598 l 1,19,-1
 409 598 l 1,16,-1
EndSplineSet
EndChar

StartChar: Ccedilla
Encoding: 199 199 399
Width: 634
GlyphClass: 2
Flags: W
AnchorPoint: "+BBEENQQ3BEsEPARPBD0EPQQ+BDUA--2" 345 698 basechar 0
LayerCount: 2
Fore
SplineSet
348 609 m 0,0,1
 267 609 267 609 221 554 c 128,-1,2
 175 499 175 499 175 402 c 2,3,-1
 175 296 l 2,4,5
 175 199 175 199 221 144 c 128,-1,6
 267 89 267 89 348 89 c 0,7,8
 411 89 411 89 450.5 121.5 c 128,-1,9
 490 154 490 154 509 205 c 1,10,-1
 600 150 l 1,11,12
 566 77 566 77 507 34.5 c 128,-1,13
 448 -8 448 -8 362 -12 c 1,14,-1
 353 -58 l 1,15,-1
 356 -62 l 1,16,17
 367 -59 367 -59 377.5 -57 c 128,-1,18
 388 -55 388 -55 399 -55 c 0,19,20
 428 -55 428 -55 448.5 -71.5 c 128,-1,21
 469 -88 469 -88 469 -123 c 0,22,23
 469 -146 469 -146 459 -162 c 128,-1,24
 449 -178 449 -178 432.5 -188.5 c 128,-1,25
 416 -199 416 -199 394.5 -204 c 128,-1,26
 373 -209 373 -209 349 -209 c 0,27,28
 304 -209 304 -209 277.5 -195 c 128,-1,29
 251 -181 251 -181 239 -167 c 1,30,-1
 281 -119 l 1,31,32
 290 -131 290 -131 305.5 -139.5 c 128,-1,33
 321 -148 321 -148 344 -148 c 0,34,35
 363 -148 363 -148 375.5 -141 c 128,-1,36
 388 -134 388 -134 388 -119 c 0,37,38
 388 -107 388 -107 374.5 -95.5 c 128,-1,39
 361 -84 361 -84 317 -79 c 2,40,-1
 292 -76 l 1,41,-1
 305 -9 l 1,42,43
 187 5 187 5 121 96 c 128,-1,44
 55 187 55 187 55 349 c 0,45,46
 55 437 55 437 75 504 c 128,-1,47
 95 571 95 571 133 617 c 128,-1,48
 171 663 171 663 225.5 686.5 c 128,-1,49
 280 710 280 710 348 710 c 0,50,51
 439 710 439 710 500.5 670 c 128,-1,52
 562 630 562 630 597 552 c 1,53,-1
 502 500 l 1,54,55
 484 550 484 550 446.5 579.5 c 128,-1,56
 409 609 409 609 348 609 c 0,0,1
EndSplineSet
EndChar

StartChar: Dcroat
Encoding: 272 272 403
Width: 687
GlyphClass: 2
Flags: W
AnchorPoint: "+BBEENQQ3BEsEPARPBD0EPQQ+BDUA--2" 318 698 basechar 0
AnchorPoint: "+BBEENQQ3BEsEPARPBD0EPQQ+BDUA--0" 318 0 basechar 0
LayerCount: 2
Fore
SplineSet
90 320 m 1,0,-1
 13 320 l 1,1,-1
 13 406 l 1,2,-1
 90 406 l 1,3,-1
 90 698 l 1,4,-1
 337 698 l 2,5,6
 404 698 404 698 458.5 676 c 128,-1,7
 513 654 513 654 551.5 610.5 c 128,-1,8
 590 567 590 567 611 501.5 c 128,-1,9
 632 436 632 436 632 349 c 256,10,11
 632 262 632 262 611 196.5 c 128,-1,12
 590 131 590 131 551.5 87.5 c 128,-1,13
 513 44 513 44 458.5 22 c 128,-1,14
 404 0 404 0 337 0 c 2,15,-1
 90 0 l 1,16,-1
 90 320 l 1,0,-1
337 100 m 2,17,18
 415 100 415 100 463 149 c 128,-1,19
 511 198 511 198 511 293 c 2,20,-1
 511 405 l 2,21,22
 511 500 511 500 463 549 c 128,-1,23
 415 598 415 598 337 598 c 2,24,-1
 203 598 l 1,25,-1
 203 406 l 1,26,-1
 333 406 l 1,27,-1
 333 320 l 1,28,-1
 203 320 l 1,29,-1
 203 100 l 1,30,-1
 337 100 l 2,17,18
EndSplineSet
EndChar

StartChar: Eogonek
Encoding: 280 280 415
Width: 593
GlyphClass: 2
Flags: W
AnchorPoint: "+BBEENQQ3BEsEPARPBD0EPQQ+BDUA--2" 309 698 basechar 0
LayerCount: 2
Fore
SplineSet
86 698 m 1,0,-1
 533 698 l 1,1,-1
 533 598 l 1,2,-1
 199 598 l 1,3,-1
 199 404 l 1,4,-1
 502 404 l 1,5,-1
 502 304 l 1,6,-1
 199 304 l 1,7,-1
 199 100 l 1,8,-1
 533 100 l 1,9,-1
 533 0 l 1,10,11
 499 -26 499 -26 478.5 -44 c 128,-1,12
 458 -62 458 -62 447 -75 c 128,-1,13
 436 -88 436 -88 432.5 -97 c 128,-1,14
 429 -106 429 -106 429 -115 c 0,15,16
 429 -133 429 -133 439 -140 c 128,-1,17
 449 -147 449 -147 463 -147 c 0,18,19
 479 -147 479 -147 491.5 -139.5 c 128,-1,20
 504 -132 504 -132 514 -121 c 1,21,-1
 559 -165 l 1,22,23
 548 -185 548 -185 522.5 -197 c 128,-1,24
 497 -209 497 -209 457 -209 c 0,25,26
 435 -209 435 -209 415.5 -204.5 c 128,-1,27
 396 -200 396 -200 381 -190.5 c 128,-1,28
 366 -181 366 -181 357.5 -166 c 128,-1,29
 349 -151 349 -151 349 -129 c 0,30,31
 349 -89 349 -89 379.5 -60 c 128,-1,32
 410 -31 410 -31 458 -5 c 1,33,-1
 457 0 l 1,34,-1
 86 0 l 1,35,-1
 86 698 l 1,0,-1
EndSplineSet
EndChar

StartChar: uni018F
Encoding: 399 399 422
Width: 712
GlyphClass: 2
Flags: W
AnchorPoint: "+BBEENQQ3BEsEPARPBD0EPQQ+BDUA--2" 352 698 basechar 0
AnchorPoint: "+BBEENQQ3BEsEPARPBD0EPQQ+BDUA--0" 355 0 basechar 0
LayerCount: 2
Fore
SplineSet
537 401 m 2,0,1
 537 449 537 449 523.5 487.5 c 128,-1,2
 510 526 510 526 485.5 553 c 128,-1,3
 461 580 461 580 427.5 594.5 c 128,-1,4
 394 609 394 609 355 609 c 0,5,6
 287 609 287 609 245 575.5 c 128,-1,7
 203 542 203 542 182 483 c 1,8,-1
 83 524 l 1,9,10
 98 563 98 563 122 597 c 128,-1,11
 146 631 146 631 180 656 c 128,-1,12
 214 681 214 681 258 695.5 c 128,-1,13
 302 710 302 710 355 710 c 0,14,15
 424 710 424 710 480 686 c 128,-1,16
 536 662 536 662 575.5 616 c 128,-1,17
 615 570 615 570 636 502.5 c 128,-1,18
 657 435 657 435 657 349 c 256,19,20
 657 263 657 263 636 195.5 c 128,-1,21
 615 128 615 128 575.5 82 c 128,-1,22
 536 36 536 36 480 12 c 128,-1,23
 424 -12 424 -12 355 -12 c 256,24,25
 286 -12 286 -12 230.5 11 c 128,-1,26
 175 34 175 34 136 79.5 c 128,-1,27
 97 125 97 125 76 192.5 c 128,-1,28
 55 260 55 260 55 349 c 2,29,-1
 55 383 l 1,30,-1
 537 383 l 1,31,-1
 537 401 l 2,0,1
174 290 m 1,32,33
 175 246 175 246 188 209 c 128,-1,34
 201 172 201 172 225.5 145 c 128,-1,35
 250 118 250 118 283 103.5 c 128,-1,36
 316 89 316 89 355 89 c 256,37,38
 394 89 394 89 427.5 103.5 c 128,-1,39
 461 118 461 118 485.5 145 c 128,-1,40
 510 172 510 172 523 209 c 128,-1,41
 536 246 536 246 537 290 c 1,42,-1
 174 290 l 1,32,33
EndSplineSet
EndChar

StartChar: Hbar
Encoding: 294 294 427
Width: 722
GlyphClass: 2
Flags: W
AnchorPoint: "+BBEENQQ3BEsEPARPBD0EPQQ+BDUA--2" 361 698 basechar 0
AnchorPoint: "+BBEENQQ3BEsEPARPBD0EPQQ+BDUA--0" 361 0 basechar 0
LayerCount: 2
Fore
SplineSet
519 304 m 1,0,-1
 203 304 l 1,1,-1
 203 0 l 1,2,-1
 90 0 l 1,3,-1
 90 513 l 1,4,-1
 19 513 l 1,5,-1
 19 598 l 1,6,-1
 90 598 l 1,7,-1
 90 698 l 1,8,-1
 203 698 l 1,9,-1
 203 598 l 1,10,-1
 519 598 l 1,11,-1
 519 698 l 1,12,-1
 632 698 l 1,13,-1
 632 598 l 1,14,-1
 703 598 l 1,15,-1
 703 513 l 1,16,-1
 632 513 l 1,17,-1
 632 0 l 1,18,-1
 519 0 l 1,19,-1
 519 304 l 1,0,-1
519 404 m 1,20,-1
 519 513 l 1,21,-1
 203 513 l 1,22,-1
 203 404 l 1,23,-1
 519 404 l 1,20,-1
EndSplineSet
EndChar

StartChar: Iogonek
Encoding: 302 302 439
Width: 416
GlyphClass: 2
Flags: W
AnchorPoint: "+BBEENQQ3BEsEPARPBD0EPQQ+BDUA--2" 207 698 basechar 0
LayerCount: 2
Fore
SplineSet
56 92 m 1,0,-1
 151 92 l 1,1,-1
 151 606 l 1,2,-1
 56 606 l 1,3,-1
 56 698 l 1,4,-1
 360 698 l 1,5,-1
 360 606 l 1,6,-1
 264 606 l 1,7,-1
 264 92 l 1,8,-1
 360 92 l 1,9,-1
 360 0 l 1,10,11
 326 -26 326 -26 305.5 -44 c 128,-1,12
 285 -62 285 -62 273.5 -75 c 128,-1,13
 262 -88 262 -88 258.5 -97 c 128,-1,14
 255 -106 255 -106 255 -115 c 0,15,16
 255 -133 255 -133 265 -140 c 128,-1,17
 275 -147 275 -147 289 -147 c 0,18,19
 305 -147 305 -147 317.5 -139.5 c 128,-1,20
 330 -132 330 -132 340 -121 c 1,21,-1
 386 -165 l 1,22,23
 375 -185 375 -185 349 -197 c 128,-1,24
 323 -209 323 -209 283 -209 c 0,25,26
 261 -209 261 -209 241.5 -204.5 c 128,-1,27
 222 -200 222 -200 207.5 -190.5 c 128,-1,28
 193 -181 193 -181 184.5 -166 c 128,-1,29
 176 -151 176 -151 176 -129 c 0,30,31
 176 -90 176 -90 204.5 -62 c 128,-1,32
 233 -34 233 -34 284 -5 c 1,33,-1
 283 0 l 1,34,-1
 56 0 l 1,35,-1
 56 92 l 1,0,-1
EndSplineSet
EndChar

StartChar: IJ
Encoding: 306 306 441
Width: 650
GlyphClass: 1
Flags: W
LayerCount: 2
Fore
SplineSet
568 698 m 1,0,-1
 568 219 l 2,1,2
 568 165 568 165 551 122.5 c 128,-1,3
 534 80 534 80 502.5 50 c 128,-1,4
 471 20 471 20 426 4 c 128,-1,5
 381 -12 381 -12 325 -12 c 0,6,7
 272 -12 272 -12 231.5 1.5 c 128,-1,8
 191 15 191 15 161.5 38.5 c 128,-1,9
 132 62 132 62 113.5 95 c 128,-1,10
 95 128 95 128 88 167 c 1,11,-1
 192 190 l 1,12,13
 202 145 202 145 234.5 117 c 128,-1,14
 267 89 267 89 326 89 c 0,15,16
 383 89 383 89 419 118.5 c 128,-1,17
 455 148 455 148 455 213 c 2,18,-1
 455 603 l 1,19,-1
 331 603 l 1,20,-1
 331 698 l 1,21,-1
 568 698 l 1,0,-1
82 698 m 1,22,-1
 195 698 l 1,23,-1
 195 298 l 1,24,-1
 82 298 l 1,25,-1
 82 698 l 1,22,-1
EndSplineSet
EndChar

StartChar: Lslash
Encoding: 321 321 448
Width: 522
GlyphClass: 1
Flags: W
LayerCount: 2
Fore
SplineSet
487 0 m 1,0,-1
 90 0 l 1,1,-1
 90 259 l 1,2,-1
 -7 227 l 1,3,-1
 -7 314 l 1,4,-1
 90 346 l 1,5,-1
 90 698 l 1,6,-1
 203 698 l 1,7,-1
 203 383 l 1,8,-1
 374 440 l 1,9,-1
 374 351 l 1,10,-1
 203 295 l 1,11,-1
 203 100 l 1,12,-1
 487 100 l 1,13,-1
 487 0 l 1,0,-1
EndSplineSet
EndChar

StartChar: Eng
Encoding: 330 330 453
Width: 714
GlyphClass: 2
Flags: W
AnchorPoint: "+BBEENQQ3BEsEPARPBD0EPQQ+BDUA--2" 356 698 basechar 0
LayerCount: 2
Fore
SplineSet
86 0 m 1,0,-1
 86 698 l 1,1,-1
 212 698 l 1,2,-1
 440 312 l 1,3,-1
 517 164 l 1,4,-1
 520 164 l 1,5,-1
 520 698 l 1,6,-1
 628 698 l 1,7,-1
 628 -67 l 2,8,9
 628 -129 628 -129 597 -164.5 c 128,-1,10
 566 -200 566 -200 500 -200 c 2,11,-1
 435 -200 l 1,12,-1
 435 -108 l 1,13,-1
 520 -108 l 1,14,-1
 520 0 l 1,15,-1
 502 0 l 1,16,-1
 274 386 l 1,17,-1
 197 534 l 1,18,-1
 194 534 l 1,19,-1
 194 0 l 1,20,-1
 86 0 l 1,0,-1
EndSplineSet
EndChar

StartChar: Oslash
Encoding: 216 216 464
Width: 712
GlyphClass: 2
Flags: W
AnchorPoint: "+BBEENQQ3BEsEPARPBD0EPQQ+BDUA--2" 355 698 basechar 0
AnchorPoint: "+BBEENQQ3BEsEPARPBD0EPQQ+BDUA--0" 355 0 basechar 0
LayerCount: 2
Fore
SplineSet
356 -12 m 0,0,1
 261 -12 261 -12 193 32 c 1,2,-1
 136 -50 l 1,3,-1
 64 -3 l 1,4,-1
 129 91 l 1,5,6
 94 136 94 136 74.5 200.5 c 128,-1,7
 55 265 55 265 55 349 c 0,8,9
 55 437 55 437 76.5 504.5 c 128,-1,10
 98 572 98 572 137.5 617.5 c 128,-1,11
 177 663 177 663 232.5 686.5 c 128,-1,12
 288 710 288 710 356 710 c 0,13,14
 451 710 451 710 519 666 c 1,15,-1
 576 748 l 1,16,-1
 648 701 l 1,17,-1
 583 607 l 1,18,19
 618 562 618 562 637.5 497.5 c 128,-1,20
 657 433 657 433 657 349 c 0,21,22
 657 261 657 261 635.5 193.5 c 128,-1,23
 614 126 614 126 574.5 80.5 c 128,-1,24
 535 35 535 35 479.5 11.5 c 128,-1,25
 424 -12 424 -12 356 -12 c 0,0,1
173 292 m 2,26,27
 173 229 173 229 196 181 c 1,28,-1
 464 580 l 1,29,30
 419 614 419 614 356 614 c 0,31,32
 315 614 315 614 281 599.5 c 128,-1,33
 247 585 247 585 223 558 c 128,-1,34
 199 531 199 531 186 492.5 c 128,-1,35
 173 454 173 454 173 406 c 2,36,-1
 173 292 l 2,26,27
539 406 m 2,37,38
 539 469 539 469 516 517 c 1,39,-1
 248 118 l 1,40,41
 293 84 293 84 356 84 c 0,42,43
 397 84 397 84 431 98.5 c 128,-1,44
 465 113 465 113 489 140 c 128,-1,45
 513 167 513 167 526 205.5 c 128,-1,46
 539 244 539 244 539 292 c 2,47,-1
 539 406 l 2,37,38
EndSplineSet
EndChar

StartChar: Ohorn
Encoding: 416 416 467
Width: 712
GlyphClass: 2
Flags: W
AnchorPoint: "+BBEENQQ3BEsEPARPBD0EPQQ+BDUA--2" 355 698 basechar 0
AnchorPoint: "+BBEENQQ3BEsEPARPBD0EPQQ+BDUA--0" 355 0 basechar 0
LayerCount: 2
Fore
SplineSet
668 807 m 1,0,-1
 668 710 l 2,1,2
 668 673 668 673 652.5 652 c 128,-1,3
 637 631 637 631 589 631 c 2,4,-1
 562 631 l 1,5,6
 611 581 611 581 634 510.5 c 128,-1,7
 657 440 657 440 657 349 c 0,8,9
 657 261 657 261 635.5 193.5 c 128,-1,10
 614 126 614 126 574.5 80.5 c 128,-1,11
 535 35 535 35 479.5 11.5 c 128,-1,12
 424 -12 424 -12 356 -12 c 256,13,14
 288 -12 288 -12 232.5 11.5 c 128,-1,15
 177 35 177 35 137.5 80.5 c 128,-1,16
 98 126 98 126 76.5 193.5 c 128,-1,17
 55 261 55 261 55 349 c 256,18,19
 55 437 55 437 76.5 504.5 c 128,-1,20
 98 572 98 572 137.5 617.5 c 128,-1,21
 177 663 177 663 232.5 686.5 c 128,-1,22
 288 710 288 710 356 710 c 0,23,24
 405 710 405 710 447 698 c 1,25,-1
 575 698 l 1,26,-1
 575 807 l 1,27,-1
 668 807 l 1,0,-1
356 89 m 0,28,29
 396 89 396 89 429.5 103 c 128,-1,30
 463 117 463 117 486.5 143.5 c 128,-1,31
 510 170 510 170 523 208 c 128,-1,32
 536 246 536 246 536 294 c 2,33,-1
 536 404 l 2,34,35
 536 452 536 452 523 490 c 128,-1,36
 510 528 510 528 486.5 554.5 c 128,-1,37
 463 581 463 581 429.5 595 c 128,-1,38
 396 609 396 609 356 609 c 0,39,40
 315 609 315 609 282 595 c 128,-1,41
 249 581 249 581 225.5 554.5 c 128,-1,42
 202 528 202 528 189 490 c 128,-1,43
 176 452 176 452 176 404 c 2,44,-1
 176 294 l 2,45,46
 176 246 176 246 189 208 c 128,-1,47
 202 170 202 170 225.5 143.5 c 128,-1,48
 249 117 249 117 282 103 c 128,-1,49
 315 89 315 89 356 89 c 0,28,29
EndSplineSet
EndChar

StartChar: OE
Encoding: 338 338 478
Width: 990
GlyphClass: 2
Flags: W
AnchorPoint: "+BBEENQQ3BEsEPARPBD0EPQQ+BDUA--2" 562 698 basechar 0
AnchorPoint: "+BBEENQQ3BEsEPARPBD0EPQQ+BDUA--0" 562 0 basechar 0
LayerCount: 2
Fore
SplineSet
486 0 m 1,0,1
 460 -5 460 -5 427.5 -8.5 c 128,-1,2
 395 -12 395 -12 363 -12 c 0,3,4
 292 -12 292 -12 235 11 c 128,-1,5
 178 34 178 34 138 80 c 128,-1,6
 98 126 98 126 76.5 193 c 128,-1,7
 55 260 55 260 55 349 c 0,8,9
 55 437 55 437 76.5 504.5 c 128,-1,10
 98 572 98 572 138 618 c 128,-1,11
 178 664 178 664 235 687 c 128,-1,12
 292 710 292 710 363 710 c 0,13,14
 395 710 395 710 428 706.5 c 128,-1,15
 461 703 461 703 489 698 c 1,16,-1
 930 698 l 1,17,-1
 930 598 l 1,18,-1
 596 598 l 1,19,-1
 596 404 l 1,20,-1
 899 404 l 1,21,-1
 899 304 l 1,22,-1
 596 304 l 1,23,-1
 596 100 l 1,24,-1
 930 100 l 1,25,-1
 930 0 l 1,26,-1
 486 0 l 1,0,1
369 89 m 0,27,28
 398 89 398 89 427.5 92 c 128,-1,29
 457 95 457 95 483 103 c 1,30,-1
 483 595 l 1,31,32
 457 602 457 602 427.5 605.5 c 128,-1,33
 398 609 398 609 369 609 c 0,34,35
 272 609 272 609 224 554.5 c 128,-1,36
 176 500 176 500 176 404 c 2,37,-1
 176 294 l 2,38,39
 176 198 176 198 224 143.5 c 128,-1,40
 272 89 272 89 369 89 c 0,27,28
EndSplineSet
EndChar

StartChar: Scedilla
Encoding: 350 350 484
Width: 598
GlyphClass: 2
Flags: W
AnchorPoint: "+BBEENQQ3BEsEPARPBD0EPQQ+BDUA--2" 297 698 basechar 0
LayerCount: 2
Fore
SplineSet
299 610 m 0,0,1
 239 610 239 610 206 586 c 128,-1,2
 173 562 173 562 173 516 c 0,3,4
 173 472 173 472 200 450.5 c 128,-1,5
 227 429 227 429 284 418 c 2,6,-1
 346 405 l 2,7,8
 451 385 451 385 499.5 337 c 128,-1,9
 548 289 548 289 548 205 c 0,10,11
 548 112 548 112 488.5 54 c 128,-1,12
 429 -4 429 -4 320 -11 c 1,13,-1
 311 -58 l 1,14,-1
 314 -62 l 1,15,16
 325 -59 325 -59 335.5 -57 c 128,-1,17
 346 -55 346 -55 357 -55 c 0,18,19
 387 -55 387 -55 407 -71.5 c 128,-1,20
 427 -88 427 -88 427 -123 c 0,21,22
 427 -146 427 -146 417 -162 c 128,-1,23
 407 -178 407 -178 390.5 -188.5 c 128,-1,24
 374 -199 374 -199 352.5 -204 c 128,-1,25
 331 -209 331 -209 307 -209 c 0,26,27
 262 -209 262 -209 235.5 -195 c 128,-1,28
 209 -181 209 -181 198 -167 c 1,29,-1
 239 -119 l 1,30,31
 248 -131 248 -131 263.5 -139.5 c 128,-1,32
 279 -148 279 -148 302 -148 c 0,33,34
 321 -148 321 -148 333.5 -141 c 128,-1,35
 346 -134 346 -134 346 -119 c 0,36,37
 346 -107 346 -107 332.5 -95.5 c 128,-1,38
 319 -84 319 -84 275 -79 c 2,39,-1
 250 -76 l 1,40,-1
 263 -11 l 1,41,42
 188 -6 188 -6 133.5 25.5 c 128,-1,43
 79 57 79 57 40 106 c 1,44,-1
 118 179 l 1,45,46
 154 134 154 134 199 111 c 128,-1,47
 244 88 244 88 301 88 c 0,48,49
 368 88 368 88 402 118 c 128,-1,50
 436 148 436 148 436 199 c 0,51,52
 436 240 436 240 412 264 c 128,-1,53
 388 288 388 288 327 300 c 2,54,-1
 265 311 l 2,55,56
 163 330 163 330 112 378 c 128,-1,57
 61 426 61 426 61 510 c 0,58,59
 61 556 61 556 78.5 593.5 c 128,-1,60
 96 631 96 631 127.5 656.5 c 128,-1,61
 159 682 159 682 204 696 c 128,-1,62
 249 710 249 710 305 710 c 0,63,64
 384 710 384 710 442 682.5 c 128,-1,65
 500 655 500 655 541 603 c 1,66,-1
 462 533 l 1,67,68
 435 568 435 568 396 589 c 128,-1,69
 357 610 357 610 299 610 c 0,0,1
EndSplineSet
Substitution2: "'locl' +BBsEPgQ6BDAEOwQ4BDcEPgQyBDAEPQQ9BEsENQAA +BEQEPgRABDwESwAA in Latin lookup 3 subtable" Scommaaccent
Substitution2: "'locl' +BBsEPgQ6BDAEOwQ4BDcEPgQyBDAEPQQ9BEsENQAA +BEQEPgRABDwESwAA in Latin lookup 2 subtable" Scommaaccent
EndChar

StartChar: uni1E9E
Encoding: 7838 7838 487
Width: 713
GlyphClass: 1
Flags: W
LayerCount: 2
Fore
SplineSet
671 205 m 256,0,1
 671 156 671 156 655.5 116 c 128,-1,2
 640 76 640 76 610.5 47.5 c 128,-1,3
 581 19 581 19 539.5 3.5 c 128,-1,4
 498 -12 498 -12 447 -12 c 0,5,6
 315 -12 315 -12 248 75 c 1,7,-1
 322 145 l 1,8,9
 346 115 346 115 376 98.5 c 128,-1,10
 406 82 406 82 447 82 c 0,11,12
 498 82 498 82 526 111 c 128,-1,13
 554 140 554 140 554 186 c 2,14,-1
 554 218 l 2,15,16
 554 264 554 264 525.5 291.5 c 128,-1,17
 497 319 497 319 438 319 c 2,18,-1
 343 319 l 1,19,-1
 343 413 l 1,20,-1
 505 601 l 1,21,-1
 199 601 l 1,22,-1
 199 0 l 1,23,-1
 86 0 l 1,24,-1
 86 698 l 1,25,-1
 618 698 l 1,26,-1
 618 592 l 1,27,-1
 461 409 l 1,28,-1
 461 405 l 1,29,30
 504 404 504 404 542.5 391 c 128,-1,31
 581 378 581 378 609.5 353 c 128,-1,32
 638 328 638 328 654.5 291 c 128,-1,33
 671 254 671 254 671 205 c 256,0,1
EndSplineSet
EndChar

StartChar: Tbar
Encoding: 358 358 488
Width: 589
GlyphClass: 2
Flags: W
AnchorPoint: "+BBEENQQ3BEsEPARPBD0EPQQ+BDUA--2" 294 698 basechar 0
AnchorPoint: "+BBEENQQ3BEsEPARPBD0EPQQ+BDUA--0" 294 0 basechar 0
LayerCount: 2
Fore
SplineSet
351 311 m 1,0,-1
 351 0 l 1,1,-1
 238 0 l 1,2,-1
 238 311 l 1,3,-1
 85 311 l 1,4,-1
 85 396 l 1,5,-1
 238 396 l 1,6,-1
 238 598 l 1,7,-1
 30 598 l 1,8,-1
 30 698 l 1,9,-1
 559 698 l 1,10,-1
 559 598 l 1,11,-1
 351 598 l 1,12,-1
 351 396 l 1,13,-1
 504 396 l 1,14,-1
 504 311 l 1,15,-1
 351 311 l 1,0,-1
EndSplineSet
EndChar

StartChar: uni0162
Encoding: 354 354 491
Width: 577
GlyphClass: 1
Flags: W
LayerCount: 2
Fore
SplineSet
232 598 m 1,0,-1
 24 598 l 1,1,-1
 24 698 l 1,2,-1
 553 698 l 1,3,-1
 553 598 l 1,4,-1
 345 598 l 1,5,-1
 345 0 l 1,6,-1
 317 0 l 1,7,-1
 305 -58 l 1,8,-1
 309 -62 l 1,9,10
 320 -59 320 -59 330.5 -57 c 128,-1,11
 341 -55 341 -55 352 -55 c 0,12,13
 381 -55 381 -55 401.5 -71.5 c 128,-1,14
 422 -88 422 -88 422 -123 c 0,15,16
 422 -146 422 -146 412 -162 c 128,-1,17
 402 -178 402 -178 385.5 -188.5 c 128,-1,18
 369 -199 369 -199 347.5 -204 c 128,-1,19
 326 -209 326 -209 302 -209 c 0,20,21
 256 -209 256 -209 229.5 -195 c 128,-1,22
 203 -181 203 -181 192 -167 c 1,23,-1
 234 -119 l 1,24,25
 243 -131 243 -131 258.5 -139.5 c 128,-1,26
 274 -148 274 -148 297 -148 c 0,27,28
 316 -148 316 -148 328.5 -141 c 128,-1,29
 341 -134 341 -134 341 -119 c 0,30,31
 341 -107 341 -107 327 -95.5 c 128,-1,32
 313 -84 313 -84 270 -79 c 2,33,-1
 245 -76 l 1,34,-1
 260 0 l 1,35,-1
 232 0 l 1,36,-1
 232 598 l 1,0,-1
EndSplineSet
Substitution2: "'locl' +BBsEPgQ6BDAEOwQ4BDcEPgQyBDAEPQQ9BEsENQAA +BEQEPgRABDwESwAA in Latin lookup 3 subtable" uni021A
Substitution2: "'locl' +BBsEPgQ6BDAEOwQ4BDcEPgQyBDAEPQQ9BEsENQAA +BEQEPgRABDwESwAA in Latin lookup 2 subtable" uni021A
EndChar

StartChar: Thorn
Encoding: 222 222 492
Width: 627
GlyphClass: 1
Flags: W
LayerCount: 2
Fore
SplineSet
86 0 m 1,0,-1
 86 698 l 1,1,-1
 199 698 l 1,2,-1
 199 564 l 1,3,-1
 386 564 l 2,4,5
 434 564 434 564 471.5 549 c 128,-1,6
 509 534 509 534 535.5 506.5 c 128,-1,7
 562 479 562 479 575.5 440 c 128,-1,8
 589 401 589 401 589 354 c 256,9,10
 589 307 589 307 575.5 268 c 128,-1,11
 562 229 562 229 535.5 201.5 c 128,-1,12
 509 174 509 174 471.5 159 c 128,-1,13
 434 144 434 144 386 144 c 2,14,-1
 199 144 l 1,15,-1
 199 0 l 1,16,-1
 86 0 l 1,0,-1
199 243 m 1,17,-1
 379 243 l 2,18,19
 422 243 422 243 446 265.5 c 128,-1,20
 470 288 470 288 470 330 c 2,21,-1
 470 378 l 2,22,23
 470 420 470 420 446 442.5 c 128,-1,24
 422 465 422 465 379 465 c 2,25,-1
 199 465 l 1,26,-1
 199 243 l 1,17,-1
EndSplineSet
EndChar

StartChar: Uogonek
Encoding: 370 370 503
Width: 686
GlyphClass: 2
Flags: W
AnchorPoint: "+BBEENQQ3BEsEPARPBD0EPQQ+BDUA--2" 341 698 basechar 0
LayerCount: 2
Fore
SplineSet
193 698 m 1,0,-1
 193 268 l 2,1,2
 193 179 193 179 227 134 c 128,-1,3
 261 89 261 89 343 89 c 256,4,5
 425 89 425 89 459 134 c 128,-1,6
 493 179 493 179 493 268 c 2,7,-1
 493 698 l 1,8,-1
 604 698 l 1,9,-1
 604 286 l 2,10,11
 604 235 604 235 598.5 194 c 128,-1,12
 593 153 593 153 579.5 118 c 128,-1,13
 566 83 566 83 543.5 52 c 128,-1,14
 521 21 521 21 486 -9 c 0,15,16
 443 -47 443 -47 418 -69.5 c 128,-1,17
 393 -92 393 -92 393 -116 c 0,18,19
 393 -133 393 -133 403 -140 c 128,-1,20
 413 -147 413 -147 427 -147 c 0,21,22
 443 -147 443 -147 455.5 -139.5 c 128,-1,23
 468 -132 468 -132 478 -121 c 1,24,-1
 523 -165 l 1,25,26
 512 -185 512 -185 486.5 -197 c 128,-1,27
 461 -209 461 -209 421 -209 c 0,28,29
 378 -209 378 -209 346 -190.5 c 128,-1,30
 314 -172 314 -172 314 -131 c 0,31,32
 314 -110 314 -110 322.5 -93 c 128,-1,33
 331 -76 331 -76 347 -61.5 c 128,-1,34
 363 -47 363 -47 384 -33.5 c 128,-1,35
 405 -20 405 -20 431 -6 c 1,36,-1
 428 -1 l 1,37,38
 408 -7 408 -7 386.5 -9.5 c 128,-1,39
 365 -12 365 -12 341 -12 c 0,40,41
 269 -12 269 -12 219.5 6 c 128,-1,42
 170 24 170 24 139.5 60.5 c 128,-1,43
 109 97 109 97 95.5 153 c 128,-1,44
 82 209 82 209 82 286 c 2,45,-1
 82 698 l 1,46,-1
 193 698 l 1,0,-1
EndSplineSet
EndChar

